SplineFontDB: 3.0
FontName: PadaukBold
FullName: Padauk Bold
Copyright: Copyright (c) 2002-2010 SIL International.
ItalicAngle: 0
UnderlinePosition: -450
UnderlineWidth: 50
Ascent: 819
Descent: 205
InvalidEm: 0
LayerCount: 2
Layer: 0 0 "Back" 1
Layer: 1 0 "Fore" 0
XUID: [1021 920 141989788 2009808]
OS2Version: 0
OS2_WeightWidthSlopeOnly: 0
OS2_UseTypoMetrics: 0
CreationTime: 1403159843
ModificationTime: 1444193141
PfmFamily: 17
TTFWeight: 700
TTFWidth: 5
LineGap: 0
VLineGap: 92
Panose: 2 0 7 0 2 0 0 2 0 4
OS2TypoAscent: 1010
OS2TypoAOffset: 0
OS2TypoDescent: -500
OS2TypoDOffset: 0
OS2TypoLinegap: 0
OS2WinAscent: 1010
OS2WinAOffset: 0
OS2WinDescent: 500
OS2WinDOffset: 0
HheadAscent: 1010
HheadAOffset: 0
HheadDescent: -500
HheadDOffset: 0
OS2SubXSize: 214
OS2SubYSize: 214
OS2SubXOff: 0
OS2SubYOff: 300
OS2SupXSize: 214
OS2SupYSize: 214
OS2SupXOff: 0
OS2SupYOff: 300
OS2StrikeYSize: 52
OS2StrikeYPos: 262
OS2CapHeight: 0
OS2XHeight: 0
OS2Vendor: 'SIL '
OS2CodePages: 00000001.00000000
Lookup: 4 0 0 "ngakinzi" { "cligContextualLigaturesinMyanma subtable"  } ['clig' ('mymr' <'KHT ' 'KSW ' 'KYU ' 'dflt' > ) ]
Lookup: 2 0 0 "insert25cc" { "sub_mult_cligmymr_0 subtable"  } ['clig' ('mymr' <'KHT ' 'KSW ' 'KYU ' 'dflt' > ) ]
Lookup: 4 0 0 "remove25ccAsat-Ligature" { "LigatureSubstitutionlookup103 subtable"  } []
Lookup: 6 0 0 "remove25ccAsat" { "sub_chain_cligmymr_0 contextual 0"  "sub_chain_cligmymr_0 contextual 1"  "sub_chain_cligmymr_0 contextual 2"  "sub_chain_cligmymr_0 contextual 3"  "sub_chain_cligmymr_0 contextual 4"  "sub_chain_cligmymr_0 contextual 5"  "sub_chain_cligmymr_0 contextual 6"  "sub_chain_cligmymr_0 contextual 7"  "sub_chain_cligmymr_0 contextual 8"  "sub_chain_cligmymr_0 contextual 9"  } ['clig' ('mymr' <'KHT ' 'KSW ' 'KYU ' 'dflt' > ) ]
Lookup: 4 0 0 "remove25cc1039-Ligature" { "LigatureSubstitutionlookup104 subtable"  } []

StartChar: .notdef
Encoding: 0 -1 0
Width: 1
VWidth: 0
GlyphClass: 2
Flags: HW
LayerCount: 2
Back
Fore
SplineSet
530 464 m 0
 530 -5 l 0
 55 -5 l 0
 55 464 l 0
 530 464 l 0
107 412 m 0
 107 48 l 0
 480 48 l 0
 480 412 l 0
 107 412 l 0
EndSplineSet
EndChar

StartChar: exclam
Encoding: 4 33 4
Width: 273
VWidth: 0
GlyphClass: 2
Flags: HW
LayerCount: 2
Back
Fore
SplineSet
218 59 m 0
 218 15 181 -20 137 -20 c 0
 93 -20 56 15 56 59 c 0
 56 102 93 138 137 138 c 0
 181 138 218 102 218 59 c 0
137 813 m 0
 167 813 187 788 189 753 c 0
 191 730 192 702 192 670 c 0
 192 517 180 365 166 267 c 0
 159 216 155 200 137 200 c 0
 119 200 115 216 108 268 c 0
 95 365 83 517 83 670 c 0
 83 702 84 730 86 753 c 0
 88 788 107 813 137 813 c 0
EndSplineSet
Comment: "GDL_order: 0+AAoA-mark: 80+AAoA"
EndChar

StartChar: quotedbl
Encoding: 5 34 5
Width: 443
VWidth: 0
GlyphClass: 2
Flags: HW
LayerCount: 2
Back
Fore
SplineSet
380 643 m 0
 359 385 l 0
 282 385 l 0
 260 643 l 0
 380 643 l 0
182 643 m 0
 160 385 l 0
 84 385 l 0
 62 643 l 0
 182 643 l 0
EndSplineSet
Comment: "mark: 1+AAoA"
EndChar

StartChar: numbersign
Encoding: 6 35 6
Width: 555
VWidth: 0
GlyphClass: 2
Flags: HW
LayerCount: 2
Back
Fore
SplineSet
500 88 m 0
 395 88 l 0
 380 -25 l 0
 287 -25 l 0
 302 88 l 0
 218 88 l 0
 203 -25 l 0
 110 -25 l 0
 125 88 l 0
 55 88 l 0
 55 181 l 0
 137 181 l 0
 147 265 l 0
 55 265 l 0
 55 358 l 0
 159 358 l 0
 177 485 l 0
 270 485 l 0
 253 358 l 0
 336 358 l 0
 354 485 l 0
 447 485 l 0
 430 358 l 0
 500 358 l 0
 500 265 l 0
 417 265 l 0
 407 181 l 0
 500 181 l 0
 500 88 l 0
324 265 m 0
 240 265 l 0
 230 181 l 0
 314 181 l 0
 324 265 l 0
EndSplineSet
Comment: "GDL_order: 0+AAoA-mark: 80+AAoA"
EndChar

StartChar: dollar
Encoding: 7 36 7
Width: 507
VWidth: 0
GlyphClass: 2
Flags: HW
LayerCount: 2
Back
Fore
SplineSet
479 182 m 0
 479 60 378 -2 277 -12 c 0
 277 -92 l 0
 231 -92 l 0
 231 -13 l 0
 103 -3 27 73 27 197 c 0
 137 197 l 0
 137 130 164 87 231 82 c 0
 231 279 l 0
 125 311 41 336 41 459 c 0
 41 568 130 648 231 648 c 0
 231 708 l 0
 277 708 l 0
 277 649 l 0
 387 649 460 571 460 464 c 0
 349 464 l 0
 349 524 328 551 277 557 c 0
 277 372 l 0
 372 345 479 320 479 182 c 0
231 386 m 0
 231 555 l 0
 167 546 149 513 149 468 c 0
 149 422 177 406 231 386 c 0
371 172 m 0
 371 228 337 249 277 269 c 0
 277 83 l 0
 330 88 371 114 371 172 c 0
EndSplineSet
Comment: "mark: 1+AAoA"
EndChar

StartChar: percent
Encoding: 8 37 8
Width: 743
VWidth: 0
GlyphClass: 2
Flags: HW
LayerCount: 2
Back
Fore
SplineSet
587 440 m 0
 227 -69 l 0
 156 -9 l 0
 511 497 l 0
 587 440 l 0
316 346 m 0
 316 278 255 214 186 214 c 0
 112 214 51 278 51 346 c 0
 51 419 112 481 186 481 c 0
 255 481 316 419 316 346 c 0
691 84 m 0
 691 15 630 -49 560 -49 c 0
 487 -49 426 15 426 84 c 0
 426 156 487 218 560 218 c 0
 630 218 691 156 691 84 c 0
238 346 m 0
 238 376 213 403 186 403 c 0
 154 403 129 376 129 346 c 0
 129 317 154 290 186 290 c 0
 213 290 238 317 238 346 c 0
613 84 m 0
 613 113 587 140 560 140 c 0
 527 140 504 113 504 84 c 0
 504 54 528 27 560 27 c 0
 587 27 613 54 613 84 c 0
EndSplineSet
Comment: "GDL_order: 0+AAoA-mark: 80+AAoA"
EndChar

StartChar: ampersand
Encoding: 9 38 9
Width: 696
VWidth: 0
GlyphClass: 2
Flags: HW
LayerCount: 2
Back
Fore
SplineSet
688 0 m 0
 543 0 l 0
 488 51 l 0
 443 13 375 -12 289 -12 c 0
 168 -12 49 48 49 177 c 0
 49 270 101 329 185 369 c 0
 136 412 107 463 107 520 c 0
 107 613 203 655 285 655 c 0
 370 655 459 617 459 531 c 0
 459 441 385 393 324 353 c 0
 365 301 415 250 475 193 c 0
 489 230 494 268 494 310 c 0
 494 322 494 335 493 348 c 0
 605 348 l 0
 601 266 585 190 551 121 c 0
 578 88 634 39 688 0 c 0
361 517 m 0
 361 545 327 574 292 574 c 0
 243 574 214 547 214 513 c 0
 214 485 234 451 272 409 c 0
 318 435 361 477 361 517 c 0
421 115 m 0
 346 181 284 246 236 305 c 0
 192 272 163 227 163 186 c 0
 163 122 224 72 292 72 c 0
 344 72 388 84 421 115 c 0
EndSplineSet
Comment: "mark: 1+AAoA"
EndChar

StartChar: quotesingle
Encoding: 10 39 10
Width: 353
VWidth: 0
GlyphClass: 2
Flags: HW
LayerCount: 2
Back
Fore
SplineSet
236 643 m 0
 214 385 l 0
 138 385 l 0
 116 643 l 0
 236 643 l 0
EndSplineSet
Comment: "mark: 1+AAoA"
EndChar

StartChar: parenleft
Encoding: 11 40 11
Width: 441
VWidth: 0
GlyphClass: 2
Flags: HW
LayerCount: 2
Back
Fore
SplineSet
396 -464 m 0
 289 -464 l 0
 133 -269 74 -45 74 220 c 0
 74 489 145 711 292 917 c 0
 396 917 l 0
 243 704 167 471 167 220 c 0
 167 -30 238 -268 396 -464 c 0
EndSplineSet
Comment: "GDL_order: 0+AAoA-mark: 80+AAoA"
EndChar

StartChar: parenright
Encoding: 12 41 12
Width: 442
VWidth: 0
GlyphClass: 2
Flags: HW
LayerCount: 2
Back
Fore
SplineSet
368 224 m 0
 368 -41 308 -266 152 -460 c 0
 45 -460 l 0
 206 -265 275 -24 275 224 c 0
 275 475 200 708 45 921 c 0
 150 921 l 0
 296 715 368 493 368 224 c 0
EndSplineSet
Comment: "GDL_order: 1+AAoA-mark: 80+AAoA"
EndChar

StartChar: asterisk
Encoding: 13 42 13
Width: 568
VWidth: 0
GlyphClass: 2
Flags: HW
LayerCount: 2
Back
Fore
SplineSet
512 383 m 0
 464 301 l 0
 332 380 l 0
 332 225 l 0
 239 225 l 0
 239 380 l 0
 106 301 l 0
 55 382 l 0
 192 461 l 0
 55 539 l 0
 106 619 l 0
 237 543 l 0
 237 696 l 0
 332 696 l 0
 332 544 l 0
 464 619 l 0
 512 538 l 0
 379 461 l 0
 512 383 l 0
EndSplineSet
Comment: "GDL_order: 0+AAoA-mark: 80+AAoA"
EndChar

StartChar: plus
Encoding: 14 43 14
Width: 578
VWidth: 0
GlyphClass: 2
Flags: HW
LayerCount: 2
Back
Fore
SplineSet
485 271 m 0
 485 178 l 0
 335 178 l 0
 335 28 l 0
 242 28 l 0
 242 178 l 0
 93 178 l 0
 93 271 l 0
 242 271 l 0
 242 422 l 0
 335 422 l 0
 335 271 l 0
 485 271 l 0
EndSplineSet
Comment: "GDL_order: 0+AAoA-mark: 80+AAoA"
EndChar

StartChar: comma
Encoding: 15 44 15
Width: 249
VWidth: 0
GlyphClass: 2
Flags: HW
LayerCount: 2
Back
Fore
SplineSet
208 62 m 0
 208 -30 151 -116 95 -148 c 0
 83 -133 l 0
 114 -109 141 -58 141 -5 c 0
 141 7 141 11 140 18 c 0
 128 9 87 -5 70 -5 c 0
 53 -5 40 26 40 62 c 0
 40 110 79 151 123 151 c 0
 174 151 208 109 208 62 c 0
EndSplineSet
Comment: "GDL_order: 0+AAoA-mark: 80+AAoA"
EndChar

StartChar: hyphen
Encoding: 16 45 16
Width: 503
VWidth: 0
GlyphClass: 2
Flags: HW
LayerCount: 2
Back
Fore
SplineSet
447 267 m 0
 447 174 l 0
 55 174 l 0
 55 267 l 0
 447 267 l 0
EndSplineSet
Comment: "GDL_order: 0+AAoA-mark: 80+AAoA"
EndChar

StartChar: period
Encoding: 17 46 17
Width: 243
VWidth: 0
GlyphClass: 2
Flags: HW
LayerCount: 2
Back
Fore
SplineSet
203 59 m 0
 203 15 164 -20 122 -20 c 0
 79 -20 40 15 40 59 c 0
 40 102 79 138 122 138 c 0
 164 138 203 102 203 59 c 0
EndSplineSet
Comment: "GDL_order: 0+AAoA-mark: 80+AAoA"
EndChar

StartChar: slash
Encoding: 18 47 18
Width: 537
VWidth: 0
GlyphClass: 2
Flags: HW
LayerCount: 2
Back
Fore
SplineSet
481 756 m 0
 127 -254 l 0
 55 -182 l 0
 409 825 l 0
 481 756 l 0
EndSplineSet
Comment: "GDL_order: 0+AAoA-mark: 80+AAoA"
EndChar

StartChar: zero
Encoding: 19 48 19
Width: 507
VWidth: 0
GlyphClass: 2
Flags: HW
LayerCount: 2
Back
Fore
SplineSet
471 326 m 0
 471 127 414 -13 254 -13 c 0
 93 -13 36 127 36 326 c 0
 36 525 93 655 254 655 c 0
 414 655 471 525 471 326 c 0
356 326 m 0
 356 449 349 571 254 571 c 0
 157 571 149 447 149 326 c 0
 149 204 157 71 254 71 c 0
 349 71 356 204 356 326 c 0
EndSplineSet
Comment: "mark: 1+AAoA"
EndChar

StartChar: one
Encoding: 20 49 20
Width: 507
VWidth: 0
GlyphClass: 2
Flags: HW
LayerCount: 2
Back
Fore
SplineSet
353 0 m 0
 246 0 l 0
 246 523 l 0
 202 485 151 458 97 443 c 0
 97 540 l 0
 159 563 210 599 249 643 c 0
 353 643 l 0
 353 0 l 0
EndSplineSet
Comment: "mark: 1+AAoA"
EndChar

StartChar: two
Encoding: 21 50 21
Width: 507
VWidth: 0
GlyphClass: 2
Flags: HW
LayerCount: 2
Back
Fore
SplineSet
469 0 m 0
 37 0 l 0
 37 104 l 0
 320 317 355 417 355 469 c 0
 355 525 324 565 269 565 c 0
 212 565 175 527 172 467 c 0
 56 467 l 0
 59 583 150 655 267 655 c 0
 388 655 469 579 469 476 c 0
 469 383 426 281 162 91 c 0
 469 91 l 0
 469 0 l 0
EndSplineSet
Comment: "mark: 1+AAoA"
EndChar

StartChar: three
Encoding: 22 51 22
Width: 507
VWidth: 0
GlyphClass: 2
Flags: HW
LayerCount: 2
Back
Fore
SplineSet
465 178 m 0
 465 66 363 -13 253 -13 c 0
 109 -13 41 62 41 177 c 0
 157 177 l 0
 159 121 189 75 248 75 c 0
 306 75 351 117 351 182 c 0
 351 276 300 291 201 291 c 0
 201 379 l 0
 287 380 338 400 338 475 c 0
 338 538 296 567 250 567 c 0
 197 567 163 534 159 474 c 0
 46 474 l 0
 51 588 129 655 252 655 c 0
 372 655 451 580 451 476 c 0
 451 395 403 360 349 336 c 0
 412 314 465 276 465 178 c 0
EndSplineSet
Comment: "mark: 1+AAoA"
EndChar

StartChar: four
Encoding: 23 52 23
Width: 507
VWidth: 0
GlyphClass: 2
Flags: HW
LayerCount: 2
Back
Fore
SplineSet
485 146 m 0
 404 146 l 0
 404 0 l 0
 297 0 l 0
 297 146 l 0
 21 146 l 0
 21 254 l 0
 269 643 l 0
 404 643 l 0
 404 239 l 0
 485 239 l 0
 485 146 l 0
297 239 m 0
 297 531 l 0
 118 239 l 0
 297 239 l 0
EndSplineSet
Comment: "mark: 1+AAoA"
EndChar

StartChar: five
Encoding: 24 53 24
Width: 507
VWidth: 0
GlyphClass: 2
Flags: HW
LayerCount: 2
Back
Fore
SplineSet
468 221 m 0
 468 93 372 -12 247 -12 c 0
 125 -12 43 49 38 161 c 0
 150 161 l 0
 150 104 184 76 243 76 c 0
 313 76 354 138 354 215 c 0
 354 295 325 339 257 339 c 0
 203 339 175 312 150 262 c 0
 48 262 l 0
 64 643 l 0
 430 643 l 0
 430 550 l 0
 171 550 l 0
 161 371 l 0
 189 405 228 422 291 422 c 0
 402 422 468 325 468 221 c 0
EndSplineSet
Comment: "mark: 1+AAoA"
EndChar

StartChar: six
Encoding: 25 54 25
Width: 507
VWidth: 0
GlyphClass: 2
Flags: HW
LayerCount: 2
Back
Fore
SplineSet
473 209 m 0
 473 110 417 -13 255 -13 c 0
 74 -13 34 126 34 297 c 0
 34 462 74 655 266 655 c 0
 375 655 448 591 459 485 c 0
 347 485 l 0
 345 537 313 567 268 567 c 0
 164 567 146 398 146 328 c 0
 177 373 212 407 293 407 c 0
 423 407 473 298 473 209 c 0
356 200 m 0
 356 282 326 324 260 324 c 0
 194 324 163 282 163 200 c 0
 163 118 194 75 260 75 c 0
 326 75 356 118 356 200 c 0
EndSplineSet
Comment: "mark: 1+AAoA"
EndChar

StartChar: seven
Encoding: 26 55 26
Width: 507
VWidth: 0
GlyphClass: 2
Flags: HW
LayerCount: 2
Back
Fore
SplineSet
463 530 m 0
 248 0 l 0
 116 0 l 0
 356 551 l 0
 44 551 l 0
 44 643 l 0
 463 643 l 0
 463 530 l 0
EndSplineSet
Comment: "mark: 1+AAoA"
EndChar

StartChar: eight
Encoding: 27 56 27
Width: 507
VWidth: 0
GlyphClass: 2
Flags: HW
LayerCount: 2
Back
Fore
SplineSet
473 166 m 0
 473 34 359 -12 254 -12 c 0
 143 -12 34 36 34 166 c 0
 34 268 95 320 155 343 c 0
 100 365 47 408 47 493 c 0
 47 613 155 655 254 655 c 0
 353 655 460 617 460 490 c 0
 460 409 401 364 345 343 c 0
 404 324 473 270 473 166 c 0
344 477 m 0
 344 533 308 567 254 567 c 0
 199 567 163 533 163 477 c 0
 163 420 202 386 254 386 c 0
 305 386 344 420 344 477 c 0
358 187 m 0
 358 249 321 297 254 297 c 0
 188 297 150 247 150 187 c 0
 150 125 186 76 254 76 c 0
 324 76 358 127 358 187 c 0
EndSplineSet
Comment: "mark: 1+AAoA"
EndChar

StartChar: nine
Encoding: 28 57 28
Width: 507
VWidth: 0
GlyphClass: 2
Flags: HW
LayerCount: 2
Back
Fore
SplineSet
473 345 m 0
 473 181 428 -13 240 -13 c 0
 137 -13 52 55 47 158 c 0
 159 158 l 0
 161 103 193 75 239 75 c 0
 341 75 361 240 361 314 c 0
 332 265 279 236 213 236 c 0
 75 236 34 354 34 434 c 0
 34 537 93 655 251 655 c 0
 439 655 473 509 473 345 c 0
343 443 m 0
 343 524 313 567 246 567 c 0
 179 567 150 524 150 443 c 0
 150 361 179 318 246 318 c 0
 313 318 343 361 343 443 c 0
EndSplineSet
Comment: "mark: 1+AAoA"
EndChar

StartChar: colon
Encoding: 29 58 29
Width: 243
VWidth: 0
GlyphClass: 2
Flags: HW
LayerCount: 2
Back
Fore
SplineSet
203 384 m 0
 203 341 164 305 122 305 c 0
 79 305 40 341 40 384 c 0
 40 428 79 464 122 464 c 0
 164 464 203 428 203 384 c 0
203 59 m 0
 203 16 164 -20 122 -20 c 0
 79 -20 40 16 40 59 c 0
 40 103 79 138 122 138 c 0
 164 138 203 103 203 59 c 0
EndSplineSet
Comment: "GDL_order: 0+AAoA-mark: 80+AAoA"
EndChar

StartChar: semicolon
Encoding: 30 59 30
Width: 246
VWidth: 0
GlyphClass: 2
Flags: HW
LayerCount: 2
Back
Fore
SplineSet
203 385 m 0
 203 341 164 305 122 305 c 0
 79 305 40 341 40 385 c 0
 40 428 79 464 122 464 c 0
 164 464 203 428 203 385 c 0
198 56 m 0
 198 -25 146 -98 96 -131 c 0
 79 -117 l 0
 107 -95 136 -50 136 1 c 0
 136 5 136 11 135 15 c 0
 115 6 79 -6 68 -6 c 0
 59 -6 40 14 40 58 c 0
 40 101 76 140 117 140 c 0
 166 140 198 98 198 56 c 0
EndSplineSet
Comment: "GDL_order: 0+AAoA-mark: 80+AAoA"
EndChar

StartChar: less
Encoding: 31 60 31
Width: 891
VWidth: 0
GlyphClass: 2
Flags: HW
LayerCount: 2
Back
Fore
SplineSet
712 110 m 0
 712 34 l 0
 178 238 l 0
 178 295 l 0
 712 499 l 0
 712 424 l 0
 291 267 l 0
 712 110 l 0
EndSplineSet
Comment: "mark: 1+AAoA"
EndChar

StartChar: equal
Encoding: 32 61 32
Width: 586
VWidth: 0
GlyphClass: 2
Flags: HW
LayerCount: 2
Back
Fore
SplineSet
550 171 m 0
 550 78 l 0
 35 78 l 0
 35 171 l 0
 550 171 l 0
550 368 m 0
 550 275 l 0
 35 275 l 0
 35 368 l 0
 550 368 l 0
EndSplineSet
Comment: "GDL_order: 0+AAoA-mark: 80+AAoA"
EndChar

StartChar: greater
Encoding: 33 62 33
Width: 891
VWidth: 0
GlyphClass: 2
Flags: HW
LayerCount: 2
Back
Fore
SplineSet
712 295 m 0
 712 238 l 0
 178 34 l 0
 178 110 l 0
 599 267 l 0
 178 424 l 0
 178 499 l 0
 712 295 l 0
EndSplineSet
Comment: "mark: 1+AAoA"
EndChar

StartChar: question
Encoding: 34 63 34
Width: 447
VWidth: 0
GlyphClass: 2
Flags: HW
LayerCount: 2
Back
Fore
SplineSet
269 57 m 0
 269 21 239 -7 205 -7 c 0
 170 -7 143 24 143 57 c 0
 143 91 170 118 205 118 c 0
 239 118 269 91 269 57 c 0
392 584 m 0
 392 430 252 448 252 346 c 0
 252 200 l 0
 159 200 l 0
 159 362 l 0
 159 484 300 479 300 584 c 0
 300 631 253 678 206 678 c 0
 151 678 113 626 113 578 c 0
 113 555 l 0
 20 555 l 0
 20 578 l 0
 20 656 84 773 206 773 c 0
 320 773 392 678 392 584 c 0
EndSplineSet
Comment: "GDL_order: 0+AAoA-mark: 80+AAoA"
EndChar

StartChar: at
Encoding: 35 64 35
Width: 915
VWidth: 0
GlyphClass: 2
Flags: HW
LayerCount: 2
Back
Fore
SplineSet
873 270 m 0
 873 148 809 8 685 8 c 0
 626 8 585 34 560 84 c 0
 526 37 485 12 429 12 c 0
 321 12 247 115 247 226 c 0
 247 345 313 446 424 446 c 0
 472 446 509 429 544 387 c 0
 544 435 l 0
 652 435 l 0
 652 139 l 0
 652 107 675 96 694 96 c 0
 728 96 763 150 763 247 c 0
 763 444 649 555 466 555 c 0
 292 555 152 423 152 228 c 0
 152 49 287 -82 455 -82 c 0
 544 -82 602 -76 654 -58 c 0
 654 -161 l 0
 577 -175 528 -179 485 -179 c 0
 247 -179 41 -43 41 237 c 0
 41 488 244 649 468 649 c 0
 701 649 873 502 873 270 c 0
543 236 m 0
 543 315 513 363 451 363 c 0
 385 363 359 288 359 230 c 0
 359 168 381 95 449 95 c 0
 518 95 543 174 543 236 c 0
EndSplineSet
Comment: "mark: 1+AAoA"
EndChar

StartChar: A
Encoding: 36 65 36
Width: 644
VWidth: 0
GlyphClass: 2
Flags: HW
LayerCount: 2
Back
Fore
SplineSet
634 0 m 0
 515 0 l 0
 457 149 l 0
 183 149 l 0
 127 0 l 0
 10 0 l 0
 261 643 l 0
 382 643 l 0
 634 0 l 0
420 241 m 0
 321 514 l 0
 220 241 l 0
 420 241 l 0
EndSplineSet
Comment: "mark: 1+AAoA"
EndChar

StartChar: B
Encoding: 37 66 37
Width: 600
VWidth: 0
GlyphClass: 2
Flags: HW
LayerCount: 2
Back
Fore
SplineSet
550 170 m 0
 550 64 435 0 341 0 c 0
 66 0 l 0
 66 643 l 0
 328 643 l 0
 430 643 521 592 521 485 c 0
 521 405 463 361 399 336 c 0
 485 311 550 265 550 170 c 0
405 464 m 0
 405 518 360 549 294 549 c 0
 183 549 l 0
 183 379 l 0
 287 379 l 0
 358 379 405 412 405 464 c 0
430 191 m 0
 430 260 367 288 292 288 c 0
 183 288 l 0
 183 94 l 0
 293 94 l 0
 370 94 430 125 430 191 c 0
EndSplineSet
Comment: "mark: 1+AAoA"
EndChar

StartChar: C
Encoding: 38 67 38
Width: 634
VWidth: 0
GlyphClass: 2
Flags: HW
LayerCount: 2
Back
Fore
SplineSet
584 201 m 0
 574 73 460 -13 326 -13 c 0
 126 -13 49 147 49 320 c 0
 49 499 134 655 326 655 c 0
 488 655 569 579 578 450 c 0
 462 450 l 0
 454 525 414 564 326 564 c 0
 215 564 170 474 170 320 c 0
 170 160 216 78 325 78 c 0
 406 78 449 128 458 201 c 0
 584 201 l 0
EndSplineSet
Comment: "mark: 1+AAoA"
EndChar

StartChar: D
Encoding: 39 68 39
Width: 646
VWidth: 0
GlyphClass: 2
Flags: HW
LayerCount: 2
Back
Fore
SplineSet
596 322 m 0
 596 128 473 0 262 0 c 0
 66 0 l 0
 66 643 l 0
 262 643 l 0
 480 643 596 511 596 322 c 0
478 322 m 0
 478 472 403 549 263 549 c 0
 183 549 l 0
 183 94 l 0
 263 94 l 0
 403 94 478 172 478 322 c 0
EndSplineSet
Comment: "mark: 1+AAoA"
EndChar

StartChar: E
Encoding: 40 69 40
Width: 552
VWidth: 0
GlyphClass: 2
Flags: HW
LayerCount: 2
Back
Fore
SplineSet
490 0 m 0
 66 0 l 0
 66 643 l 0
 481 643 l 0
 481 549 l 0
 180 549 l 0
 180 377 l 0
 466 377 l 0
 466 287 l 0
 180 287 l 0
 180 94 l 0
 490 94 l 0
 490 0 l 0
EndSplineSet
Comment: "mark: 1+AAoA"
EndChar

StartChar: F
Encoding: 41 70 41
Width: 516
VWidth: 0
GlyphClass: 2
Flags: HW
LayerCount: 2
Back
Fore
SplineSet
444 284 m 0
 183 284 l 0
 183 0 l 0
 66 0 l 0
 66 643 l 0
 462 643 l 0
 462 549 l 0
 183 549 l 0
 183 377 l 0
 444 377 l 0
 444 284 l 0
EndSplineSet
Comment: "mark: 1+AAoA"
EndChar

StartChar: G
Encoding: 42 71 42
Width: 687
VWidth: 0
GlyphClass: 2
Flags: HW
LayerCount: 2
Back
Fore
SplineSet
621 29 m 0
 529 2 444 -13 389 -13 c 0
 159 -13 49 135 49 325 c 0
 49 513 182 655 371 655 c 0
 537 655 627 571 627 455 c 0
 508 455 l 0
 506 520 447 561 371 561 c 0
 224 561 170 444 170 323 c 0
 170 186 242 82 383 82 c 0
 413 82 454 87 501 98 c 0
 501 245 l 0
 375 245 l 0
 375 342 l 0
 621 342 l 0
 621 29 l 0
EndSplineSet
Comment: "mark: 1+AAoA"
EndChar

StartChar: H
Encoding: 43 72 43
Width: 635
VWidth: 0
GlyphClass: 2
Flags: HW
LayerCount: 2
Back
Fore
SplineSet
570 0 m 0
 453 0 l 0
 453 287 l 0
 181 287 l 0
 181 0 l 0
 66 0 l 0
 66 643 l 0
 181 643 l 0
 181 380 l 0
 453 380 l 0
 453 643 l 0
 570 643 l 0
 570 0 l 0
EndSplineSet
Comment: "mark: 1+AAoA"
EndChar

StartChar: I
Encoding: 44 73 44
Width: 249
VWidth: 0
GlyphClass: 2
Flags: HW
LayerCount: 2
Back
Fore
SplineSet
183 0 m 0
 66 0 l 0
 66 643 l 0
 183 643 l 0
 183 0 l 0
EndSplineSet
Comment: "mark: 1+AAoA"
EndChar

StartChar: J
Encoding: 45 74 45
Width: 541
VWidth: 0
GlyphClass: 2
Flags: HW
LayerCount: 2
Back
Fore
SplineSet
476 191 m 0
 476 65 373 -13 258 -13 c 0
 113 -13 49 63 49 192 c 0
 169 192 l 0
 169 114 203 82 257 82 c 0
 323 82 357 117 357 196 c 0
 357 644 l 0
 476 644 l 0
 476 191 l 0
EndSplineSet
Comment: "mark: 1+AAoA"
EndChar

StartChar: K
Encoding: 46 75 46
Width: 610
VWidth: 0
GlyphClass: 2
Flags: HW
LayerCount: 2
Back
Fore
SplineSet
582 0 m 0
 435 0 l 0
 183 328 l 0
 183 0 l 0
 66 0 l 0
 66 643 l 0
 183 643 l 0
 183 368 l 0
 415 643 l 0
 553 643 l 0
 311 359 l 0
 582 0 l 0
EndSplineSet
Comment: "mark: 1+AAoA"
EndChar

StartChar: L
Encoding: 47 76 47
Width: 496
VWidth: 0
GlyphClass: 2
Flags: HW
LayerCount: 2
Back
Fore
SplineSet
472 0 m 0
 66 0 l 0
 66 643 l 0
 183 643 l 0
 183 94 l 0
 472 94 l 0
 472 0 l 0
EndSplineSet
Comment: "mark: 1+AAoA"
EndChar

StartChar: M
Encoding: 48 77 48
Width: 818
VWidth: 0
GlyphClass: 2
Flags: HW
LayerCount: 2
Back
Fore
SplineSet
753 0 m 0
 640 0 l 0
 640 542 l 0
 463 0 l 0
 354 0 l 0
 178 540 l 0
 178 0 l 0
 66 0 l 0
 66 643 l 0
 255 643 l 0
 409 160 l 0
 563 645 l 0
 753 645 l 0
 753 0 l 0
EndSplineSet
Comment: "mark: 1+AAoA"
EndChar

StartChar: N
Encoding: 49 78 49
Width: 670
VWidth: 0
GlyphClass: 2
Flags: HW
LayerCount: 2
Back
Fore
SplineSet
606 0 m 0
 438 0 l 0
 178 518 l 0
 178 0 l 0
 66 0 l 0
 66 643 l 0
 232 643 l 0
 492 124 l 0
 492 643 l 0
 606 643 l 0
 606 0 l 0
EndSplineSet
Comment: "mark: 1+AAoA"
EndChar

StartChar: O
Encoding: 50 79 50
Width: 701
VWidth: 0
GlyphClass: 2
Flags: HW
LayerCount: 2
Back
Fore
SplineSet
651 326 m 0
 651 135 547 -13 351 -13 c 0
 148 -13 49 142 49 326 c 0
 49 516 155 655 351 655 c 0
 553 655 651 508 651 326 c 0
530 326 m 0
 530 474 478 561 351 561 c 0
 224 561 171 474 171 326 c 0
 171 178 224 82 351 82 c 0
 478 82 530 178 530 326 c 0
EndSplineSet
Comment: "mark: 1+AAoA"
EndChar

StartChar: P
Encoding: 51 80 51
Width: 575
VWidth: 0
GlyphClass: 2
Flags: HW
LayerCount: 2
Back
Fore
SplineSet
524 447 m 0
 524 298 401 254 278 254 c 0
 183 254 l 0
 183 0 l 0
 66 0 l 0
 66 643 l 0
 278 643 l 0
 407 643 524 593 524 447 c 0
406 447 m 0
 406 523 352 549 257 549 c 0
 183 549 l 0
 183 348 l 0
 257 348 l 0
 348 348 406 371 406 447 c 0
EndSplineSet
Comment: "mark: 1+AAoA"
EndChar

StartChar: Q
Encoding: 52 81 52
Width: 729
VWidth: 0
GlyphClass: 2
Flags: HW
LayerCount: 2
Back
Fore
SplineSet
699 0 m 0
 464 0 l 0
 407 -8 371 -13 351 -13 c 0
 148 -13 49 142 49 326 c 0
 49 516 155 655 351 655 c 0
 553 655 651 508 651 326 c 0
 651 231 623 148 569 90 c 0
 699 90 l 0
 699 0 l 0
530 326 m 0
 530 474 478 561 351 561 c 0
 224 561 171 474 171 326 c 0
 171 178 224 82 351 82 c 0
 478 82 530 178 530 326 c 0
EndSplineSet
Comment: "mark: 1+AAoA"
EndChar

StartChar: R
Encoding: 53 82 53
Width: 592
VWidth: 0
GlyphClass: 2
Flags: HW
LayerCount: 2
Back
Fore
SplineSet
557 0 m 0
 436 0 l 0
 418 65 418 101 409 154 c 0
 393 242 369 272 288 272 c 0
 183 272 l 0
 183 0 l 0
 66 0 l 0
 66 643 l 0
 299 643 l 0
 460 643 542 590 542 469 c 0
 542 393 474 349 411 322 c 0
 452 313 487 298 503 258 c 0
 526 201 528 64 557 0 c 0
423 455 m 0
 423 521 362 549 299 549 c 0
 183 549 l 0
 183 366 l 0
 293 366 l 0
 355 366 423 395 423 455 c 0
EndSplineSet
Comment: "mark: 1+AAoA"
EndChar

StartChar: S
Encoding: 54 83 54
Width: 601
VWidth: 0
GlyphClass: 2
Flags: HW
LayerCount: 2
Back
Fore
SplineSet
551 184 m 0
 551 45 409 -13 292 -13 c 0
 161 -13 49 61 49 199 c 0
 170 199 l 0
 172 121 220 82 294 82 c 0
 354 82 436 102 436 174 c 0
 436 331 65 227 65 464 c 0
 65 587 193 655 299 655 c 0
 421 655 531 600 531 469 c 0
 411 469 l 0
 411 537 357 564 298 564 c 0
 241 564 180 535 180 473 c 0
 180 332 551 419 551 184 c 0
EndSplineSet
Comment: "mark: 1+AAoA"
EndChar

StartChar: T
Encoding: 55 84 55
Width: 560
VWidth: 0
GlyphClass: 2
Flags: HW
LayerCount: 2
Back
Fore
SplineSet
536 549 m 0
 339 549 l 0
 339 0 l 0
 220 0 l 0
 220 549 l 0
 24 549 l 0
 24 643 l 0
 536 643 l 0
 536 549 l 0
EndSplineSet
Comment: "mark: 1+AAoA"
EndChar

StartChar: U
Encoding: 56 85 56
Width: 667
VWidth: 0
GlyphClass: 2
Flags: HW
LayerCount: 2
Back
Fore
SplineSet
603 272 m 0
 603 85 498 -13 329 -13 c 0
 153 -13 66 93 66 272 c 0
 66 643 l 0
 183 643 l 0
 183 272 l 0
 183 130 240 82 332 82 c 0
 425 82 484 129 484 272 c 0
 484 643 l 0
 603 643 l 0
 603 272 l 0
EndSplineSet
Comment: "mark: 1+AAoA"
EndChar

StartChar: V
Encoding: 57 86 57
Width: 632
VWidth: 0
GlyphClass: 2
Flags: HW
LayerCount: 2
Back
Fore
SplineSet
622 643 m 0
 382 0 l 0
 244 0 l 0
 10 643 l 0
 139 643 l 0
 316 137 l 0
 494 643 l 0
 622 643 l 0
EndSplineSet
Comment: "mark: 1+AAoA"
EndChar

StartChar: W
Encoding: 58 87 58
Width: 882
VWidth: 0
GlyphClass: 2
Flags: HW
LayerCount: 2
Back
Fore
SplineSet
872 643 m 0
 701 0 l 0
 573 0 l 0
 441 499 l 0
 308 0 l 0
 181 0 l 0
 10 643 l 0
 137 643 l 0
 247 151 l 0
 376 643 l 0
 506 643 l 0
 634 151 l 0
 745 643 l 0
 872 643 l 0
EndSplineSet
Comment: "mark: 1+AAoA"
EndChar

StartChar: X
Encoding: 59 88 59
Width: 621
VWidth: 0
GlyphClass: 2
Flags: HW
LayerCount: 2
Back
Fore
SplineSet
606 0 m 0
 467 0 l 0
 300 256 l 0
 137 0 l 0
 13 0 l 0
 241 337 l 0
 36 643 l 0
 174 643 l 0
 317 419 l 0
 458 643 l 0
 585 643 l 0
 376 337 l 0
 606 0 l 0
EndSplineSet
Comment: "mark: 1+AAoA"
EndChar

StartChar: Y
Encoding: 60 89 60
Width: 587
VWidth: 0
GlyphClass: 2
Flags: HW
LayerCount: 2
Back
Fore
SplineSet
575 643 m 0
 352 247 l 0
 352 0 l 0
 234 0 l 0
 234 247 l 0
 10 643 l 0
 145 643 l 0
 294 360 l 0
 443 643 l 0
 575 643 l 0
EndSplineSet
Comment: "mark: 1+AAoA"
EndChar

StartChar: Z
Encoding: 61 90 61
Width: 559
VWidth: 0
GlyphClass: 2
Flags: HW
LayerCount: 2
Back
Fore
SplineSet
518 0 m 0
 40 0 l 0
 40 106 l 0
 376 549 l 0
 59 549 l 0
 59 643 l 0
 511 643 l 0
 511 535 l 0
 175 94 l 0
 518 94 l 0
 518 0 l 0
EndSplineSet
Comment: "mark: 1+AAoA"
EndChar

StartChar: bracketleft
Encoding: 62 91 62
Width: 349
VWidth: 0
GlyphClass: 2
Flags: HW
LayerCount: 2
Back
Fore
SplineSet
269 -177 m 0
 80 -177 l 0
 80 643 l 0
 269 643 l 0
 269 574 l 0
 178 574 l 0
 178 -108 l 0
 269 -108 l 0
 269 -177 l 0
EndSplineSet
Comment: "mark: 1+AAoA"
EndChar

StartChar: backslash
Encoding: 63 92 63
Width: 537
VWidth: 0
GlyphClass: 2
Flags: HW
LayerCount: 2
Back
Fore
SplineSet
481 -182 m 0
 410 -254 l 0
 55 756 l 0
 128 825 l 0
 481 -182 l 0
EndSplineSet
Comment: "GDL_order: 0+AAoA-mark: 80+AAoA"
EndChar

StartChar: bracketright
Encoding: 64 93 64
Width: 349
VWidth: 0
GlyphClass: 2
Flags: HW
LayerCount: 2
Back
Fore
SplineSet
269 -177 m 0
 80 -177 l 0
 80 -108 l 0
 173 -108 l 0
 173 574 l 0
 80 574 l 0
 80 643 l 0
 269 643 l 0
 269 -177 l 0
EndSplineSet
Comment: "mark: 1+AAoA"
EndChar

StartChar: asciicircum
Encoding: 65 94 65
Width: 536
VWidth: 0
GlyphClass: 4
Flags: HW
AnchorPoint: "U" 270 475 mark 0
AnchorPoint: "UM" 226 495 basemark 0
LayerCount: 2
Back
Fore
SplineSet
499 619 m 0
 449 569 l 0
 268 749 l 0
 87 569 l 0
 37 619 l 0
 268 851 l 0
 499 619 l 0
EndSplineSet
Comment: "GDL_order: 0+AAoA-mark: 80+AAoA"
EndChar

StartChar: underscore
Encoding: 66 95 66
Width: 577
VWidth: 0
GlyphClass: 4
Flags: HW
LayerCount: 2
Back
Fore
SplineSet
577 -179 m 0
 0 -179 l 0
 0 -86 l 0
 577 -86 l 0
 577 -179 l 0
EndSplineSet
Comment: "GDL_order: 0+AAoA-mark: 80+AAoA"
EndChar

StartChar: grave
Encoding: 67 96 67
Width: 218
VWidth: 0
GlyphClass: 4
Flags: HW
LayerCount: 2
Back
Fore
SplineSet
169 534 m 0
 109 534 l 0
 -23 692 l 0
 85 692 l 0
 169 534 l 0
EndSplineSet
Comment: "mark: 1+AAoA"
EndChar

StartChar: a
Encoding: 68 97 68
Width: 491
VWidth: 0
GlyphClass: 4
Flags: HW
LayerCount: 2
Back
Fore
SplineSet
446 0 m 0
 347 0 l 0
 343 15 337 40 335 56 c 0
 285 6 255 -12 200 -12 c 0
 117 -12 41 37 41 122 c 0
 41 251 161 287 263 287 c 0
 327 287 l 0
 327 292 327 298 327 303 c 0
 327 356 312 390 247 390 c 0
 196 390 173 369 168 323 c 0
 61 323 l 0
 61 411 139 457 248 457 c 0
 313 457 401 440 423 372 c 0
 431 350 433 309 433 263 c 0
 433 148 l 0
 433 92 437 32 446 0 c 0
327 221 m 0
 316 222 299 223 284 223 c 0
 214 223 150 197 150 130 c 0
 150 91 183 61 225 61 c 0
 314 61 327 136 327 221 c 0
EndSplineSet
Comment: "mark: 1+AAoA"
EndChar

StartChar: b
Encoding: 69 98 69
Width: 539
VWidth: 0
GlyphClass: 4
Flags: HW
LayerCount: 2
Back
Fore
SplineSet
498 224 m 0
 498 79 411 -12 298 -12 c 0
 238 -12 192 14 166 51 c 0
 166 0 l 0
 59 0 l 0
 59 643 l 0
 165 643 l 0
 165 398 l 0
 191 429 232 457 303 457 c 0
 457 457 498 319 498 224 c 0
389 221 m 0
 389 295 362 390 274 390 c 0
 200 390 165 325 165 224 c 0
 165 144 196 61 276 61 c 0
 352 61 389 137 389 221 c 0
EndSplineSet
Comment: "mark: 1+AAoA"
EndChar

StartChar: c
Encoding: 70 99 70
Width: 461
VWidth: 0
GlyphClass: 4
Flags: HW
LayerCount: 2
Back
Fore
SplineSet
421 159 m 0
 421 54 365 -12 238 -12 c 0
 107 -12 42 65 42 219 c 0
 42 375 108 457 235 457 c 0
 359 457 419 400 419 302 c 0
 419 300 419 297 419 295 c 0
 314 295 l 0
 315 359 280 387 237 387 c 0
 176 387 144 348 144 221 c 0
 144 101 169 58 235 58 c 0
 299 58 313 111 314 159 c 0
 421 159 l 0
EndSplineSet
Comment: "mark: 1+AAoA"
EndChar

StartChar: d
Encoding: 71 100 71
Width: 539
VWidth: 0
GlyphClass: 4
Flags: HW
LayerCount: 2
Back
Fore
SplineSet
479 0 m 0
 373 0 l 0
 373 58 l 0
 338 15 296 -12 248 -12 c 0
 122 -12 42 91 42 215 c 0
 42 353 108 457 234 457 c 0
 294 457 337 441 373 399 c 0
 373 643 l 0
 479 643 l 0
 479 0 l 0
373 220 m 0
 373 324 332 389 261 389 c 0
 175 389 148 290 148 219 c 0
 148 143 185 62 262 62 c 0
 342 62 373 155 373 220 c 0
EndSplineSet
Comment: "mark: 1+AAoA"
EndChar

StartChar: e
Encoding: 72 101 72
Width: 493
VWidth: 0
GlyphClass: 4
Flags: HW
LayerCount: 2
Back
Fore
SplineSet
445 139 m 0
 434 48 372 -12 246 -12 c 0
 95 -12 42 101 42 221 c 0
 42 350 106 457 253 457 c 0
 408 457 452 339 452 239 c 0
 452 226 451 214 450 202 c 0
 152 202 l 0
 153 116 172 57 249 57 c 0
 305 57 330 93 336 139 c 0
 445 139 l 0
339 272 m 0
 339 274 339 277 339 279 c 0
 339 345 313 388 247 388 c 0
 181 388 155 337 152 272 c 0
 339 272 l 0
EndSplineSet
Comment: "mark: 1+AAoA"
EndChar

StartChar: f
Encoding: 73 102 73
Width: 309
VWidth: 0
GlyphClass: 4
Flags: HW
LayerCount: 2
Back
Fore
SplineSet
309 567 m 0
 293 575 277 580 259 580 c 0
 213 580 199 558 199 510 c 0
 199 445 l 0
 297 445 l 0
 297 375 l 0
 199 375 l 0
 199 0 l 0
 91 0 l 0
 91 375 l 0
 9 375 l 0
 9 445 l 0
 91 445 l 0
 91 513 l 0
 91 619 137 654 227 654 c 0
 253 654 280 650 309 640 c 0
 309 567 l 0
EndSplineSet
Comment: "mark: 1+AAoA"
EndChar

StartChar: g
Encoding: 74 103 74
Width: 539
VWidth: 0
GlyphClass: 4
Flags: HW
LayerCount: 2
Back
Fore
SplineSet
479 11 m 0
 479 -105 401 -177 260 -177 c 0
 103 -177 65 -100 65 -43 c 0
 173 -43 l 0
 173 -84 212 -108 266 -108 c 0
 348 -108 372 -65 372 77 c 0
 338 30 291 5 244 5 c 0
 115 5 42 89 42 223 c 0
 42 366 118 457 235 457 c 0
 299 457 339 439 372 402 c 0
 372 445 l 0
 479 445 l 0
 479 11 l 0
373 225 m 0
 373 329 338 388 262 388 c 0
 174 388 148 297 148 223 c 0
 148 143 183 78 261 78 c 0
 342 78 373 156 373 225 c 0
EndSplineSet
Comment: "mark: 1+AAoA"
EndChar

StartChar: h
Encoding: 75 104 75
Width: 524
VWidth: 0
GlyphClass: 4
Flags: HW
LayerCount: 2
Back
Fore
SplineSet
465 0 m 0
 357 0 l 0
 357 271 l 0
 357 352 325 390 273 390 c 0
 204 390 166 320 166 273 c 0
 166 0 l 0
 59 0 l 0
 59 643 l 0
 166 643 l 0
 166 395 l 0
 197 436 241 457 310 457 c 0
 417 457 465 394 465 294 c 0
 465 0 l 0
EndSplineSet
Comment: "mark: 1+AAoA"
EndChar

StartChar: i
Encoding: 76 105 76
Width: 225
VWidth: 0
GlyphClass: 4
Flags: HW
LayerCount: 2
Back
Fore
SplineSet
173 538 m 0
 51 538 l 0
 51 643 l 0
 173 643 l 0
 173 538 l 0
166 0 m 0
 59 0 l 0
 59 445 l 0
 166 445 l 0
 166 0 l 0
EndSplineSet
Comment: "mark: 1+AAoA"
EndChar

StartChar: j
Encoding: 77 106 77
Width: 294
VWidth: 0
GlyphClass: 4
Flags: HW
LayerCount: 2
Back
Fore
SplineSet
241 616 m 0
 214 538 l 0
 121 565 l 0
 149 643 l 0
 241 616 l 0
235 -72 m 0
 235 -138 188 -188 105 -188 c 0
 64 -188 12 -173 -21 -143 c 0
 32 -76 l 0
 47 -91 65 -99 83 -99 c 0
 111 -99 127 -79 127 -45 c 0
 127 445 l 0
 235 445 l 0
 235 -72 l 0
EndSplineSet
Comment: "mark: 1+AAoA"
EndChar

StartChar: k
Encoding: 78 107 78
Width: 475
VWidth: 0
GlyphClass: 4
Flags: HW
LayerCount: 2
Back
Fore
SplineSet
460 0 m 0
 326 0 l 0
 166 234 l 0
 166 0 l 0
 59 0 l 0
 59 643 l 0
 166 643 l 0
 166 265 l 0
 316 445 l 0
 446 445 l 0
 279 253 l 0
 460 0 l 0
EndSplineSet
Comment: "mark: 1+AAoA"
EndChar

StartChar: l
Encoding: 79 108 79
Width: 225
VWidth: 0
GlyphClass: 4
Flags: HW
LayerCount: 2
Back
Fore
SplineSet
166 0 m 0
 59 0 l 0
 59 643 l 0
 166 643 l 0
 166 0 l 0
EndSplineSet
Comment: "mark: 1+AAoA"
EndChar

StartChar: m
Encoding: 80 109 80
Width: 808
VWidth: 0
GlyphClass: 4
Flags: HW
LayerCount: 2
Back
Fore
SplineSet
748 0 m 0
 641 0 l 0
 641 286 l 0
 641 344 609 388 557 388 c 0
 501 388 458 327 458 272 c 0
 458 0 l 0
 351 0 l 0
 351 286 l 0
 351 340 319 388 268 388 c 0
 205 388 166 320 166 268 c 0
 166 0 l 0
 59 0 l 0
 59 445 l 0
 166 445 l 0
 166 383 l 0
 201 434 242 457 303 457 c 0
 376 457 413 436 445 376 c 0
 488 438 527 457 592 457 c 0
 708 457 748 378 748 291 c 0
 748 0 l 0
EndSplineSet
Comment: "mark: 1+AAoA"
EndChar

StartChar: n
Encoding: 81 110 81
Width: 524
VWidth: 0
GlyphClass: 4
Flags: HW
LayerCount: 2
Back
Fore
SplineSet
457 0 m 0
 350 0 l 0
 350 276 l 0
 350 349 315 391 260 391 c 0
 200 391 158 339 158 259 c 0
 158 0 l 0
 51 0 l 0
 51 445 l 0
 158 445 l 0
 158 389 l 0
 191 438 230 457 300 457 c 0
 406 457 457 395 457 299 c 0
 457 0 l 0
EndSplineSet
Comment: "mark: 1+AAoA"
EndChar

StartChar: o
Encoding: 82 111 82
Width: 535
VWidth: 0
GlyphClass: 4
Flags: HW
LayerCount: 2
Back
Fore
SplineSet
494 222 m 0
 494 77 397 -12 268 -12 c 0
 135 -12 42 82 42 222 c 0
 42 367 138 457 268 457 c 0
 401 457 494 363 494 222 c 0
385 222 m 0
 385 321 347 387 268 387 c 0
 189 387 149 317 149 222 c 0
 149 127 189 58 268 58 c 0
 347 58 385 124 385 222 c 0
EndSplineSet
Comment: "mark: 1+AAoA"
EndChar

StartChar: p
Encoding: 83 112 83
Width: 542
VWidth: 0
GlyphClass: 4
Flags: HW
LayerCount: 2
Back
Fore
SplineSet
501 227 m 0
 501 82 430 -13 300 -13 c 0
 240 -13 206 5 166 42 c 0
 166 -177 l 0
 59 -177 l 0
 59 445 l 0
 166 445 l 0
 166 385 l 0
 205 431 246 457 295 457 c 0
 433 457 501 356 501 227 c 0
392 227 m 0
 392 303 360 385 278 385 c 0
 194 385 165 294 165 224 c 0
 165 121 199 57 275 57 c 0
 363 57 392 152 392 227 c 0
EndSplineSet
Comment: "mark: 1+AAoA"
EndChar

StartChar: q
Encoding: 84 113 84
Width: 542
VWidth: 0
GlyphClass: 4
Flags: HW
LayerCount: 2
Back
Fore
SplineSet
482 -177 m 0
 375 -177 l 0
 375 42 l 0
 333 5 301 -13 241 -13 c 0
 111 -13 42 82 42 227 c 0
 42 358 109 457 247 457 c 0
 302 457 342 431 375 385 c 0
 375 445 l 0
 482 445 l 0
 482 -177 l 0
376 224 m 0
 376 298 345 385 264 385 c 0
 179 385 149 299 149 227 c 0
 149 148 180 57 267 57 c 0
 342 57 376 121 376 224 c 0
EndSplineSet
Comment: "mark: 1+AAoA"
EndChar

StartChar: r
Encoding: 85 114 85
Width: 338
VWidth: 0
GlyphClass: 4
Flags: HW
LayerCount: 2
Back
Fore
SplineSet
322 361 m 0
 216 361 166 317 166 235 c 0
 166 0 l 0
 59 0 l 0
 59 445 l 0
 166 445 l 0
 166 379 l 0
 194 432 226 453 322 453 c 0
 322 361 l 0
EndSplineSet
Comment: "mark: 1+AAoA"
EndChar

StartChar: s
Encoding: 86 115 86
Width: 458
VWidth: 0
GlyphClass: 4
Flags: HW
LayerCount: 2
Back
Fore
SplineSet
416 136 m 0
 416 28 317 -12 220 -12 c 0
 119 -12 42 28 42 135 c 0
 149 135 l 0
 150 77 178 57 231 57 c 0
 272 57 312 82 312 123 c 0
 312 224 52 154 52 327 c 0
 52 398 114 457 229 457 c 0
 340 457 405 418 405 318 c 0
 298 318 l 0
 297 361 284 388 224 388 c 0
 185 388 157 362 157 331 c 0
 157 245 416 305 416 136 c 0
EndSplineSet
Comment: "mark: 1+AAoA"
EndChar

StartChar: t
Encoding: 87 116 87
Width: 353
VWidth: 0
GlyphClass: 4
Flags: HW
LayerCount: 2
Back
Fore
SplineSet
329 3 m 0
 302 -7 275 -11 246 -11 c 0
 172 -11 112 28 112 111 c 0
 112 375 l 0
 26 375 l 0
 26 445 l 0
 112 445 l 0
 112 521 l 0
 219 574 l 0
 219 445 l 0
 323 445 l 0
 323 375 l 0
 219 375 l 0
 219 134 l 0
 219 84 241 64 283 64 c 0
 299 64 315 67 329 72 c 0
 329 3 l 0
EndSplineSet
Comment: "mark: 1+AAoA"
EndChar

StartChar: u
Encoding: 88 117 88
Width: 524
VWidth: 0
GlyphClass: 4
Flags: HW
LayerCount: 2
Back
Fore
SplineSet
465 0 m 0
 357 0 l 0
 357 59 l 0
 325 8 288 -12 216 -12 c 0
 112 -12 59 45 59 145 c 0
 59 445 l 0
 166 445 l 0
 166 169 l 0
 166 95 201 54 255 54 c 0
 318 54 357 99 357 184 c 0
 357 445 l 0
 465 445 l 0
 465 0 l 0
EndSplineSet
Comment: "mark: 1+AAoA"
EndChar

StartChar: v
Encoding: 89 118 89
Width: 482
VWidth: 0
GlyphClass: 4
Flags: HW
LayerCount: 2
Back
Fore
SplineSet
471 445 m 0
 299 0 l 0
 183 0 l 0
 10 445 l 0
 127 445 l 0
 243 122 l 0
 357 445 l 0
 471 445 l 0
EndSplineSet
Comment: "mark: 1+AAoA"
EndChar

StartChar: w
Encoding: 90 119 90
Width: 750
VWidth: 0
GlyphClass: 4
Flags: HW
LayerCount: 2
Back
Fore
SplineSet
739 445 m 0
 599 0 l 0
 477 0 l 0
 375 331 l 0
 273 0 l 0
 151 0 l 0
 10 445 l 0
 122 445 l 0
 214 133 l 0
 311 445 l 0
 438 445 l 0
 536 133 l 0
 629 445 l 0
 739 445 l 0
EndSplineSet
Comment: "mark: 1+AAoA"
EndChar

StartChar: x
Encoding: 91 120 91
Width: 487
VWidth: 0
GlyphClass: 4
Flags: HW
LayerCount: 2
Back
Fore
SplineSet
475 0 m 0
 346 0 l 0
 236 164 l 0
 132 0 l 0
 12 0 l 0
 177 236 l 0
 26 445 l 0
 155 445 l 0
 252 304 l 0
 341 445 l 0
 461 445 l 0
 312 236 l 0
 475 0 l 0
EndSplineSet
Comment: "mark: 1+AAoA"
EndChar

StartChar: y
Encoding: 92 121 92
Width: 481
VWidth: 0
GlyphClass: 4
Flags: HW
LayerCount: 2
Back
Fore
SplineSet
471 445 m 0
 268 -103 l 0
 250 -150 204 -182 139 -182 c 0
 84 -182 33 -153 7 -102 c 0
 78 -51 l 0
 90 -78 108 -93 135 -93 c 0
 153 -93 165 -79 175 -51 c 0
 193 0 l 0
 10 445 l 0
 132 445 l 0
 248 143 l 0
 356 445 l 0
 471 445 l 0
EndSplineSet
Comment: "mark: 1+AAoA"
EndChar

StartChar: z
Encoding: 93 122 93
Width: 441
VWidth: 0
GlyphClass: 4
Flags: HW
LayerCount: 2
Back
Fore
SplineSet
399 0 m 0
 42 0 l 0
 42 87 l 0
 277 373 l 0
 50 373 l 0
 50 445 l 0
 391 445 l 0
 391 358 l 0
 154 70 l 0
 399 70 l 0
 399 0 l 0
EndSplineSet
Comment: "mark: 1+AAoA"
EndChar

StartChar: braceleft
Encoding: 94 123 94
Width: 430
VWidth: 0
GlyphClass: 4
Flags: HW
LayerCount: 2
Back
Fore
SplineSet
375 -413 m 0
 184 -413 171 -203 171 61 c 0
 171 144 70 165 70 226 c 0
 70 285 171 308 171 390 c 0
 171 654 184 864 375 864 c 0
 375 773 l 0
 279 773 264 630 264 376 c 0
 264 270 177 238 177 226 c 0
 177 214 264 183 264 74 c 0
 264 -179 279 -322 375 -322 c 0
 375 -413 l 0
EndSplineSet
Comment: "GDL_order: 0+AAoA-mark: 80+AAoA"
EndChar

StartChar: bar
Encoding: 95 124 95
Width: 336
VWidth: 0
GlyphClass: 4
Flags: HW
LayerCount: 2
Back
Fore
SplineSet
212 -230 m 0
 124 -230 l 0
 124 709 l 0
 212 709 l 0
 212 -230 l 0
EndSplineSet
Comment: "mark: 1+AAoA"
EndChar

StartChar: braceright
Encoding: 96 125 96
Width: 429
VWidth: 0
GlyphClass: 4
Flags: HW
LayerCount: 2
Back
Fore
SplineSet
359 226 m 0
 359 166 260 143 260 61 c 0
 260 -203 246 -413 55 -413 c 0
 55 -321 l 0
 151 -321 166 -178 166 75 c 0
 166 182 254 214 254 226 c 0
 254 238 166 269 166 376 c 0
 166 630 151 773 55 773 c 0
 55 864 l 0
 246 864 260 655 260 391 c 0
 260 308 359 285 359 226 c 0
EndSplineSet
Comment: "GDL_order: 0+AAoA-mark: 80+AAoA"
EndChar

StartChar: asciitilde
Encoding: 97 126 97
Width: 571
VWidth: 0
GlyphClass: 4
Flags: HW
LayerCount: 2
Back
Fore
SplineSet
516 233 m 0
 469 189 416 168 370 168 c 0
 286 168 244 226 200 226 c 0
 172 226 138 216 84 166 c 0
 55 242 l 0
 104 292 156 309 200 309 c 0
 287 309 310 251 370 251 c 0
 398 251 431 268 463 296 c 0
 516 233 l 0
EndSplineSet
Comment: "GDL_order: 0+AAoA-mark: 80+AAoA"
EndChar

StartChar: multiply
Encoding: 98 215 98
Width: 530
VWidth: 0
GlyphClass: 4
Flags: HW
LayerCount: 2
Back
Fore
SplineSet
438 118 m 0
 371 52 l 0
 266 158 l 0
 160 52 l 0
 94 117 l 0
 200 224 l 0
 95 329 l 0
 160 395 l 0
 266 289 l 0
 372 397 l 0
 439 330 l 0
 333 224 l 0
 438 118 l 0
EndSplineSet
Comment: "GDL_order: 0+AAoA-mark: 80+AAoA"
EndChar

StartChar: u1000
Encoding: 99 4096 99
Width: 985
VWidth: 0
GlyphClass: 2
Flags: HW
AnchorPoint: "R" 0 0 mark 0
AnchorPoint: "BS" 690 -53 basechar 0
AnchorPoint: "L" 690 -53 basechar 0
AnchorPoint: "BD" 496 -53 basechar 0
AnchorPoint: "U" 690 495 basechar 0
LayerCount: 2
Back
Fore
SplineSet
929 222 m 0
 929 88 821 -20 690 -20 c 0
 677 -20 641 -19 619 -7 c 0
 656 78 l 0
 666 75 677 73 690 73 c 0
 771 73 837 141 837 222 c 0
 837 303 771 370 690 370 c 0
 609 370 539 275 539 202 c 0
 539 103 513 35 447 -20 c 0
 393 56 l 0
 429 98 446 131 446 205 c 0
 446 292 387 370 297 370 c 0
 207 370 148 292 148 205 c 0
 148 131 165 98 202 56 c 0
 148 -20 l 0
 81 36 55 105 55 205 c 0
 55 348 161 463 297 463 c 0
 382 463 455 418 496 349 c 0
 536 413 604 464 690 464 c 0
 821 464 929 354 929 222 c 0
EndSplineSet
Substitution2: "sub_single_cligmymr_2 subtable" u1000.kham
Ligature2: "LigatureSubstitutionlookup169 subtable" u1000 u103C
Ligature2: "LigatureSubstitutionlookup167 subtable" u1000 u103C u1031
Ligature2: "LigatureSubstitutionlookup167 subtable" u1000 u103C.wide u1031
Ligature2: "LigatureSubstitutionlookup167 subtable" u1000 u103C_u103D.narr u1031
Ligature2: "LigatureSubstitutionlookup167 subtable" u1000 u103C_u103D.wide u1031
Ligature2: "LigatureSubstitutionlookup165 subtable" u1000 u103C
Ligature2: "LigatureSubstitutionlookup165 subtable" u1000 u103C_u103D.narr
Ligature2: "LigatureSubstitutionlookup165 subtable" u1000 u103C_u102F.narr
Ligature2: "LigatureSubstitutionlookup163 subtable" u1000 u1031
Ligature2: "LigatureSubstitutionlookup163 subtable" u1000 u1084
Ligature2: "LigatureSubstitutionlookup162 subtable" u1000 u103D
Ligature2: "LigatureSubstitutionlookup162 subtable" u1000 u103E
Ligature2: "LigatureSubstitutionlookup162 subtable" u1000 u103D_u103E
Ligature2: "LigatureSubstitutionlookup162 subtable" u1000
Ligature2: "LigatureSubstitutionlookup162 subtable" u1000 u105F
Ligature2: "LigatureSubstitutionlookup162 subtable" u1000 u1060
Ligature2: "LigatureSubstitutionlookup162 subtable" u1000 u1082
Ligature2: "LigatureSubstitutionlookup158 subtable" u1000 u1039
Ligature2: "LigatureSubstitutionlookup130 subtable" u1004.kinzi u200D u1000
Ligature2: "LigatureSubstitutionlookup130 subtable" u101B.kinzi u200D u1000
Ligature2: "LigatureSubstitutionlookup127 subtable" u1004.kinzi u200D u1000
Ligature2: "LigatureSubstitutionlookup127 subtable" u101B.kinzi u200D u1000
Ligature2: "LigatureSubstitutionlookup124 subtable" u1004.kinzi u200D u1000
Ligature2: "LigatureSubstitutionlookup124 subtable" u101B.kinzi u200D u1000
MultipleSubs2: "MultipleSubstitutionlookup139 subtable" u200C u1031 u1000
MultipleSubs2: "MultipleSubstitutionlookup137 subtable" u200C u1084 u1000
MultipleSubs2: "MultipleSubstitutionlookup136 subtable" u200C u103C_u103D.wide u1000
MultipleSubs2: "MultipleSubstitutionlookup135 subtable" u200C u103C_u102F.wide u1000
MultipleSubs2: "MultipleSubstitutionlookup134 subtable" u200C u103C.wide u1000
MultipleSubs2: "MultipleSubstitutionlookup129 subtable" u1000 u101B.kinzi
MultipleSubs2: "MultipleSubstitutionlookup128 subtable" u1000 u1004.kinzi
Comment: "GDL_order: 1+AAoA-mark: 80+AAoA"
EndChar

StartChar: u1000.med
Encoding: 100 -1 100
Width: 0
VWidth: 0
GlyphClass: 4
Flags: HW
AnchorPoint: "LLM" -881 -53 basemark 0
AnchorPoint: "BD" -391 -53 mark 0
AnchorPoint: "LM" 100 -53 basemark 0
AnchorPoint: "BDM" -393 -53 basemark 0
AnchorPoint: "BSM" 886 -53 mark 0
AnchorPoint: "BSM" 88 -53 basemark 0
AnchorPoint: "BDM" -393 -53 mark 0
LayerCount: 2
Back
Fore
SplineSet
-56 -277 m 0
 -56 -380 -139 -464 -240 -464 c 0
 -261 -464 -281 -461 -295 -453 c 0
 -266 -388 l 0
 -259 -391 -250 -393 -240 -393 c 0
 -179 -393 -127 -338 -127 -277 c 0
 -127 -216 -179 -162 -240 -162 c 0
 -300 -162 -356 -234 -356 -294 c 0
 -356 -368 -376 -421 -428 -464 c 0
 -470 -404 l 0
 -441 -371 -428 -348 -428 -290 c 0
 -428 -222 -474 -162 -543 -162 c 0
 -612 -162 -657 -222 -657 -290 c 0
 -657 -347 -645 -372 -616 -404 c 0
 -658 -464 l 0
 -709 -420 -730 -367 -730 -290 c 0
 -730 -180 -648 -91 -543 -91 c 0
 -478 -91 -422 -124 -389 -179 c 0
 -358 -129 -307 -91 -240 -91 c 0
 -139 -91 -56 -175 -56 -277 c 0
EndSplineSet
Ligature2: "LigatureSubstitutionlookup179 subtable" u1000.med u102D
Ligature2: "LigatureSubstitutionlookup179 subtable" u1000.med u102E
Ligature2: "LigatureSubstitutionlookup179 subtable" u1000.med u1032
Ligature2: "LigatureSubstitutionlookup179 subtable" u1000.med u103A
Ligature2: "LigatureSubstitutionlookup171 subtable" u1000.med u103C u1031
Ligature2: "LigatureSubstitutionlookup159 subtable" u1000.med u1031
Ligature2: "LigatureSubstitutionlookup159 subtable" u1000.med u103C
Ligature2: "sub_ligature_cligmymr_0 subtable" u1039 u1000
MultipleSubs2: "MultipleSubstitutionlookup138 subtable" u1039 u1000.med
Comment: "GDL_order: 2+AAoA-mark: 80+AAoA"
EndChar

StartChar: u1000_u1001_u103B
Encoding: 101 -1 101
Width: 1154
VWidth: 0
GlyphClass: 2
Flags: HW
AnchorPoint: "R" 0 0 mark 0
AnchorPoint: "BS" 1255 -53 basechar 0
AnchorPoint: "LL" 359 -53 basechar 0
AnchorPoint: "L" 1255 -53 basechar 0
AnchorPoint: "U" 891 495 basechar 0
AnchorPoint: "BD" 1236 -53 basechar 0
LayerCount: 2
Back
Fore
SplineSet
1099 -464 m 0
 827 -395 l 0
 796 -428 751 -448 699 -448 c 0
 611 -448 515 -381 515 -303 c 0
 570 -258 620 -248 655 -248 c 0
 697 -248 760 -271 795 -315 c 0
 807 -299 812 -281 812 -262 c 0
 812 -224 780 -148 699 -148 c 0
 661 -148 621 -162 589 -211 c 0
 527 -177 l 0
 567 -96 655 -75 699 -75 c 0
 812 -75 883 -171 883 -262 c 0
 883 -279 880 -295 874 -310 c 0
 1005 -344 l 0
 1005 444 l 0
 1099 444 l 0
 1099 -464 l 0
930 222 m 0
 930 88 821 -20 690 -20 c 0
 677 -20 641 -18 619 -7 c 0
 656 78 l 0
 666 76 677 73 690 73 c 0
 771 73 837 141 837 222 c 0
 837 303 771 370 690 370 c 0
 609 370 539 275 539 202 c 0
 538 104 513 35 447 -20 c 0
 393 56 l 0
 429 98 446 131 446 205 c 0
 446 293 387 370 297 370 c 0
 207 370 150 293 150 205 c 0
 150 131 166 98 202 56 c 0
 148 -20 l 0
 81 36 55 105 55 205 c 0
 55 348 161 463 297 463 c 0
 381 463 454 419 496 349 c 0
 536 412 605 464 690 464 c 0
 821 464 930 354 930 222 c 0
697 -333 m 0
 681 -320 659 -311 633 -311 c 0
 628 -311 624 -311 619 -312 c 0
 631 -338 648 -347 655 -351 c 0
 671 -363 691 -369 711 -369 c 0
 718 -369 725 -369 732 -367 c 0
 727 -351 713 -336 697 -333 c 0
EndSplineSet
Ligature2: "sub_ligature_cligmymr_4 subtable" u1000 u1001.med u103B
Comment: "GDL_order: 1+AAoA-mark: 80+AAoA"
EndChar

StartChar: u1000_u103B_u1015_u103A
Encoding: 102 -1 102
Width: 1756
VWidth: 0
GlyphClass: 2
Flags: HW
AnchorPoint: "R" 0 0 mark 0
LayerCount: 2
Back
Fore
SplineSet
1119 -464 m 0
 753 -371 l 0
 753 -12 l 0
 732 -17 712 -20 690 -20 c 0
 670 -20 638 -18 619 -7 c 0
 656 78 l 0
 666 75 677 73 690 73 c 0
 771 73 837 141 837 222 c 0
 837 303 771 370 690 370 c 0
 609 370 539 275 539 202 c 0
 539 103 513 35 447 -20 c 0
 393 56 l 0
 429 98 446 131 446 205 c 0
 446 292 387 370 297 370 c 0
 207 370 150 292 150 205 c 0
 150 131 165 98 202 56 c 0
 148 -20 l 0
 81 36 54 105 54 205 c 0
 54 348 161 463 297 463 c 0
 382 463 454 418 496 349 c 0
 536 413 604 464 690 464 c 0
 821 464 930 354 930 222 c 0
 930 148 897 84 845 40 c 0
 845 -298 l 0
 1027 -344 l 0
 1027 444 l 0
 1119 444 l 0
 1119 -464 l 0
1700 238 m 0
 1700 95 1595 -20 1459 -20 c 0
 1322 -20 1216 95 1216 238 c 0
 1216 337 1241 406 1309 463 c 0
 1363 387 l 0
 1327 345 1309 312 1309 238 c 0
 1309 151 1369 73 1459 73 c 0
 1548 73 1607 151 1607 238 c 0
 1607 312 1590 345 1554 387 c 0
 1608 463 l 0
 1674 406 1700 337 1700 238 c 0
1683 838 m 0
 1633 796 l 0
 1616 822 1585 847 1549 847 c 0
 1498 847 1431 807 1431 731 c 0
 1431 646 1517 609 1549 609 c 0
 1549 538 l 0
 1462 538 1360 617 1360 731 c 0
 1360 845 1453 918 1549 918 c 0
 1594 918 1652 895 1683 838 c 0
EndSplineSet
Comment: "GDL_order: 1+AAoA-mark: 80+AAoA"
EndChar

StartChar: u1001
Encoding: 103 4097 103
Width: 592
VWidth: 0
GlyphClass: 2
Flags: HW
AnchorPoint: "R" 0 0 mark 0
AnchorPoint: "BS" 295 -53 basechar 0
AnchorPoint: "L" 295 -53 basechar 0
AnchorPoint: "U" 295 495 basechar 0
AnchorPoint: "BD" 283 -53 basechar 0
LayerCount: 2
Back
Fore
SplineSet
537 222 m 0
 537 93 437 -20 295 -20 c 0
 194 -20 62 53 56 175 c 0
 128 225 196 239 237 239 c 0
 300 239 377 207 423 153 c 0
 436 172 444 195 444 222 c 0
 444 271 401 370 295 370 c 0
 241 370 189 343 154 288 c 0
 74 331 l 0
 117 416 205 464 295 464 c 0
 445 464 537 336 537 222 c 0
369 92 m 0
 343 131 291 160 238 160 c 0
 215 160 188 155 161 144 c 0
 200 90 254 73 295 73 c 0
 323 73 347 80 369 92 c 0
EndSplineSet
Ligature2: "LigatureSubstitutionlookup169 subtable" u1001 u103C
Ligature2: "LigatureSubstitutionlookup167 subtable" u1001 u103C u1031
Ligature2: "LigatureSubstitutionlookup167 subtable" u1001 u103C.wide u1031
Ligature2: "LigatureSubstitutionlookup167 subtable" u1001 u103C_u103D.narr u1031
Ligature2: "LigatureSubstitutionlookup167 subtable" u1001 u103C_u103D.wide u1031
Ligature2: "LigatureSubstitutionlookup165 subtable" u1001 u103C
Ligature2: "LigatureSubstitutionlookup165 subtable" u1001 u103C_u103D.narr
Ligature2: "LigatureSubstitutionlookup165 subtable" u1001 u103C_u102F.narr
Ligature2: "LigatureSubstitutionlookup163 subtable" u1001 u1031
Ligature2: "LigatureSubstitutionlookup163 subtable" u1001 u1084
Ligature2: "LigatureSubstitutionlookup162 subtable" u1001 u103D
Ligature2: "LigatureSubstitutionlookup162 subtable" u1001 u103E
Ligature2: "LigatureSubstitutionlookup162 subtable" u1001 u103D_u103E
Ligature2: "LigatureSubstitutionlookup162 subtable" u1001
Ligature2: "LigatureSubstitutionlookup162 subtable" u1001 u105F
Ligature2: "LigatureSubstitutionlookup162 subtable" u1001 u1060
Ligature2: "LigatureSubstitutionlookup162 subtable" u1001 u1082
Ligature2: "LigatureSubstitutionlookup158 subtable" u1001 u1039
Ligature2: "LigatureSubstitutionlookup130 subtable" u1004.kinzi u200D u1001
Ligature2: "LigatureSubstitutionlookup130 subtable" u101B.kinzi u200D u1001
Ligature2: "LigatureSubstitutionlookup127 subtable" u1004.kinzi u200D u1001
Ligature2: "LigatureSubstitutionlookup127 subtable" u101B.kinzi u200D u1001
Ligature2: "LigatureSubstitutionlookup124 subtable" u1004.kinzi u200D u1001
Ligature2: "LigatureSubstitutionlookup124 subtable" u101B.kinzi u200D u1001
MultipleSubs2: "MultipleSubstitutionlookup139 subtable" u200C u1031 u1001
MultipleSubs2: "MultipleSubstitutionlookup137 subtable" u200C u1084 u1001
MultipleSubs2: "MultipleSubstitutionlookup136 subtable" u200C u103C_u103D.narr u1001
MultipleSubs2: "MultipleSubstitutionlookup135 subtable" u200C u103C_u102F.narr u1001
MultipleSubs2: "MultipleSubstitutionlookup134 subtable" u200C u103C u1001
MultipleSubs2: "MultipleSubstitutionlookup129 subtable" u1001 u101B.kinzi
MultipleSubs2: "MultipleSubstitutionlookup128 subtable" u1001 u1004.kinzi
PairPos2: "PairwisePositioningkerninglooku subtable" uAA60.med.kham dx=-90 dy=0 dh=0 dv=0 dx=0 dy=0 dh=90 dv=0
PairPos2: "PairwisePositioningkerninglooku subtable" uAA60.med dx=-90 dy=0 dh=0 dv=0 dx=0 dy=0 dh=90 dv=0
PairPos2: "PairwisePositioningkerninglooku subtable" u1021.med dx=-90 dy=0 dh=0 dv=0 dx=0 dy=0 dh=90 dv=0
PairPos2: "PairwisePositioningkerninglooku subtable" u101E.med dx=-90 dy=0 dh=0 dv=0 dx=0 dy=0 dh=90 dv=0
PairPos2: "PairwisePositioningkerninglooku subtable" u101C.med dx=-90 dy=0 dh=0 dv=0 dx=0 dy=0 dh=90 dv=0
PairPos2: "PairwisePositioningkerninglooku subtable" u101A.med dx=-90 dy=0 dh=0 dv=0 dx=0 dy=0 dh=90 dv=0
PairPos2: "PairwisePositioningkerninglooku subtable" u1018.med dx=-90 dy=0 dh=0 dv=0 dx=0 dy=0 dh=90 dv=0
PairPos2: "PairwisePositioningkerninglooku subtable" u1011.med dx=-90 dy=0 dh=0 dv=0 dx=0 dy=0 dh=90 dv=0
PairPos2: "PairwisePositioningkerninglooku subtable" u1010.med dx=-90 dy=0 dh=0 dv=0 dx=0 dy=0 dh=90 dv=0
PairPos2: "PairwisePositioningkerninglooku subtable" u100F.med dx=-90 dy=0 dh=0 dv=0 dx=0 dy=0 dh=90 dv=0
PairPos2: "PairwisePositioningkerninglooku subtable" u100C.med dx=-90 dy=0 dh=0 dv=0 dx=0 dy=0 dh=90 dv=0
PairPos2: "PairwisePositioningkerninglooku subtable" u100A.med dx=-90 dy=0 dh=0 dv=0 dx=0 dy=0 dh=90 dv=0
PairPos2: "PairwisePositioningkerninglooku subtable" u1006.med dx=-90 dy=0 dh=0 dv=0 dx=0 dy=0 dh=90 dv=0
PairPos2: "PairwisePositioningkerninglooku subtable" u1003.med dx=-90 dy=0 dh=0 dv=0 dx=0 dy=0 dh=90 dv=0
PairPos2: "PairwisePositioningkerninglooku subtable" u1000.med dx=-90 dy=0 dh=0 dv=0 dx=0 dy=0 dh=90 dv=0
Position2: "SinglePositioninglookup48 per glyph data 0" dx=100 dy=0 dh=50 dv=0
Position2: "SinglePositioninglookup30 subtable" dx=140 dy=0 dh=140 dv=0
Comment: "GDL_order: 1+AAoA-mark: 80+AAoA"
EndChar

StartChar: u1001.med
Encoding: 104 -1 104
Width: 0
VWidth: 0
GlyphClass: 4
Flags: HW
AnchorPoint: "BS" -240 -53 mark 0
AnchorPoint: "LLM" -583 -53 basemark 0
AnchorPoint: "BSM" -240 -53 mark 0
AnchorPoint: "LM" 100 -53 basemark 0
AnchorPoint: "BS" -237 -53 basemark 0
AnchorPoint: "BSM" -237 -53 basemark 0
LayerCount: 2
Back
Fore
SplineSet
-56 -277 m 0
 -56 -382 -138 -464 -241 -464 c 0
 -328 -464 -426 -395 -426 -310 c 0
 -372 -273 -322 -263 -286 -263 c 0
 -243 -263 -182 -286 -145 -330 c 0
 -133 -314 -128 -297 -128 -278 c 0
 -128 -220 -173 -162 -241 -162 c 0
 -284 -162 -325 -184 -350 -226 c 0
 -412 -192 l 0
 -379 -124 -308 -90 -241 -90 c 0
 -128 -90 -56 -186 -56 -277 c 0
-184 -377 m 0
 -205 -345 -245 -322 -287 -322 c 0
 -306 -322 -324 -326 -346 -335 c 0
 -317 -377 -273 -393 -241 -393 c 0
 -220 -393 -200 -386 -184 -377 c 0
EndSplineSet
Ligature2: "LigatureSubstitutionlookup179 subtable" u1001.med u102D
Ligature2: "LigatureSubstitutionlookup179 subtable" u1001.med u102E
Ligature2: "LigatureSubstitutionlookup179 subtable" u1001.med u1032
Ligature2: "LigatureSubstitutionlookup179 subtable" u1001.med u103A
Ligature2: "LigatureSubstitutionlookup171 subtable" u1001.med u103C u1031
Ligature2: "LigatureSubstitutionlookup159 subtable" u1001.med u1031
Ligature2: "LigatureSubstitutionlookup159 subtable" u1001.med u103C
Ligature2: "sub_ligature_cligmymr_0 subtable" u1039 u1001
MultipleSubs2: "MultipleSubstitutionlookup138 subtable" u1039 u1001.med
Comment: "GDL_order: 2+AAoA-mark: 80+AAoA"
EndChar

StartChar: u1002
Encoding: 105 4098 105
Width: 595
VWidth: 0
GlyphClass: 2
Flags: HW
AnchorPoint: "R" 0 0 mark 0
AnchorPoint: "BS" 297 -53 basechar 0
AnchorPoint: "L" 297 -53 basechar 0
AnchorPoint: "U" 297 495 basechar 0
AnchorPoint: "BD" 292 -53 basechar 0
LayerCount: 2
Back
Fore
SplineSet
540 205 m 0
 540 105 514 36 447 -20 c 0
 393 56 l 0
 429 98 446 131 446 205 c 0
 446 292 387 370 297 370 c 0
 207 370 148 292 148 205 c 0
 148 131 165 98 202 56 c 0
 148 -20 l 0
 81 36 55 105 55 205 c 0
 55 348 161 463 297 463 c 0
 420 463 540 361 540 205 c 0
EndSplineSet
Substitution2: "sub_single_cligmymr_2 subtable" u1002.kham
Ligature2: "LigatureSubstitutionlookup169 subtable" u1002 u103C
Ligature2: "LigatureSubstitutionlookup167 subtable" u1002 u103C u1031
Ligature2: "LigatureSubstitutionlookup167 subtable" u1002 u103C.wide u1031
Ligature2: "LigatureSubstitutionlookup167 subtable" u1002 u103C_u103D.narr u1031
Ligature2: "LigatureSubstitutionlookup167 subtable" u1002 u103C_u103D.wide u1031
Ligature2: "LigatureSubstitutionlookup165 subtable" u1002 u103C
Ligature2: "LigatureSubstitutionlookup165 subtable" u1002 u103C_u103D.narr
Ligature2: "LigatureSubstitutionlookup165 subtable" u1002 u103C_u102F.narr
Ligature2: "LigatureSubstitutionlookup163 subtable" u1002 u1031
Ligature2: "LigatureSubstitutionlookup163 subtable" u1002 u1084
Ligature2: "LigatureSubstitutionlookup162 subtable" u1002 u103D
Ligature2: "LigatureSubstitutionlookup162 subtable" u1002 u103E
Ligature2: "LigatureSubstitutionlookup162 subtable" u1002 u103D_u103E
Ligature2: "LigatureSubstitutionlookup162 subtable" u1002
Ligature2: "LigatureSubstitutionlookup162 subtable" u1002 u105F
Ligature2: "LigatureSubstitutionlookup162 subtable" u1002 u1060
Ligature2: "LigatureSubstitutionlookup162 subtable" u1002 u1082
Ligature2: "LigatureSubstitutionlookup158 subtable" u1002 u1039
Ligature2: "LigatureSubstitutionlookup130 subtable" u1004.kinzi u200D u1002
Ligature2: "LigatureSubstitutionlookup130 subtable" u101B.kinzi u200D u1002
Ligature2: "LigatureSubstitutionlookup127 subtable" u1004.kinzi u200D u1002
Ligature2: "LigatureSubstitutionlookup127 subtable" u101B.kinzi u200D u1002
Ligature2: "LigatureSubstitutionlookup124 subtable" u1004.kinzi u200D u1002
Ligature2: "LigatureSubstitutionlookup124 subtable" u101B.kinzi u200D u1002
MultipleSubs2: "MultipleSubstitutionlookup139 subtable" u200C u1031 u1002
MultipleSubs2: "MultipleSubstitutionlookup137 subtable" u200C u1084 u1002
MultipleSubs2: "MultipleSubstitutionlookup136 subtable" u200C u103C_u103D.narr u1002
MultipleSubs2: "MultipleSubstitutionlookup135 subtable" u200C u103C_u102F.narr u1002
MultipleSubs2: "MultipleSubstitutionlookup134 subtable" u200C u103C u1002
MultipleSubs2: "MultipleSubstitutionlookup129 subtable" u1002 u101B.kinzi
MultipleSubs2: "MultipleSubstitutionlookup128 subtable" u1002 u1004.kinzi
PairPos2: "PairwisePositioningkerninglooku subtable" uAA60.med.kham dx=-90 dy=0 dh=0 dv=0 dx=0 dy=0 dh=90 dv=0
PairPos2: "PairwisePositioningkerninglooku subtable" uAA60.med dx=-90 dy=0 dh=0 dv=0 dx=0 dy=0 dh=90 dv=0
PairPos2: "PairwisePositioningkerninglooku subtable" u1021.med dx=-90 dy=0 dh=0 dv=0 dx=0 dy=0 dh=90 dv=0
PairPos2: "PairwisePositioningkerninglooku subtable" u101E.med dx=-90 dy=0 dh=0 dv=0 dx=0 dy=0 dh=90 dv=0
PairPos2: "PairwisePositioningkerninglooku subtable" u101C.med dx=-90 dy=0 dh=0 dv=0 dx=0 dy=0 dh=90 dv=0
PairPos2: "PairwisePositioningkerninglooku subtable" u101A.med dx=-90 dy=0 dh=0 dv=0 dx=0 dy=0 dh=90 dv=0
PairPos2: "PairwisePositioningkerninglooku subtable" u1018.med dx=-90 dy=0 dh=0 dv=0 dx=0 dy=0 dh=90 dv=0
PairPos2: "PairwisePositioningkerninglooku subtable" u1011.med dx=-90 dy=0 dh=0 dv=0 dx=0 dy=0 dh=90 dv=0
PairPos2: "PairwisePositioningkerninglooku subtable" u1010.med dx=-90 dy=0 dh=0 dv=0 dx=0 dy=0 dh=90 dv=0
PairPos2: "PairwisePositioningkerninglooku subtable" u100F.med dx=-90 dy=0 dh=0 dv=0 dx=0 dy=0 dh=90 dv=0
PairPos2: "PairwisePositioningkerninglooku subtable" u100C.med dx=-90 dy=0 dh=0 dv=0 dx=0 dy=0 dh=90 dv=0
PairPos2: "PairwisePositioningkerninglooku subtable" u100A.med dx=-90 dy=0 dh=0 dv=0 dx=0 dy=0 dh=90 dv=0
PairPos2: "PairwisePositioningkerninglooku subtable" u1006.med dx=-90 dy=0 dh=0 dv=0 dx=0 dy=0 dh=90 dv=0
PairPos2: "PairwisePositioningkerninglooku subtable" u1003.med dx=-90 dy=0 dh=0 dv=0 dx=0 dy=0 dh=90 dv=0
PairPos2: "PairwisePositioningkerninglooku subtable" u1000.med dx=-90 dy=0 dh=0 dv=0 dx=0 dy=0 dh=90 dv=0
Position2: "SinglePositioninglookup48 per glyph data 0" dx=100 dy=0 dh=50 dv=0
Position2: "SinglePositioninglookup30 subtable" dx=140 dy=0 dh=140 dv=0
Comment: "GDL_order: 1+AAoA-mark: 80+AAoA"
EndChar

StartChar: u1002.med
Encoding: 106 -1 106
Width: 0
VWidth: 0
GlyphClass: 4
Flags: HW
AnchorPoint: "BS" -242 -53 mark 0
AnchorPoint: "LLM" -586 -53 basemark 0
AnchorPoint: "BSM" -242 -53 mark 0
AnchorPoint: "LM" 100 -53 basemark 0
AnchorPoint: "BS" 238 -53 basemark 0
AnchorPoint: "BSM" 565 -53 basemark 0
LayerCount: 2
Back
Fore
SplineSet
-56 -290 m 0
 -56 -367 -76 -420 -128 -464 c 0
 -170 -404 l 0
 -139 -371 -127 -338 -127 -290 c 0
 -127 -227 -170 -162 -243 -162 c 0
 -312 -162 -359 -223 -359 -290 c 0
 -359 -338 -346 -371 -316 -404 c 0
 -358 -464 l 0
 -410 -420 -430 -367 -430 -290 c 0
 -430 -180 -348 -91 -243 -91 c 0
 -138 -91 -56 -180 -56 -290 c 0
EndSplineSet
Ligature2: "LigatureSubstitutionlookup179 subtable" u1002.med u102D
Ligature2: "LigatureSubstitutionlookup179 subtable" u1002.med u102E
Ligature2: "LigatureSubstitutionlookup179 subtable" u1002.med u1032
Ligature2: "LigatureSubstitutionlookup179 subtable" u1002.med u103A
Ligature2: "LigatureSubstitutionlookup171 subtable" u1002.med u103C u1031
Ligature2: "LigatureSubstitutionlookup159 subtable" u1002.med u1031
Ligature2: "LigatureSubstitutionlookup159 subtable" u1002.med u103C
Ligature2: "sub_ligature_cligmymr_0 subtable" u1039 u1002
MultipleSubs2: "MultipleSubstitutionlookup138 subtable" u1039 u1002.med
Comment: "GDL_order: 2+AAoA-mark: 80+AAoA"
EndChar

StartChar: u1003
Encoding: 107 4099 107
Width: 979
VWidth: 0
GlyphClass: 2
Flags: HW
AnchorPoint: "R" 0 0 mark 0
AnchorPoint: "BS" 684 -53 basechar 0
AnchorPoint: "L" 684 -53 basechar 0
AnchorPoint: "BD" 488 -53 basechar 0
AnchorPoint: "U" 684 495 basechar 0
LayerCount: 2
Back
Fore
SplineSet
924 222 m 0
 924 90 814 -20 684 -20 c 0
 599 -20 530 30 490 93 c 0
 446 21 372 -20 290 -20 c 0
 146 -20 55 83 55 167 c 0
 55 311 194 286 194 341 c 0
 194 369 177 380 159 380 c 0
 141 380 129 365 126 353 c 0
 55 395 l 0
 64 433 114 463 159 463 c 0
 217 463 277 423 277 341 c 0
 277 234 148 243 148 167 c 0
 148 137 196 73 290 73 c 0
 376 73 438 143 438 244 c 0
 438 300 420 354 385 387 c 0
 439 463 l 0
 502 415 532 338 532 236 c 0
 532 166 605 73 684 73 c 0
 765 73 831 141 831 222 c 0
 831 302 765 370 684 370 c 0
 674 370 660 368 650 364 c 0
 613 450 l 0
 632 460 658 464 684 464 c 0
 814 464 924 356 924 222 c 0
EndSplineSet
Ligature2: "LigatureSubstitutionlookup169 subtable" u1003 u103C
Ligature2: "LigatureSubstitutionlookup167 subtable" u1003 u103C u1031
Ligature2: "LigatureSubstitutionlookup167 subtable" u1003 u103C.wide u1031
Ligature2: "LigatureSubstitutionlookup167 subtable" u1003 u103C_u103D.narr u1031
Ligature2: "LigatureSubstitutionlookup167 subtable" u1003 u103C_u103D.wide u1031
Ligature2: "LigatureSubstitutionlookup165 subtable" u1003 u103C
Ligature2: "LigatureSubstitutionlookup165 subtable" u1003 u103C_u103D.narr
Ligature2: "LigatureSubstitutionlookup165 subtable" u1003 u103C_u102F.narr
Ligature2: "LigatureSubstitutionlookup163 subtable" u1003 u1031
Ligature2: "LigatureSubstitutionlookup163 subtable" u1003 u1084
Ligature2: "LigatureSubstitutionlookup162 subtable" u1003 u103D
Ligature2: "LigatureSubstitutionlookup162 subtable" u1003 u103E
Ligature2: "LigatureSubstitutionlookup162 subtable" u1003 u103D_u103E
Ligature2: "LigatureSubstitutionlookup162 subtable" u1003
Ligature2: "LigatureSubstitutionlookup162 subtable" u1003 u105F
Ligature2: "LigatureSubstitutionlookup162 subtable" u1003 u1060
Ligature2: "LigatureSubstitutionlookup162 subtable" u1003 u1082
Ligature2: "LigatureSubstitutionlookup158 subtable" u1003 u1039
Ligature2: "LigatureSubstitutionlookup130 subtable" u1004.kinzi u200D u1003
Ligature2: "LigatureSubstitutionlookup130 subtable" u101B.kinzi u200D u1003
Ligature2: "LigatureSubstitutionlookup127 subtable" u1004.kinzi u200D u1003
Ligature2: "LigatureSubstitutionlookup127 subtable" u101B.kinzi u200D u1003
Ligature2: "LigatureSubstitutionlookup124 subtable" u1004.kinzi u200D u1003
Ligature2: "LigatureSubstitutionlookup124 subtable" u101B.kinzi u200D u1003
MultipleSubs2: "MultipleSubstitutionlookup139 subtable" u200C u1031 u1003
MultipleSubs2: "MultipleSubstitutionlookup137 subtable" u200C u1084 u1003
MultipleSubs2: "MultipleSubstitutionlookup136 subtable" u200C u103C_u103D.wide u1003
MultipleSubs2: "MultipleSubstitutionlookup135 subtable" u200C u103C_u102F.wide u1003
MultipleSubs2: "MultipleSubstitutionlookup134 subtable" u200C u103C.wide u1003
MultipleSubs2: "MultipleSubstitutionlookup129 subtable" u1003 u101B.kinzi
MultipleSubs2: "MultipleSubstitutionlookup128 subtable" u1003 u1004.kinzi
Comment: "GDL_order: 1+AAoA-mark: 80+AAoA"
EndChar

StartChar: u1003.med
Encoding: 108 -1 108
Width: 0
VWidth: 0
GlyphClass: 4
Flags: HW
AnchorPoint: "LLM" -880 -53 basemark 0
AnchorPoint: "BD" -391 -53 mark 0
AnchorPoint: "BSM" 104 -53 basemark 0
AnchorPoint: "LM" 100 -53 basemark 0
AnchorPoint: "BSM" 883 -53 mark 0
AnchorPoint: "BDM" -401 -53 mark 0
AnchorPoint: "BD" 394 -53 basemark 0
LayerCount: 2
Back
Fore
SplineSet
-56 -277 m 0
 -56 -379 -139 -464 -239 -464 c 0
 -306 -464 -359 -426 -389 -376 c 0
 -423 -431 -480 -464 -543 -464 c 0
 -654 -464 -724 -383 -724 -320 c 0
 -724 -217 -618 -224 -618 -183 c 0
 -618 -164 -630 -156 -644 -156 c 0
 -657 -156 -668 -166 -670 -176 c 0
 -724 -143 l 0
 -720 -114 -680 -91 -644 -91 c 0
 -599 -91 -553 -123 -553 -185 c 0
 -553 -266 -653 -260 -653 -320 c 0
 -653 -343 -614 -393 -543 -393 c 0
 -479 -393 -429 -338 -429 -261 c 0
 -429 -220 -444 -176 -471 -151 c 0
 -428 -91 l 0
 -384 -126 -356 -178 -356 -264 c 0
 -356 -323 -299 -393 -239 -393 c 0
 -177 -393 -127 -338 -127 -277 c 0
 -127 -216 -177 -162 -239 -162 c 0
 -247 -162 -257 -164 -266 -167 c 0
 -294 -102 l 0
 -279 -93 -260 -91 -239 -91 c 0
 -139 -91 -56 -174 -56 -277 c 0
EndSplineSet
Ligature2: "LigatureSubstitutionlookup179 subtable" u1003.med u102D
Ligature2: "LigatureSubstitutionlookup179 subtable" u1003.med u102E
Ligature2: "LigatureSubstitutionlookup179 subtable" u1003.med u1032
Ligature2: "LigatureSubstitutionlookup179 subtable" u1003.med u103A
Ligature2: "LigatureSubstitutionlookup171 subtable" u1003.med u103C u1031
Ligature2: "LigatureSubstitutionlookup159 subtable" u1003.med u1031
Ligature2: "LigatureSubstitutionlookup159 subtable" u1003.med u103C
Ligature2: "sub_ligature_cligmymr_0 subtable" u1039 u1003
MultipleSubs2: "MultipleSubstitutionlookup138 subtable" u1039 u1003.med
Comment: "GDL_order: 2+AAoA-mark: 80+AAoA"
EndChar

StartChar: u1004
Encoding: 109 4100 109
Width: 574
VWidth: 0
GlyphClass: 2
Flags: HW
AnchorPoint: "R" 0 0 mark 0
AnchorPoint: "BS" 296 -53 basechar 0
AnchorPoint: "L" 296 -53 basechar 0
AnchorPoint: "U" 296 495 basechar 0
AnchorPoint: "BD" 292 -53 basechar 0
LayerCount: 2
Back
Fore
SplineSet
519 112 m 0
 476 28 387 -20 296 -20 c 0
 165 -20 55 88 55 222 c 0
 55 354 165 464 296 464 c 0
 382 464 478 419 519 331 c 0
 436 288 l 0
 403 344 353 370 296 370 c 0
 216 370 148 302 148 222 c 0
 148 141 216 73 296 73 c 0
 356 73 407 102 436 156 c 0
 519 112 l 0
EndSplineSet
Substitution2: "sub_single_cligmymr_2 subtable" u1004.kham
Ligature2: "LigatureSubstitutionlookup169 subtable" u1004 u103C
Ligature2: "LigatureSubstitutionlookup167 subtable" u1004 u103C u1031
Ligature2: "LigatureSubstitutionlookup167 subtable" u1004 u103C.wide u1031
Ligature2: "LigatureSubstitutionlookup167 subtable" u1004 u103C_u103D.narr u1031
Ligature2: "LigatureSubstitutionlookup167 subtable" u1004 u103C_u103D.wide u1031
Ligature2: "LigatureSubstitutionlookup165 subtable" u1004 u103C
Ligature2: "LigatureSubstitutionlookup165 subtable" u1004 u103C_u103D.narr
Ligature2: "LigatureSubstitutionlookup165 subtable" u1004 u103C_u102F.narr
Ligature2: "LigatureSubstitutionlookup163 subtable" u1004 u1031
Ligature2: "LigatureSubstitutionlookup163 subtable" u1004 u1084
Ligature2: "LigatureSubstitutionlookup162 subtable" u1004 u103D
Ligature2: "LigatureSubstitutionlookup162 subtable" u1004 u103E
Ligature2: "LigatureSubstitutionlookup162 subtable" u1004 u103D_u103E
Ligature2: "LigatureSubstitutionlookup162 subtable" u1004
Ligature2: "LigatureSubstitutionlookup162 subtable" u1004 u105F
Ligature2: "LigatureSubstitutionlookup162 subtable" u1004 u1060
Ligature2: "LigatureSubstitutionlookup162 subtable" u1004 u1082
Ligature2: "LigatureSubstitutionlookup158 subtable" u1004 u1039
Ligature2: "LigatureSubstitutionlookup130 subtable" u1004.kinzi u200D u1004
Ligature2: "LigatureSubstitutionlookup130 subtable" u101B.kinzi u200D u1004
Ligature2: "LigatureSubstitutionlookup127 subtable" u1004.kinzi u200D u1004
Ligature2: "LigatureSubstitutionlookup127 subtable" u101B.kinzi u200D u1004
Ligature2: "LigatureSubstitutionlookup124 subtable" u1004.kinzi u200D u1004
Ligature2: "LigatureSubstitutionlookup124 subtable" u101B.kinzi u200D u1004
MultipleSubs2: "MultipleSubstitutionlookup139 subtable" u200C u1031 u1004
MultipleSubs2: "MultipleSubstitutionlookup137 subtable" u200C u1084 u1004
MultipleSubs2: "MultipleSubstitutionlookup136 subtable" u200C u103C_u103D.narr u1004
MultipleSubs2: "MultipleSubstitutionlookup135 subtable" u200C u103C_u102F.narr u1004
MultipleSubs2: "MultipleSubstitutionlookup134 subtable" u200C u103C u1004
MultipleSubs2: "MultipleSubstitutionlookup129 subtable" u1004 u101B.kinzi
MultipleSubs2: "MultipleSubstitutionlookup128 subtable" u1004 u1004.kinzi
PairPos2: "PairwisePositioningkerninglooku subtable" uAA60.med.kham dx=-90 dy=0 dh=0 dv=0 dx=0 dy=0 dh=90 dv=0
PairPos2: "PairwisePositioningkerninglooku subtable" uAA60.med dx=-90 dy=0 dh=0 dv=0 dx=0 dy=0 dh=90 dv=0
PairPos2: "PairwisePositioningkerninglooku subtable" u1021.med dx=-90 dy=0 dh=0 dv=0 dx=0 dy=0 dh=90 dv=0
PairPos2: "PairwisePositioningkerninglooku subtable" u101E.med dx=-90 dy=0 dh=0 dv=0 dx=0 dy=0 dh=90 dv=0
PairPos2: "PairwisePositioningkerninglooku subtable" u101C.med dx=-90 dy=0 dh=0 dv=0 dx=0 dy=0 dh=90 dv=0
PairPos2: "PairwisePositioningkerninglooku subtable" u101A.med dx=-90 dy=0 dh=0 dv=0 dx=0 dy=0 dh=90 dv=0
PairPos2: "PairwisePositioningkerninglooku subtable" u1018.med dx=-90 dy=0 dh=0 dv=0 dx=0 dy=0 dh=90 dv=0
PairPos2: "PairwisePositioningkerninglooku subtable" u1011.med dx=-90 dy=0 dh=0 dv=0 dx=0 dy=0 dh=90 dv=0
PairPos2: "PairwisePositioningkerninglooku subtable" u1010.med dx=-90 dy=0 dh=0 dv=0 dx=0 dy=0 dh=90 dv=0
PairPos2: "PairwisePositioningkerninglooku subtable" u100F.med dx=-90 dy=0 dh=0 dv=0 dx=0 dy=0 dh=90 dv=0
PairPos2: "PairwisePositioningkerninglooku subtable" u100C.med dx=-90 dy=0 dh=0 dv=0 dx=0 dy=0 dh=90 dv=0
PairPos2: "PairwisePositioningkerninglooku subtable" u100A.med dx=-90 dy=0 dh=0 dv=0 dx=0 dy=0 dh=90 dv=0
PairPos2: "PairwisePositioningkerninglooku subtable" u1006.med dx=-90 dy=0 dh=0 dv=0 dx=0 dy=0 dh=90 dv=0
PairPos2: "PairwisePositioningkerninglooku subtable" u1003.med dx=-90 dy=0 dh=0 dv=0 dx=0 dy=0 dh=90 dv=0
PairPos2: "PairwisePositioningkerninglooku subtable" u1000.med dx=-90 dy=0 dh=0 dv=0 dx=0 dy=0 dh=90 dv=0
Position2: "SinglePositioninglookup48 per glyph data 0" dx=100 dy=0 dh=50 dv=0
Position2: "SinglePositioninglookup30 subtable" dx=140 dy=0 dh=140 dv=0
Comment: "GDL_order: 1+AAoA-mark: 80+AAoA"
EndChar

StartChar: u1004.med
Encoding: 110 -1 110
Width: 0
VWidth: 0
GlyphClass: 4
Flags: HW
AnchorPoint: "BS" -227 -53 mark 0
AnchorPoint: "LLM" -553 -53 basemark 0
AnchorPoint: "BSM" -227 -53 mark 0
AnchorPoint: "LM" 99 -53 basemark 0
AnchorPoint: "BS" -174 -53 basemark 0
AnchorPoint: "BSM" 111 -53 basemark 0
LayerCount: 2
Back
Fore
SplineSet
-52 -367 m 0
 -92 -437 -152 -464 -226 -464 c 0
 -328 -464 -413 -380 -413 -277 c 0
 -413 -176 -328 -90 -226 -90 c 0
 -152 -90 -92 -117 -52 -187 c 0
 -111 -225 l 0
 -137 -182 -174 -162 -223 -162 c 0
 -289 -162 -341 -215 -341 -277 c 0
 -341 -339 -290 -393 -224 -393 c 0
 -179 -393 -139 -374 -111 -330 c 0
 -52 -367 l 0
EndSplineSet
Ligature2: "LigatureSubstitutionlookup179 subtable" u1004.med u102D
Ligature2: "LigatureSubstitutionlookup179 subtable" u1004.med u102E
Ligature2: "LigatureSubstitutionlookup179 subtable" u1004.med u1032
Ligature2: "LigatureSubstitutionlookup179 subtable" u1004.med u103A
Ligature2: "LigatureSubstitutionlookup171 subtable" u1004.med u103C u1031
Ligature2: "LigatureSubstitutionlookup159 subtable" u1004.med u1031
Ligature2: "LigatureSubstitutionlookup159 subtable" u1004.med u103C
Ligature2: "sub_ligature_cligmymr_0 subtable" u1039 u1004
MultipleSubs2: "MultipleSubstitutionlookup138 subtable" u1039 u1004.med
Comment: "GDL_order: 2+AAoA-mark: 80+AAoA"
EndChar

StartChar: u1004.kinzi
Encoding: 111 -1 111
Width: 55
VWidth: 0
GlyphClass: 4
Flags: HW
AnchorPoint: "Y" -31 495 mark 0
AnchorPoint: "U" -99 495 mark 0
AnchorPoint: "UM" -92 495 basemark 0
LayerCount: 2
Back
Fore
SplineSet
0 597 m 0
 -21 557 -62 540 -99 540 c 0
 -157 540 -206 590 -206 648 c 0
 -206 682 -192 709 -169 729 c 0
 -191 749 -206 774 -206 809 c 0
 -206 873 -155 915 -97 915 c 0
 -56 915 -30 895 -16 870 c 0
 -63 831 l 0
 -71 844 -83 854 -99 854 c 0
 -123 854 -144 835 -144 809 c 0
 -144 783 -124 759 -99 759 c 0
 -65 759 -22 738 0 699 c 0
 -51 672 l 0
 -64 690 -77 697 -96 697 c 0
 -118 697 -143 679 -143 649 c 0
 -143 623 -121 602 -96 602 c 0
 -78 602 -65 608 -51 627 c 0
 0 597 l 0
EndSplineSet
Substitution2: "SingleSubstitutionlookup177 subtable" u1004.kinzi_u1036
Substitution2: "SingleSubstitutionlookup176 subtable" u1004.kinzi_u103A
Substitution2: "SingleSubstitutionlookup175 subtable" u1004.kinzi_u1032
Substitution2: "Single Substitution lookup 151 subtable" u1004.kinzi_u102E
Substitution2: "SingleSubstitutionlookup173 subtable" u1004.kinzi_u102D
Ligature2: "LigatureSubstitutionlookup118 subtable" circledash u1004.kinzi
Ligature2: "cligContextualLigaturesinMyanma subtable" u1004 u103A u1039
Ligature2: "cligContextualLigaturesinMyanma subtable" u105A u103A u1039
MultipleSubs2: "MultipleSubstitutionlookup121 subtable" u1004.kinzi u200D
MultipleSubs2: "sub_mult_cligmymr_0 subtable" circledash u1004.kinzi
Comment: "GDL_order: 8+AAoA-mark: 80+AAoA"
EndChar

StartChar: u1004.kinzi_u102D
Encoding: 112 -1 112
Width: 55
VWidth: 0
GlyphClass: 4
Flags: HW
AnchorPoint: "Y" -35 495 mark 0
AnchorPoint: "U" -305 495 mark 0
AnchorPoint: "UM" -296 495 basemark 0
LayerCount: 2
Back
Fore
SplineSet
0 729 m 0
 0 626 -81 542 -181 542 c 0
 -282 542 -364 626 -364 729 c 0
 -364 830 -282 916 -183 916 c 0
 -81 916 0 830 0 729 c 0
-71 729 m 0
 -71 790 -120 844 -181 844 c 0
 -244 844 -293 790 -293 729 c 0
 -293 667 -243 613 -183 613 c 0
 -120 613 -71 667 -71 729 c 0
-403 597 m 0
 -424 557 -465 540 -502 540 c 0
 -560 540 -609 590 -609 648 c 0
 -609 682 -595 709 -572 729 c 0
 -594 749 -609 774 -609 809 c 0
 -609 873 -558 916 -500 916 c 0
 -459 916 -433 895 -419 870 c 0
 -466 831 l 0
 -474 844 -486 853 -502 853 c 0
 -526 853 -547 834 -547 808 c 0
 -547 783 -527 759 -502 759 c 0
 -468 759 -425 738 -403 699 c 0
 -454 672 l 0
 -467 690 -480 697 -499 697 c 0
 -521 697 -546 679 -546 649 c 0
 -546 623 -524 602 -499 602 c 0
 -481 602 -468 608 -454 627 c 0
 -403 597 l 0
EndSplineSet
Ligature2: "LigatureSubstitutionlookup182 subtable" u1004.kinzi_u102D u102F
Ligature2: "sub_ligature_cligmymr_8 subtable" u1004.kinzi u102D
Ligature2: "sub_ligature_cligmymr_6 subtable" u1004.kinzi_u102D u200C u102D
Position2: "Single Positioning lookup 43 subtable" dx=180 dy=0 dh=0 dv=0
Comment: "GDL_order: 8+AAoA-mark: 80+AAoA"
EndChar

StartChar: u1004.kinzi_u102E
Encoding: 113 -1 113
Width: 55
VWidth: 0
GlyphClass: 4
Flags: HW
AnchorPoint: "Y" -35 495 mark 0
AnchorPoint: "U" -305 495 mark 0
AnchorPoint: "UM" -296 495 basemark 0
LayerCount: 2
Back
Fore
SplineSet
0 729 m 0
 0 626 -81 543 -181 543 c 0
 -282 543 -364 627 -364 730 c 0
 -364 832 -282 917 -183 917 c 0
 -81 917 0 830 0 729 c 0
-73 717 m 0
 -71 724 -71 732 -71 739 c 0
 -75 795 -122 845 -181 845 c 0
 -240 845 -291 795 -293 737 c 0
 -293 730 -292 725 -290 717 c 0
 -253 746 -216 753 -181 753 c 0
 -149 753 -108 744 -73 717 c 0
-93 660 m 0
 -119 684 -154 694 -181 694 c 0
 -208 694 -241 683 -270 659 c 0
 -250 633 -218 615 -183 615 c 0
 -146 615 -114 632 -93 660 c 0
-403 598 m 0
 -424 558 -465 541 -502 541 c 0
 -560 541 -609 591 -609 649 c 0
 -609 683 -595 710 -572 730 c 0
 -594 749 -609 775 -609 809 c 0
 -609 873 -558 916 -500 916 c 0
 -459 916 -433 895 -419 871 c 0
 -466 832 l 0
 -474 844 -486 854 -502 854 c 0
 -526 854 -547 835 -547 809 c 0
 -547 784 -526 760 -502 760 c 0
 -468 760 -425 739 -403 700 c 0
 -454 673 l 0
 -467 691 -480 698 -499 698 c 0
 -521 698 -546 680 -546 649 c 0
 -546 624 -524 602 -499 602 c 0
 -481 602 -468 609 -454 628 c 0
 -403 598 l 0
EndSplineSet
Ligature2: "sub_ligature_cligmymr_8 subtable" u1004.kinzi u102E
Ligature2: "sub_ligature_cligmymr_6 subtable" u1004.kinzi_u102E u200C u102E
Position2: "Single Positioning lookup 43 subtable" dx=180 dy=0 dh=0 dv=0
Comment: "GDL_order: 8+AAoA-mark: 80+AAoA"
EndChar

StartChar: u1004.kinzi_u1032
Encoding: 114 -1 114
Width: 55
VWidth: 0
GlyphClass: 4
Flags: HW
AnchorPoint: "U" -305 476 mark 0
AnchorPoint: "UM" -296 495 basemark 0
LayerCount: 2
Back
Fore
SplineSet
0 626 m 0
 -44 568 l 0
 -347 809 l 0
 -306 867 l 0
 0 626 l 0
-403 598 m 0
 -424 558 -465 541 -502 541 c 0
 -560 541 -609 591 -609 649 c 0
 -609 683 -595 710 -572 730 c 0
 -594 749 -609 775 -609 809 c 0
 -609 873 -558 916 -500 916 c 0
 -459 916 -433 895 -419 871 c 0
 -466 832 l 0
 -474 844 -486 854 -502 854 c 0
 -526 854 -547 835 -547 809 c 0
 -547 784 -526 760 -502 760 c 0
 -468 760 -425 739 -403 700 c 0
 -454 673 l 0
 -467 691 -480 698 -499 698 c 0
 -521 698 -546 680 -546 649 c 0
 -546 624 -524 602 -499 602 c 0
 -481 602 -468 609 -454 628 c 0
 -403 598 l 0
EndSplineSet
Ligature2: "sub_ligature_cligmymr_8 subtable" u1004.kinzi u1032
Comment: "GDL_order: 8+AAoA-mark: 80+AAoA"
EndChar

StartChar: u1004.kinzi_u1033
Encoding: 115 -1 115
Width: 55
VWidth: 0
GlyphClass: 4
Flags: HW
AnchorPoint: "Y" -35 495 mark 0
AnchorPoint: "U" -305 495 mark 0
AnchorPoint: "UM" -296 495 basemark 0
LayerCount: 2
Back
Fore
SplineSet
0 730 m 0
 0 627 -80 543 -180 543 c 0
 -283 543 -365 627 -365 730 c 0
 -365 831 -283 917 -183 917 c 0
 -80 917 0 831 0 730 c 0
-71 730 m 0
 -71 791 -120 846 -180 846 c 0
 -244 846 -293 791 -293 730 c 0
 -293 668 -243 615 -183 615 c 0
 -120 615 -71 668 -71 730 c 0
-123 730 m 0
 -123 698 -148 670 -180 670 c 0
 -213 670 -239 698 -239 730 c 0
 -239 761 -213 790 -180 790 c 0
 -148 790 -123 761 -123 730 c 0
-165 730 m 0
 -165 738 -172 746 -180 746 c 0
 -189 746 -197 738 -197 730 c 0
 -197 721 -189 714 -180 714 c 0
 -172 714 -165 721 -165 730 c 0
-403 598 m 0
 -424 558 -465 541 -502 541 c 0
 -560 541 -609 591 -609 649 c 0
 -609 683 -595 710 -572 730 c 0
 -594 749 -609 775 -609 809 c 0
 -609 873 -558 916 -500 916 c 0
 -459 916 -433 895 -419 871 c 0
 -466 832 l 0
 -474 844 -486 854 -502 854 c 0
 -526 854 -547 835 -547 809 c 0
 -547 784 -526 760 -502 760 c 0
 -468 760 -425 739 -403 700 c 0
 -454 673 l 0
 -467 691 -480 698 -499 698 c 0
 -521 698 -546 680 -546 649 c 0
 -546 624 -524 602 -499 602 c 0
 -481 602 -468 609 -454 628 c 0
 -403 598 l 0
EndSplineSet
Ligature2: "sub_ligature_cligmymr_8 subtable" u1004.kinzi u1033
Position2: "Single Positioning lookup 43 subtable" dx=180 dy=0 dh=0 dv=0
Comment: "GDL_order: 8+AAoA-mark: 80+AAoA"
EndChar

StartChar: u1004.kinzi_u1036
Encoding: 116 -1 116
Width: 55
VWidth: 0
GlyphClass: 4
Flags: HW
AnchorPoint: "U" -233 495 mark 0
AnchorPoint: "UM" -258 495 basemark 0
LayerCount: 2
Back
Fore
SplineSet
0 680 m 0
 0 625 -46 581 -99 581 c 0
 -152 581 -198 625 -198 680 c 0
 -198 734 -152 778 -99 778 c 0
 -46 778 0 734 0 680 c 0
-54 680 m 0
 -54 703 -74 723 -99 723 c 0
 -126 723 -144 703 -144 680 c 0
 -144 657 -126 633 -99 633 c 0
 -74 633 -54 655 -54 680 c 0
-213 599 m 0
 -235 559 -275 541 -312 541 c 0
 -371 541 -419 591 -419 649 c 0
 -419 684 -406 710 -382 731 c 0
 -405 750 -419 775 -419 810 c 0
 -419 874 -368 917 -310 917 c 0
 -270 917 -243 896 -229 872 c 0
 -277 832 l 0
 -284 845 -296 855 -312 855 c 0
 -336 855 -358 836 -358 810 c 0
 -358 785 -337 760 -312 760 c 0
 -279 760 -235 739 -213 701 c 0
 -264 673 l 0
 -277 691 -291 698 -309 698 c 0
 -331 698 -356 680 -356 650 c 0
 -356 625 -334 603 -309 603 c 0
 -291 603 -278 610 -264 629 c 0
 -213 599 l 0
EndSplineSet
Ligature2: "sub_ligature_cligmymr_8 subtable" u1004.kinzi u1036
Ligature2: "sub_ligature_cligmymr_6 subtable" u1004.kinzi_u1036 u200C u1036
Position2: "Single Positioning lookup 43 subtable" dx=180 dy=0 dh=0 dv=0
Comment: "GDL_order: 10+AAoA-mark: 80+AAoA"
EndChar

StartChar: u1004.kinzi_u103A
Encoding: 117 -1 117
Width: 55
VWidth: 0
GlyphClass: 4
Flags: HW
AnchorPoint: "Y" -35 495 mark 0
AnchorPoint: "U" -305 495 mark 0
AnchorPoint: "UM" -296 495 basemark 0
LayerCount: 2
Back
Fore
SplineSet
0 838 m 0
 -51 796 l 0
 -67 822 -99 847 -135 847 c 0
 -186 847 -251 808 -251 731 c 0
 -251 646 -168 609 -135 609 c 0
 -135 537 l 0
 -222 537 -322 618 -322 731 c 0
 -322 845 -229 918 -135 918 c 0
 -89 918 -32 894 0 838 c 0
-403 598 m 0
 -424 558 -465 541 -502 541 c 0
 -560 541 -609 591 -609 649 c 0
 -609 683 -595 710 -572 730 c 0
 -594 749 -609 775 -609 809 c 0
 -609 873 -558 916 -500 916 c 0
 -459 916 -433 895 -419 871 c 0
 -466 832 l 0
 -474 844 -486 854 -502 854 c 0
 -526 854 -547 835 -547 809 c 0
 -547 784 -527 760 -502 760 c 0
 -468 760 -425 739 -403 700 c 0
 -454 673 l 0
 -467 691 -480 698 -499 698 c 0
 -521 698 -546 680 -546 649 c 0
 -546 624 -524 602 -499 602 c 0
 -481 602 -468 609 -454 628 c 0
 -403 598 l 0
EndSplineSet
Ligature2: "sub_ligature_cligmymr_8 subtable" u1004.kinzi u103A
Position2: "Single Positioning lookup 43 subtable" dx=180 dy=0 dh=0 dv=0
Comment: "GDL_order: 8+AAoA-mark: 80+AAoA"
EndChar

StartChar: u1004.kinzi_u102D_u1036
Encoding: 118 -1 118
Width: 55
VWidth: 0
GlyphClass: 4
Flags: HW
AnchorPoint: "Y" -83 495 mark 0
AnchorPoint: "U" -404 495 mark 0
AnchorPoint: "UM" -376 495 basemark 0
LayerCount: 2
Back
Fore
SplineSet
-213 729 m 0
 -213 626 -293 542 -394 542 c 0
 -495 542 -577 626 -577 729 c 0
 -577 830 -495 916 -396 916 c 0
 -293 916 -213 830 -213 729 c 0
-284 729 m 0
 -284 790 -333 844 -394 844 c 0
 -456 844 -506 790 -506 729 c 0
 -506 667 -456 613 -396 613 c 0
 -333 613 -284 667 -284 729 c 0
0 646 m 0
 0 591 -46 547 -99 547 c 0
 -152 547 -198 591 -198 646 c 0
 -198 699 -152 744 -99 744 c 0
 -46 744 0 699 0 646 c 0
-54 646 m 0
 -54 668 -74 689 -99 689 c 0
 -126 689 -144 668 -144 646 c 0
 -144 622 -126 599 -99 599 c 0
 -74 599 -54 620 -54 646 c 0
-616 598 m 0
 -637 558 -677 541 -714 541 c 0
 -773 541 -822 591 -822 649 c 0
 -822 683 -808 710 -784 730 c 0
 -807 749 -822 775 -822 809 c 0
 -822 873 -771 916 -713 916 c 0
 -672 916 -646 895 -631 871 c 0
 -679 832 l 0
 -686 844 -698 854 -715 854 c 0
 -739 854 -760 835 -760 809 c 0
 -760 784 -739 760 -714 760 c 0
 -681 760 -638 739 -616 700 c 0
 -667 673 l 0
 -680 691 -693 698 -712 698 c 0
 -734 698 -759 680 -759 649 c 0
 -759 624 -736 602 -712 602 c 0
 -694 602 -680 609 -667 628 c 0
 -616 598 l 0
EndSplineSet
Ligature2: "sub_ligature_cligmymr_8 subtable" u1004.kinzi u102D_u1036
Comment: "GDL_order: 8+AAoA-mark: 80+AAoA"
EndChar

StartChar: u1005
Encoding: 119 4101 119
Width: 586
VWidth: 0
GlyphClass: 2
Flags: HW
AnchorPoint: "R" 0 0 mark 0
AnchorPoint: "BS" 292 -53 basechar 0
AnchorPoint: "L" 292 -53 basechar 0
AnchorPoint: "U" 292 495 basechar 0
AnchorPoint: "BD" 288 -53 basechar 0
LayerCount: 2
Back
Fore
SplineSet
530 222 m 0
 530 88 425 -20 292 -20 c 0
 162 -20 55 88 55 222 c 0
 55 354 161 464 291 464 c 0
 425 464 530 354 530 222 c 0
437 222 m 0
 437 298 377 368 300 370 c 0
 292 370 284 369 276 366 c 0
 316 318 326 265 326 222 c 0
 326 177 313 125 276 77 c 0
 285 75 292 73 299 73 c 0
 375 79 437 143 437 222 c 0
247 222 m 0
 247 257 235 299 202 337 c 0
 170 310 148 268 148 222 c 0
 148 174 169 133 202 106 c 0
 233 143 247 184 247 222 c 0
EndSplineSet
Ligature2: "LigatureSubstitutionlookup169 subtable" u1005 u103C
Ligature2: "LigatureSubstitutionlookup167 subtable" u1005 u103C u1031
Ligature2: "LigatureSubstitutionlookup167 subtable" u1005 u103C.wide u1031
Ligature2: "LigatureSubstitutionlookup167 subtable" u1005 u103C_u103D.narr u1031
Ligature2: "LigatureSubstitutionlookup167 subtable" u1005 u103C_u103D.wide u1031
Ligature2: "LigatureSubstitutionlookup165 subtable" u1005 u103C
Ligature2: "LigatureSubstitutionlookup165 subtable" u1005 u103C_u103D.narr
Ligature2: "LigatureSubstitutionlookup165 subtable" u1005 u103C_u102F.narr
Ligature2: "LigatureSubstitutionlookup163 subtable" u1005 u1031
Ligature2: "LigatureSubstitutionlookup163 subtable" u1005 u1084
Ligature2: "LigatureSubstitutionlookup162 subtable" u1005 u103D
Ligature2: "LigatureSubstitutionlookup162 subtable" u1005 u103E
Ligature2: "LigatureSubstitutionlookup162 subtable" u1005 u103D_u103E
Ligature2: "LigatureSubstitutionlookup162 subtable" u1005
Ligature2: "LigatureSubstitutionlookup162 subtable" u1005 u105F
Ligature2: "LigatureSubstitutionlookup162 subtable" u1005 u1060
Ligature2: "LigatureSubstitutionlookup162 subtable" u1005 u1082
Ligature2: "LigatureSubstitutionlookup158 subtable" u1005 u1039
Ligature2: "LigatureSubstitutionlookup130 subtable" u1004.kinzi u200D u1005
Ligature2: "LigatureSubstitutionlookup130 subtable" u101B.kinzi u200D u1005
Ligature2: "LigatureSubstitutionlookup127 subtable" u1004.kinzi u200D u1005
Ligature2: "LigatureSubstitutionlookup127 subtable" u101B.kinzi u200D u1005
Ligature2: "LigatureSubstitutionlookup124 subtable" u1004.kinzi u200D u1005
Ligature2: "LigatureSubstitutionlookup124 subtable" u101B.kinzi u200D u1005
MultipleSubs2: "MultipleSubstitutionlookup139 subtable" u200C u1031 u1005
MultipleSubs2: "MultipleSubstitutionlookup137 subtable" u200C u1084 u1005
MultipleSubs2: "MultipleSubstitutionlookup136 subtable" u200C u103C_u103D.narr u1005
MultipleSubs2: "MultipleSubstitutionlookup135 subtable" u200C u103C_u102F.narr u1005
MultipleSubs2: "MultipleSubstitutionlookup134 subtable" u200C u103C u1005
MultipleSubs2: "MultipleSubstitutionlookup129 subtable" u1005 u101B.kinzi
MultipleSubs2: "MultipleSubstitutionlookup128 subtable" u1005 u1004.kinzi
PairPos2: "PairwisePositioningkerninglooku subtable" uAA60.med.kham dx=-90 dy=0 dh=0 dv=0 dx=0 dy=0 dh=90 dv=0
PairPos2: "PairwisePositioningkerninglooku subtable" uAA60.med dx=-90 dy=0 dh=0 dv=0 dx=0 dy=0 dh=90 dv=0
PairPos2: "PairwisePositioningkerninglooku subtable" u1021.med dx=-90 dy=0 dh=0 dv=0 dx=0 dy=0 dh=90 dv=0
PairPos2: "PairwisePositioningkerninglooku subtable" u101E.med dx=-90 dy=0 dh=0 dv=0 dx=0 dy=0 dh=90 dv=0
PairPos2: "PairwisePositioningkerninglooku subtable" u101C.med dx=-90 dy=0 dh=0 dv=0 dx=0 dy=0 dh=90 dv=0
PairPos2: "PairwisePositioningkerninglooku subtable" u101A.med dx=-90 dy=0 dh=0 dv=0 dx=0 dy=0 dh=90 dv=0
PairPos2: "PairwisePositioningkerninglooku subtable" u1018.med dx=-90 dy=0 dh=0 dv=0 dx=0 dy=0 dh=90 dv=0
PairPos2: "PairwisePositioningkerninglooku subtable" u1011.med dx=-90 dy=0 dh=0 dv=0 dx=0 dy=0 dh=90 dv=0
PairPos2: "PairwisePositioningkerninglooku subtable" u1010.med dx=-90 dy=0 dh=0 dv=0 dx=0 dy=0 dh=90 dv=0
PairPos2: "PairwisePositioningkerninglooku subtable" u100F.med dx=-90 dy=0 dh=0 dv=0 dx=0 dy=0 dh=90 dv=0
PairPos2: "PairwisePositioningkerninglooku subtable" u100C.med dx=-90 dy=0 dh=0 dv=0 dx=0 dy=0 dh=90 dv=0
PairPos2: "PairwisePositioningkerninglooku subtable" u100A.med dx=-90 dy=0 dh=0 dv=0 dx=0 dy=0 dh=90 dv=0
PairPos2: "PairwisePositioningkerninglooku subtable" u1006.med dx=-90 dy=0 dh=0 dv=0 dx=0 dy=0 dh=90 dv=0
PairPos2: "PairwisePositioningkerninglooku subtable" u1003.med dx=-90 dy=0 dh=0 dv=0 dx=0 dy=0 dh=90 dv=0
PairPos2: "PairwisePositioningkerninglooku subtable" u1000.med dx=-90 dy=0 dh=0 dv=0 dx=0 dy=0 dh=90 dv=0
Position2: "SinglePositioninglookup48 per glyph data 0" dx=100 dy=0 dh=50 dv=0
Position2: "SinglePositioninglookup30 subtable" dx=140 dy=0 dh=140 dv=0
Comment: "GDL_order: 1+AAoA-mark: 80+AAoA"
EndChar

StartChar: u1005.med
Encoding: 120 -1 120
Width: 0
VWidth: 0
GlyphClass: 4
Flags: HW
AnchorPoint: "BS" -237 -53 mark 0
AnchorPoint: "LLM" -576 -53 basemark 0
AnchorPoint: "BSM" -237 -53 mark 0
AnchorPoint: "LM" 100 -53 basemark 0
AnchorPoint: "BS" 234 -53 basemark 0
AnchorPoint: "BSM" 556 -53 basemark 0
LayerCount: 2
Back
Fore
SplineSet
-55 -277 m 0
 -55 -380 -137 -464 -236 -464 c 0
 -338 -464 -420 -380 -420 -277 c 0
 -420 -175 -338 -90 -238 -90 c 0
 -137 -90 -55 -175 -55 -277 c 0
-126 -277 m 0
 -126 -218 -172 -165 -231 -162 c 0
 -238 -162 -243 -163 -249 -165 c 0
 -219 -202 -211 -242 -211 -277 c 0
 -211 -310 -223 -354 -250 -390 c 0
 -244 -392 -239 -393 -232 -393 c 0
 -172 -390 -126 -336 -126 -277 c 0
-270 -277 m 0
 -270 -250 -281 -216 -305 -187 c 0
 -333 -208 -349 -240 -349 -277 c 0
 -349 -313 -333 -346 -305 -367 c 0
 -282 -338 -270 -305 -270 -277 c 0
EndSplineSet
Ligature2: "LigatureSubstitutionlookup179 subtable" u1005.med u102D
Ligature2: "LigatureSubstitutionlookup179 subtable" u1005.med u102E
Ligature2: "LigatureSubstitutionlookup179 subtable" u1005.med u1032
Ligature2: "LigatureSubstitutionlookup179 subtable" u1005.med u103A
Ligature2: "LigatureSubstitutionlookup171 subtable" u1005.med u103C u1031
Ligature2: "LigatureSubstitutionlookup159 subtable" u1005.med u1031
Ligature2: "LigatureSubstitutionlookup159 subtable" u1005.med u103C
Ligature2: "sub_ligature_cligmymr_0 subtable" u1039 u1005
MultipleSubs2: "MultipleSubstitutionlookup138 subtable" u1039 u1005.med
Comment: "GDL_order: 2+AAoA-mark: 80+AAoA"
EndChar

StartChar: u1006
Encoding: 121 4102 121
Width: 974
VWidth: 0
GlyphClass: 2
Flags: HW
AnchorPoint: "R" 0 0 mark 0
AnchorPoint: "BS" 682 -53 basechar 0
AnchorPoint: "L" 682 -53 basechar 0
AnchorPoint: "BD" 490 -53 basechar 0
AnchorPoint: "U" 682 495 basechar 0
LayerCount: 2
Back
Fore
SplineSet
919 222 m 0
 919 88 811 -20 682 -20 c 0
 601 -20 531 20 490 81 c 0
 449 21 379 -20 294 -20 c 0
 197 -20 61 51 56 179 c 0
 128 224 192 239 237 239 c 0
 295 239 372 211 422 153 c 0
 435 173 443 195 443 222 c 0
 443 271 401 370 294 370 c 0
 245 370 197 351 154 288 c 0
 73 331 l 0
 113 417 206 464 294 464 c 0
 381 464 449 421 489 361 c 0
 531 423 601 464 682 464 c 0
 813 464 919 354 919 222 c 0
826 222 m 0
 826 302 761 370 682 370 c 0
 601 370 536 302 536 222 c 0
 536 140 603 73 682 73 c 0
 762 73 826 140 826 222 c 0
369 92 m 0
 340 131 292 160 238 160 c 0
 213 160 190 155 159 144 c 0
 200 89 253 73 294 73 c 0
 323 73 346 80 369 92 c 0
EndSplineSet
Ligature2: "LigatureSubstitutionlookup169 subtable" u1006 u103C
Ligature2: "LigatureSubstitutionlookup167 subtable" u1006 u103C u1031
Ligature2: "LigatureSubstitutionlookup167 subtable" u1006 u103C.wide u1031
Ligature2: "LigatureSubstitutionlookup167 subtable" u1006 u103C_u103D.narr u1031
Ligature2: "LigatureSubstitutionlookup167 subtable" u1006 u103C_u103D.wide u1031
Ligature2: "LigatureSubstitutionlookup165 subtable" u1006 u103C
Ligature2: "LigatureSubstitutionlookup165 subtable" u1006 u103C_u103D.narr
Ligature2: "LigatureSubstitutionlookup165 subtable" u1006 u103C_u102F.narr
Ligature2: "LigatureSubstitutionlookup163 subtable" u1006 u1031
Ligature2: "LigatureSubstitutionlookup163 subtable" u1006 u1084
Ligature2: "LigatureSubstitutionlookup162 subtable" u1006 u103D
Ligature2: "LigatureSubstitutionlookup162 subtable" u1006 u103E
Ligature2: "LigatureSubstitutionlookup162 subtable" u1006 u103D_u103E
Ligature2: "LigatureSubstitutionlookup162 subtable" u1006
Ligature2: "LigatureSubstitutionlookup162 subtable" u1006 u105F
Ligature2: "LigatureSubstitutionlookup162 subtable" u1006 u1060
Ligature2: "LigatureSubstitutionlookup162 subtable" u1006 u1082
Ligature2: "LigatureSubstitutionlookup158 subtable" u1006 u1039
Ligature2: "LigatureSubstitutionlookup130 subtable" u1004.kinzi u200D u1006
Ligature2: "LigatureSubstitutionlookup130 subtable" u101B.kinzi u200D u1006
Ligature2: "LigatureSubstitutionlookup127 subtable" u1004.kinzi u200D u1006
Ligature2: "LigatureSubstitutionlookup127 subtable" u101B.kinzi u200D u1006
Ligature2: "LigatureSubstitutionlookup124 subtable" u1004.kinzi u200D u1006
Ligature2: "LigatureSubstitutionlookup124 subtable" u101B.kinzi u200D u1006
MultipleSubs2: "MultipleSubstitutionlookup139 subtable" u200C u1031 u1006
MultipleSubs2: "MultipleSubstitutionlookup137 subtable" u200C u1084 u1006
MultipleSubs2: "MultipleSubstitutionlookup136 subtable" u200C u103C_u103D.wide u1006
MultipleSubs2: "MultipleSubstitutionlookup135 subtable" u200C u103C_u102F.wide u1006
MultipleSubs2: "MultipleSubstitutionlookup134 subtable" u200C u103C.wide u1006
MultipleSubs2: "MultipleSubstitutionlookup129 subtable" u1006 u101B.kinzi
MultipleSubs2: "MultipleSubstitutionlookup128 subtable" u1006 u1004.kinzi
Comment: "GDL_order: 1+AAoA-mark: 80+AAoA"
EndChar

StartChar: u1006.med
Encoding: 122 -1 122
Width: 0
VWidth: 0
GlyphClass: 4
Flags: HW
AnchorPoint: "LLM" -877 -53 basemark 0
AnchorPoint: "BD" -388 -53 mark 0
AnchorPoint: "BSM" 98 -53 basemark 0
AnchorPoint: "LM" 100 -53 basemark 0
AnchorPoint: "BSM" 877 -53 mark 0
AnchorPoint: "BDM" -395 -53 mark 0
AnchorPoint: "BD" 394 -53 basemark 0
LayerCount: 2
Back
Fore
SplineSet
-56 -277 m 0
 -56 -380 -137 -464 -237 -464 c 0
 -300 -464 -353 -432 -386 -386 c 0
 -418 -432 -471 -464 -536 -464 c 0
 -627 -464 -716 -395 -720 -310 c 0
 -662 -274 -615 -263 -581 -263 c 0
 -536 -263 -474 -287 -438 -330 c 0
 -427 -314 -421 -296 -421 -277 c 0
 -421 -239 -453 -162 -536 -162 c 0
 -569 -162 -608 -175 -643 -226 c 0
 -707 -192 l 0
 -665 -111 -581 -90 -536 -90 c 0
 -470 -90 -417 -123 -386 -170 c 0
 -354 -121 -300 -90 -237 -90 c 0
 -135 -90 -56 -175 -56 -277 c 0
-127 -277 m 0
 -127 -216 -176 -162 -237 -162 c 0
 -300 -162 -349 -216 -349 -277 c 0
 -349 -338 -298 -393 -237 -393 c 0
 -176 -393 -127 -338 -127 -277 c 0
-477 -377 m 0
 -497 -345 -538 -322 -581 -322 c 0
 -599 -322 -618 -327 -640 -335 c 0
 -612 -378 -567 -393 -536 -393 c 0
 -514 -393 -495 -385 -477 -377 c 0
EndSplineSet
Ligature2: "LigatureSubstitutionlookup179 subtable" u1006.med u102D
Ligature2: "LigatureSubstitutionlookup179 subtable" u1006.med u102E
Ligature2: "LigatureSubstitutionlookup179 subtable" u1006.med u1032
Ligature2: "LigatureSubstitutionlookup179 subtable" u1006.med u103A
Ligature2: "LigatureSubstitutionlookup171 subtable" u1006.med u103C u1031
Ligature2: "LigatureSubstitutionlookup159 subtable" u1006.med u1031
Ligature2: "LigatureSubstitutionlookup159 subtable" u1006.med u103C
Ligature2: "sub_ligature_cligmymr_0 subtable" u1039 u1006
MultipleSubs2: "MultipleSubstitutionlookup138 subtable" u1039 u1006.med
LCarets2: 2 0 0
Comment: "GDL_order: 2+AAoA-mark: 80+AAoA"
EndChar

StartChar: u1007
Encoding: 123 4103 123
Width: 635
VWidth: 0
GlyphClass: 2
Flags: HW
AnchorPoint: "R" 0 0 mark 0
AnchorPoint: "BS" 293 -53 basechar 0
AnchorPoint: "L" 293 -53 basechar 0
AnchorPoint: "U" 295 495 basechar 0
AnchorPoint: "BD" 286 -53 basechar 0
LayerCount: 2
Back
Fore
SplineSet
594 152 m 0
 527 103 l 0
 515 126 494 165 480 185 c 0
 454 156 415 143 377 143 c 0
 319 143 264 180 264 243 c 0
 264 289 292 337 356 345 c 0
 362 345 370 344 377 340 c 0
 360 358 334 374 294 374 c 0
 220 374 148 300 148 222 c 0
 148 139 212 73 293 73 c 0
 346 73 381 86 410 109 c 0
 475 43 l 0
 433 1 386 -20 293 -20 c 0
 163 -20 55 88 55 222 c 0
 55 353 167 464 293 464 c 0
 396 464 497 406 509 295 c 0
 535 264 570 202 594 152 c 0
432 252 m 0
 414 272 401 276 373 276 c 0
 352 276 337 265 337 243 c 0
 337 223 361 216 377 216 c 0
 405 216 428 226 432 252 c 0
EndSplineSet
Ligature2: "LigatureSubstitutionlookup169 subtable" u1007 u103C
Ligature2: "LigatureSubstitutionlookup167 subtable" u1007 u103C u1031
Ligature2: "LigatureSubstitutionlookup167 subtable" u1007 u103C.wide u1031
Ligature2: "LigatureSubstitutionlookup167 subtable" u1007 u103C_u103D.narr u1031
Ligature2: "LigatureSubstitutionlookup167 subtable" u1007 u103C_u103D.wide u1031
Ligature2: "LigatureSubstitutionlookup165 subtable" u1007 u103C
Ligature2: "LigatureSubstitutionlookup165 subtable" u1007 u103C_u103D.narr
Ligature2: "LigatureSubstitutionlookup165 subtable" u1007 u103C_u102F.narr
Ligature2: "LigatureSubstitutionlookup163 subtable" u1007 u1031
Ligature2: "LigatureSubstitutionlookup163 subtable" u1007 u1084
Ligature2: "LigatureSubstitutionlookup162 subtable" u1007 u103D
Ligature2: "LigatureSubstitutionlookup162 subtable" u1007 u103E
Ligature2: "LigatureSubstitutionlookup162 subtable" u1007 u103D_u103E
Ligature2: "LigatureSubstitutionlookup162 subtable" u1007
Ligature2: "LigatureSubstitutionlookup162 subtable" u1007 u105F
Ligature2: "LigatureSubstitutionlookup162 subtable" u1007 u1060
Ligature2: "LigatureSubstitutionlookup162 subtable" u1007 u1082
Ligature2: "LigatureSubstitutionlookup158 subtable" u1007 u1039
Ligature2: "LigatureSubstitutionlookup130 subtable" u1004.kinzi u200D u1007
Ligature2: "LigatureSubstitutionlookup130 subtable" u101B.kinzi u200D u1007
Ligature2: "LigatureSubstitutionlookup127 subtable" u1004.kinzi u200D u1007
Ligature2: "LigatureSubstitutionlookup127 subtable" u101B.kinzi u200D u1007
Ligature2: "LigatureSubstitutionlookup124 subtable" u1004.kinzi u200D u1007
Ligature2: "LigatureSubstitutionlookup124 subtable" u101B.kinzi u200D u1007
MultipleSubs2: "MultipleSubstitutionlookup139 subtable" u200C u1031 u1007
MultipleSubs2: "MultipleSubstitutionlookup137 subtable" u200C u1084 u1007
MultipleSubs2: "MultipleSubstitutionlookup136 subtable" u200C u103C_u103D.narr u1007
MultipleSubs2: "MultipleSubstitutionlookup135 subtable" u200C u103C_u102F.narr u1007
MultipleSubs2: "MultipleSubstitutionlookup134 subtable" u200C u103C u1007
MultipleSubs2: "MultipleSubstitutionlookup129 subtable" u1007 u101B.kinzi
MultipleSubs2: "MultipleSubstitutionlookup128 subtable" u1007 u1004.kinzi
PairPos2: "PairwisePositioningkerninglooku subtable" uAA60.med.kham dx=-90 dy=0 dh=0 dv=0 dx=0 dy=0 dh=90 dv=0
PairPos2: "PairwisePositioningkerninglooku subtable" uAA60.med dx=-90 dy=0 dh=0 dv=0 dx=0 dy=0 dh=90 dv=0
PairPos2: "PairwisePositioningkerninglooku subtable" u1021.med dx=-90 dy=0 dh=0 dv=0 dx=0 dy=0 dh=90 dv=0
PairPos2: "PairwisePositioningkerninglooku subtable" u101E.med dx=-90 dy=0 dh=0 dv=0 dx=0 dy=0 dh=90 dv=0
PairPos2: "PairwisePositioningkerninglooku subtable" u101C.med dx=-90 dy=0 dh=0 dv=0 dx=0 dy=0 dh=90 dv=0
PairPos2: "PairwisePositioningkerninglooku subtable" u101A.med dx=-90 dy=0 dh=0 dv=0 dx=0 dy=0 dh=90 dv=0
PairPos2: "PairwisePositioningkerninglooku subtable" u1018.med dx=-90 dy=0 dh=0 dv=0 dx=0 dy=0 dh=90 dv=0
PairPos2: "PairwisePositioningkerninglooku subtable" u1011.med dx=-90 dy=0 dh=0 dv=0 dx=0 dy=0 dh=90 dv=0
PairPos2: "PairwisePositioningkerninglooku subtable" u1010.med dx=-90 dy=0 dh=0 dv=0 dx=0 dy=0 dh=90 dv=0
PairPos2: "PairwisePositioningkerninglooku subtable" u100F.med dx=-90 dy=0 dh=0 dv=0 dx=0 dy=0 dh=90 dv=0
PairPos2: "PairwisePositioningkerninglooku subtable" u100C.med dx=-90 dy=0 dh=0 dv=0 dx=0 dy=0 dh=90 dv=0
PairPos2: "PairwisePositioningkerninglooku subtable" u100A.med dx=-90 dy=0 dh=0 dv=0 dx=0 dy=0 dh=90 dv=0
PairPos2: "PairwisePositioningkerninglooku subtable" u1006.med dx=-90 dy=0 dh=0 dv=0 dx=0 dy=0 dh=90 dv=0
PairPos2: "PairwisePositioningkerninglooku subtable" u1003.med dx=-90 dy=0 dh=0 dv=0 dx=0 dy=0 dh=90 dv=0
PairPos2: "PairwisePositioningkerninglooku subtable" u1000.med dx=-90 dy=0 dh=0 dv=0 dx=0 dy=0 dh=90 dv=0
Position2: "SinglePositioninglookup48 per glyph data 0" dx=100 dy=0 dh=50 dv=0
Position2: "SinglePositioninglookup30 subtable" dx=140 dy=0 dh=140 dv=0
Comment: "GDL_order: 1+AAoA-mark: 80+AAoA"
EndChar

StartChar: u1007.med
Encoding: 124 -1 124
Width: 0
VWidth: 0
GlyphClass: 4
Flags: HW
AnchorPoint: "BS" -290 -53 mark 0
AnchorPoint: "LLM" -628 -53 basemark 0
AnchorPoint: "BSM" -290 -53 mark 0
AnchorPoint: "LM" 43 -53 basemark 0
AnchorPoint: "BS" 224 -53 basemark 0
AnchorPoint: "BSM" 532 -53 basemark 0
LayerCount: 2
Back
Fore
SplineSet
-56 -331 m 0
 -108 -369 l 0
 -117 -354 -137 -317 -144 -305 c 0
 -164 -326 -195 -338 -224 -338 c 0
 -269 -338 -311 -309 -311 -260 c 0
 -311 -225 -289 -188 -241 -182 c 0
 -235 -182 -229 -183 -224 -186 c 0
 -236 -173 -257 -161 -287 -161 c 0
 -348 -161 -401 -217 -401 -277 c 0
 -401 -340 -350 -393 -286 -393 c 0
 -248 -393 -225 -385 -198 -364 c 0
 -148 -415 l 0
 -181 -448 -220 -464 -288 -464 c 0
 -390 -464 -472 -380 -472 -277 c 0
 -472 -177 -386 -89 -288 -89 c 0
 -210 -89 -131 -135 -122 -222 c 0
 -100 -248 -79 -284 -56 -331 c 0
-181 -253 m 0
 -197 -238 -205 -235 -227 -235 c 0
 -244 -235 -254 -244 -254 -260 c 0
 -254 -273 -241 -282 -224 -282 c 0
 -201 -282 -186 -274 -181 -253 c 0
EndSplineSet
Ligature2: "LigatureSubstitutionlookup179 subtable" u1007.med u102D
Ligature2: "LigatureSubstitutionlookup179 subtable" u1007.med u102E
Ligature2: "LigatureSubstitutionlookup179 subtable" u1007.med u1032
Ligature2: "LigatureSubstitutionlookup179 subtable" u1007.med u103A
Ligature2: "LigatureSubstitutionlookup171 subtable" u1007.med u103C u1031
Ligature2: "LigatureSubstitutionlookup159 subtable" u1007.med u1031
Ligature2: "LigatureSubstitutionlookup159 subtable" u1007.med u103C
Ligature2: "sub_ligature_cligmymr_0 subtable" u1039 u1007
MultipleSubs2: "MultipleSubstitutionlookup138 subtable" u1039 u1007.med
Comment: "GDL_order: 2+AAoA-mark: 80+AAoA"
EndChar

StartChar: u1008
Encoding: 125 4104 125
Width: 799
VWidth: 0
GlyphClass: 2
Flags: HW
AnchorPoint: "R" 0 0 mark 0
AnchorPoint: "BS" 873 -53 basechar 0
AnchorPoint: "LL" 183 -53 basechar 0
AnchorPoint: "L" 873 -53 basechar 0
AnchorPoint: "U" 534 492 basechar 0
AnchorPoint: "BD" 810 -53 basechar 0
LayerCount: 2
Back
Fore
SplineSet
718 -464 m 0
 339 -372 l 0
 339 -14 l 0
 322 -18 309 -19 294 -19 c 0
 160 -19 55 88 55 223 c 0
 55 354 161 465 291 465 c 0
 426 465 530 354 530 223 c 0
 530 140 493 69 432 26 c 0
 432 -299 l 0
 625 -344 l 0
 625 459 l 0
 718 459 l 0
 718 -464 l 0
437 223 m 0
 437 302 375 368 300 372 c 0
 292 372 284 370 277 367 c 0
 316 320 326 265 326 223 c 0
 326 179 314 124 276 77 c 0
 283 74 290 73 299 73 c 0
 375 78 437 144 437 223 c 0
247 223 m 0
 247 259 236 300 202 338 c 0
 169 311 148 269 148 223 c 0
 148 174 169 134 201 107 c 0
 233 145 247 186 247 223 c 0
EndSplineSet
Ligature2: "LigatureSubstitutionlookup169 subtable" u1008 u103C
Ligature2: "LigatureSubstitutionlookup167 subtable" u1008 u103C u1031
Ligature2: "LigatureSubstitutionlookup167 subtable" u1008 u103C.wide u1031
Ligature2: "LigatureSubstitutionlookup167 subtable" u1008 u103C_u103D.narr u1031
Ligature2: "LigatureSubstitutionlookup167 subtable" u1008 u103C_u103D.wide u1031
Ligature2: "LigatureSubstitutionlookup165 subtable" u1008 u103C
Ligature2: "LigatureSubstitutionlookup165 subtable" u1008 u103C_u103D.narr
Ligature2: "LigatureSubstitutionlookup165 subtable" u1008 u103C_u102F.narr
Ligature2: "LigatureSubstitutionlookup163 subtable" u1008 u1031
Ligature2: "LigatureSubstitutionlookup163 subtable" u1008 u1084
Ligature2: "LigatureSubstitutionlookup162 subtable" u1008 u103D
Ligature2: "LigatureSubstitutionlookup162 subtable" u1008 u103E
Ligature2: "LigatureSubstitutionlookup162 subtable" u1008 u103D_u103E
Ligature2: "LigatureSubstitutionlookup162 subtable" u1008
Ligature2: "LigatureSubstitutionlookup162 subtable" u1008 u105F
Ligature2: "LigatureSubstitutionlookup162 subtable" u1008 u1060
Ligature2: "LigatureSubstitutionlookup162 subtable" u1008 u1082
Ligature2: "LigatureSubstitutionlookup158 subtable" u1008 u1039
Ligature2: "LigatureSubstitutionlookup130 subtable" u1004.kinzi u200D u1008
Ligature2: "LigatureSubstitutionlookup130 subtable" u101B.kinzi u200D u1008
Ligature2: "LigatureSubstitutionlookup127 subtable" u1004.kinzi u200D u1008
Ligature2: "LigatureSubstitutionlookup127 subtable" u101B.kinzi u200D u1008
Ligature2: "LigatureSubstitutionlookup124 subtable" u1004.kinzi u200D u1008
Ligature2: "LigatureSubstitutionlookup124 subtable" u101B.kinzi u200D u1008
MultipleSubs2: "MultipleSubstitutionlookup139 subtable" u200C u1031 u1008
MultipleSubs2: "MultipleSubstitutionlookup137 subtable" u200C u1084 u1008
MultipleSubs2: "MultipleSubstitutionlookup129 subtable" u1008 u101B.kinzi
MultipleSubs2: "MultipleSubstitutionlookup128 subtable" u1008 u1004.kinzi
Comment: "GDL_order: 1+AAoA-mark: 80+AAoA"
EndChar

StartChar: u1008.med
Encoding: 126 -1 126
Width: 204
VWidth: 0
GlyphClass: 2
Flags: HW
AnchorPoint: "BS" 304 -53 basechar 0
AnchorPoint: "L" 304 -53 basechar 0
AnchorPoint: "dot" -224 -53 basechar 0
AnchorPoint: "U" 0 495 basechar 0
LayerCount: 2
Back
Fore
SplineSet
148 -464 m 0
 -102 -400 l 0
 -133 -430 -174 -448 -222 -448 c 0
 -324 -448 -405 -365 -405 -262 c 0
 -405 -161 -330 -76 -231 -76 c 0
 -129 -76 -40 -161 -40 -262 c 0
 -40 -280 -45 -301 -53 -316 c 0
 55 -344 l 0
 55 444 l 0
 148 444 l 0
 148 -464 l 0
-112 -262 m 0
 -112 -201 -158 -150 -217 -148 c 0
 -224 -148 -230 -149 -235 -151 c 0
 -203 -186 -197 -227 -197 -262 c 0
 -197 -295 -207 -339 -235 -374 c 0
 -230 -376 -224 -377 -217 -377 c 0
 -159 -374 -112 -322 -112 -262 c 0
-255 -262 m 0
 -255 -235 -266 -200 -289 -172 c 0
 -317 -193 -334 -225 -334 -262 c 0
 -334 -298 -317 -331 -291 -352 c 0
 -266 -323 -255 -289 -255 -262 c 0
EndSplineSet
Ligature2: "LigatureSubstitutionlookup179 subtable" u1008.med u102D
Ligature2: "LigatureSubstitutionlookup179 subtable" u1008.med u102E
Ligature2: "LigatureSubstitutionlookup179 subtable" u1008.med u1032
Ligature2: "LigatureSubstitutionlookup179 subtable" u1008.med u103A
Ligature2: "LigatureSubstitutionlookup171 subtable" u1008.med u103C u1031
Ligature2: "LigatureSubstitutionlookup159 subtable" u1008.med u1031
Ligature2: "LigatureSubstitutionlookup159 subtable" u1008.med u103C
Ligature2: "sub_ligature_cligmymr_0 subtable" u1039 u1008
MultipleSubs2: "MultipleSubstitutionlookup138 subtable" u1039 u1008.med
Comment: "GDL_order: 2+AAoA-mark: 80+AAoA"
EndChar

StartChar: u1009
Encoding: 127 4105 127
Width: 575
VWidth: 0
GlyphClass: 2
Flags: HW
AnchorPoint: "R" 0 0 mark 0
AnchorPoint: "BS" 450 -53 basechar 0
AnchorPoint: "LL" 724 -53 basechar 0
AnchorPoint: "L" 295 -53 basechar 0
AnchorPoint: "U" 278 495 basechar 0
AnchorPoint: "BD" 450 -53 basechar 0
LayerCount: 2
Back
Fore
SplineSet
901 -282 m 0
 901 -345 l 0
 901 -391 894 -415 880 -432 c 0
 862 -453 839 -464 788 -464 c 0
 269 -464 l 0
 200 -464 152 -441 113 -402 c 0
 73 -362 55 -312 55 -250 c 0
 55 112 l 0
 138 156 l 0
 179 85 243 73 279 73 c 0
 361 73 426 141 426 222 c 0
 426 302 361 370 279 370 c 0
 243 370 179 356 138 288 c 0
 55 331 l 0
 102 425 199 464 279 464 c 0
 410 464 520 354 520 222 c 0
 520 88 410 -20 279 -20 c 0
 235 -20 190 -8 148 17 c 0
 148 -238 l 0
 148 -278 156 -314 180 -337 c 0
 205 -362 238 -371 283 -371 c 0
 768 -371 l 0
 802 -371 808 -362 808 -326 c 0
 808 -282 l 0
 901 -282 l 0
EndSplineSet
Substitution2: "SingleSubstitutionlookup146 subtable" u1025
Ligature2: "LigatureSubstitutionlookup169 subtable" u1009 u103C
Ligature2: "LigatureSubstitutionlookup167 subtable" u1009 u103C u1031
Ligature2: "LigatureSubstitutionlookup167 subtable" u1009 u103C.wide u1031
Ligature2: "LigatureSubstitutionlookup167 subtable" u1009 u103C_u103D.narr u1031
Ligature2: "LigatureSubstitutionlookup167 subtable" u1009 u103C_u103D.wide u1031
Ligature2: "LigatureSubstitutionlookup165 subtable" u1009 u103C
Ligature2: "LigatureSubstitutionlookup165 subtable" u1009 u103C_u103D.narr
Ligature2: "LigatureSubstitutionlookup165 subtable" u1009 u103C_u102F.narr
Ligature2: "LigatureSubstitutionlookup163 subtable" u1009 u1031
Ligature2: "LigatureSubstitutionlookup163 subtable" u1009 u1084
Ligature2: "LigatureSubstitutionlookup162 subtable" u1009 u103D
Ligature2: "LigatureSubstitutionlookup162 subtable" u1009 u103E
Ligature2: "LigatureSubstitutionlookup162 subtable" u1009 u103D_u103E
Ligature2: "LigatureSubstitutionlookup162 subtable" u1009
Ligature2: "LigatureSubstitutionlookup162 subtable" u1009 u105F
Ligature2: "LigatureSubstitutionlookup162 subtable" u1009 u1060
Ligature2: "LigatureSubstitutionlookup162 subtable" u1009 u1082
Ligature2: "LigatureSubstitutionlookup158 subtable" u1009 u1039
Ligature2: "LigatureSubstitutionlookup130 subtable" u1004.kinzi u200D u1009
Ligature2: "LigatureSubstitutionlookup130 subtable" u101B.kinzi u200D u1009
Ligature2: "LigatureSubstitutionlookup127 subtable" u1004.kinzi u200D u1009
Ligature2: "LigatureSubstitutionlookup127 subtable" u101B.kinzi u200D u1009
Ligature2: "LigatureSubstitutionlookup124 subtable" u1004.kinzi u200D u1009
Ligature2: "LigatureSubstitutionlookup124 subtable" u101B.kinzi u200D u1009
MultipleSubs2: "MultipleSubstitutionlookup139 subtable" u200C u1031 u1009
MultipleSubs2: "MultipleSubstitutionlookup137 subtable" u200C u1084 u1009
MultipleSubs2: "MultipleSubstitutionlookup129 subtable" u1009 u101B.kinzi
MultipleSubs2: "MultipleSubstitutionlookup128 subtable" u1009 u1004.kinzi
Comment: "GDL_order: 1+AAoA-mark: 80+AAoA"
EndChar

StartChar: u1009_u102C
Encoding: 128 -1 128
Width: 966
VWidth: 0
GlyphClass: 2
Flags: HW
AnchorPoint: "R" 0 0 mark 0
AnchorPoint: "BS" 1035 -53 basechar 0
AnchorPoint: "L" 636 -53 basechar 0
AnchorPoint: "U" 671 495 basechar 0
AnchorPoint: "BD" 1063 -53 basechar 0
LayerCount: 2
Back
Fore
SplineSet
911 222 m 0
 911 88 801 -20 671 -20 c 0
 646 -20 618 -16 600 -7 c 0
 637 78 l 0
 647 75 660 73 671 73 c 0
 751 73 818 141 818 222 c 0
 818 302 751 370 671 370 c 0
 597 370 529 289 519 221 c 0
 518 212 l 0
 515 90 411 -20 279 -20 c 0
 235 -20 188 -8 148 18 c 0
 148 -238 l 0
 148 -278 156 -314 180 -337 c 0
 205 -362 238 -371 283 -371 c 0
 762 -371 l 0
 795 -371 801 -362 801 -326 c 0
 801 -282 l 0
 894 -282 l 0
 894 -345 l 0
 894 -391 887 -415 873 -432 c 0
 856 -453 832 -464 781 -464 c 0
 268 -464 l 0
 199 -464 150 -441 112 -402 c 0
 71 -362 55 -314 55 -252 c 0
 55 112 l 0
 138 156 l 0
 169 102 218 73 279 73 c 0
 359 73 426 139 426 222 c 0
 426 302 361 370 279 370 c 0
 243 370 179 356 138 288 c 0
 55 331 l 0
 102 425 199 464 279 464 c 0
 361 464 436 419 477 353 c 0
 518 414 586 464 671 464 c 0
 801 464 911 354 911 222 c 0
EndSplineSet
Ligature2: "sub_ligature_cligmymr_4 subtable" u1009 u102C
Comment: "GDL_order: 1+AAoA-mark: 80+AAoA"
EndChar

StartChar: u100A
Encoding: 129 4106 129
Width: 966
VWidth: 0
GlyphClass: 2
Flags: HW
AnchorPoint: "R" 0 0 mark 0
AnchorPoint: "BS" 1048 -53 basechar 0
AnchorPoint: "L" 636 -53 basechar 0
AnchorPoint: "U" 671 495 basechar 0
AnchorPoint: "BD" 1063 -53 basechar 0
LayerCount: 2
Back
Fore
SplineSet
911 222 m 0
 911 90 801 -20 671 -20 c 0
 586 -20 518 29 477 90 c 0
 436 24 362 -20 279 -20 c 0
 235 -20 188 -8 148 18 c 0
 148 -238 l 0
 148 -278 156 -314 180 -337 c 0
 205 -362 238 -371 283 -371 c 0
 762 -371 l 0
 795 -371 801 -362 801 -326 c 0
 801 -282 l 0
 894 -282 l 0
 894 -345 l 0
 894 -391 887 -415 873 -432 c 0
 856 -453 832 -464 781 -464 c 0
 269 -464 l 0
 200 -464 152 -441 113 -402 c 0
 73 -362 55 -312 55 -250 c 0
 55 112 l 0
 138 156 l 0
 169 98 224 73 279 73 c 0
 361 73 426 140 426 221 c 0
 426 297 363 370 279 370 c 0
 222 370 172 345 138 288 c 0
 55 331 l 0
 102 425 199 464 279 464 c 0
 408 464 517 355 519 222 c 0
 530 152 597 73 671 73 c 0
 751 73 818 141 818 222 c 0
 818 302 751 370 671 370 c 0
 659 370 647 368 637 365 c 0
 600 450 l 0
 618 458 646 464 671 464 c 0
 802 464 911 357 911 222 c 0
EndSplineSet
Substitution2: "SingleSubstitutionlookup143 subtable" u100A.alt
Ligature2: "LigatureSubstitutionlookup169 subtable" u100A u103C
Ligature2: "LigatureSubstitutionlookup167 subtable" u100A u103C u1031
Ligature2: "LigatureSubstitutionlookup167 subtable" u100A u103C.wide u1031
Ligature2: "LigatureSubstitutionlookup167 subtable" u100A u103C_u103D.narr u1031
Ligature2: "LigatureSubstitutionlookup167 subtable" u100A u103C_u103D.wide u1031
Ligature2: "LigatureSubstitutionlookup165 subtable" u100A u103C
Ligature2: "LigatureSubstitutionlookup165 subtable" u100A u103C_u103D.narr
Ligature2: "LigatureSubstitutionlookup165 subtable" u100A u103C_u102F.narr
Ligature2: "LigatureSubstitutionlookup163 subtable" u100A u1031
Ligature2: "LigatureSubstitutionlookup163 subtable" u100A u1084
Ligature2: "LigatureSubstitutionlookup162 subtable" u100A u103D
Ligature2: "LigatureSubstitutionlookup162 subtable" u100A u103E
Ligature2: "LigatureSubstitutionlookup162 subtable" u100A u103D_u103E
Ligature2: "LigatureSubstitutionlookup162 subtable" u100A
Ligature2: "LigatureSubstitutionlookup162 subtable" u100A u105F
Ligature2: "LigatureSubstitutionlookup162 subtable" u100A u1060
Ligature2: "LigatureSubstitutionlookup162 subtable" u100A u1082
Ligature2: "LigatureSubstitutionlookup158 subtable" u100A u1039
Ligature2: "LigatureSubstitutionlookup130 subtable" u1004.kinzi u200D u100A
Ligature2: "LigatureSubstitutionlookup130 subtable" u101B.kinzi u200D u100A
Ligature2: "LigatureSubstitutionlookup127 subtable" u1004.kinzi u200D u100A
Ligature2: "LigatureSubstitutionlookup127 subtable" u101B.kinzi u200D u100A
Ligature2: "LigatureSubstitutionlookup124 subtable" u1004.kinzi u200D u100A
Ligature2: "LigatureSubstitutionlookup124 subtable" u101B.kinzi u200D u100A
MultipleSubs2: "MultipleSubstitutionlookup139 subtable" u200C u1031 u100A
MultipleSubs2: "MultipleSubstitutionlookup137 subtable" u200C u1084 u100A
MultipleSubs2: "MultipleSubstitutionlookup136 subtable" u200C u103C_u103D.wide u100A
MultipleSubs2: "MultipleSubstitutionlookup135 subtable" u200C u103C_u102F.wide u100A
MultipleSubs2: "MultipleSubstitutionlookup134 subtable" u200C u103C.wide u100A
MultipleSubs2: "MultipleSubstitutionlookup129 subtable" u100A u101B.kinzi
MultipleSubs2: "MultipleSubstitutionlookup128 subtable" u100A u1004.kinzi
Comment: "GDL_order: 1+AAoA-mark: 80+AAoA"
EndChar

StartChar: u100A.alt
Encoding: 130 -1 130
Width: 966
VWidth: 0
GlyphClass: 2
Flags: HW
AnchorPoint: "R" 0 0 mark 0
AnchorPoint: "BS" 671 -53 basechar 0
AnchorPoint: "L" 671 -53 basechar 0
AnchorPoint: "BD" 475 -53 basechar 0
AnchorPoint: "U" 671 495 basechar 0
LayerCount: 2
Back
Fore
SplineSet
911 222 m 0
 911 90 801 -20 671 -20 c 0
 586 -20 518 29 477 90 c 0
 436 24 362 -20 279 -20 c 0
 235 -20 188 -8 148 18 c 0
 148 -269 l 0
 148 -299 158 -325 175 -342 c 0
 194 -360 217 -371 248 -371 c 0
 311 -371 l 0
 311 -464 l 0
 240 -464 l 0
 189 -464 143 -442 108 -407 c 0
 73 -372 55 -327 55 -279 c 0
 55 112 l 0
 138 156 l 0
 169 98 224 73 279 73 c 0
 361 73 426 140 426 221 c 0
 426 297 363 370 279 370 c 0
 222 370 172 345 138 288 c 0
 55 331 l 0
 102 425 199 464 279 464 c 0
 408 464 517 355 519 222 c 0
 530 152 597 73 671 73 c 0
 751 73 818 141 818 222 c 0
 818 302 751 370 671 370 c 0
 659 370 647 368 637 365 c 0
 600 450 l 0
 618 458 646 464 671 464 c 0
 802 464 911 357 911 222 c 0
EndSplineSet
Ligature2: "LigatureSubstitutionlookup169 subtable" u100A.alt u103C
Ligature2: "LigatureSubstitutionlookup167 subtable" u100A.alt u103C u1031
Ligature2: "LigatureSubstitutionlookup167 subtable" u100A.alt u103C.wide u1031
Ligature2: "LigatureSubstitutionlookup167 subtable" u100A.alt u103C_u103D.narr u1031
Ligature2: "LigatureSubstitutionlookup167 subtable" u100A.alt u103C_u103D.wide u1031
Ligature2: "LigatureSubstitutionlookup165 subtable" u100A.alt u103C
Ligature2: "LigatureSubstitutionlookup165 subtable" u100A.alt u103C_u103D.narr
Ligature2: "LigatureSubstitutionlookup165 subtable" u100A.alt u103C_u102F.narr
Ligature2: "LigatureSubstitutionlookup163 subtable" u100A.alt u1031
Ligature2: "LigatureSubstitutionlookup163 subtable" u100A.alt u1084
Ligature2: "LigatureSubstitutionlookup162 subtable" u100A.alt u103D
Ligature2: "LigatureSubstitutionlookup162 subtable" u100A.alt u103E
Ligature2: "LigatureSubstitutionlookup162 subtable" u100A.alt u103D_u103E
Ligature2: "LigatureSubstitutionlookup162 subtable" u100A.alt
Ligature2: "LigatureSubstitutionlookup162 subtable" u100A.alt u105F
Ligature2: "LigatureSubstitutionlookup162 subtable" u100A.alt u1060
Ligature2: "LigatureSubstitutionlookup162 subtable" u100A.alt u1082
Ligature2: "LigatureSubstitutionlookup158 subtable" u100A.alt u1039
Ligature2: "LigatureSubstitutionlookup130 subtable" u1004.kinzi u200D u100A.alt
Ligature2: "LigatureSubstitutionlookup130 subtable" u101B.kinzi u200D u100A.alt
Ligature2: "LigatureSubstitutionlookup127 subtable" u1004.kinzi u200D u100A.alt
Ligature2: "LigatureSubstitutionlookup127 subtable" u101B.kinzi u200D u100A.alt
Ligature2: "LigatureSubstitutionlookup124 subtable" u1004.kinzi u200D u100A.alt
Ligature2: "LigatureSubstitutionlookup124 subtable" u101B.kinzi u200D u100A.alt
MultipleSubs2: "MultipleSubstitutionlookup139 subtable" u200C u1031 u100A.alt
MultipleSubs2: "MultipleSubstitutionlookup137 subtable" u200C u1084 u100A.alt
MultipleSubs2: "MultipleSubstitutionlookup136 subtable" u200C u103C_u103D.wide u100A.alt
MultipleSubs2: "MultipleSubstitutionlookup135 subtable" u200C u103C_u102F.wide u100A.alt
MultipleSubs2: "MultipleSubstitutionlookup134 subtable" u200C u103C.wide u100A.alt
MultipleSubs2: "MultipleSubstitutionlookup129 subtable" u100A.alt u101B.kinzi
MultipleSubs2: "MultipleSubstitutionlookup128 subtable" u100A.alt u1004.kinzi
Comment: "GDL_order: 1+AAoA-mark: 80+AAoA"
EndChar

StartChar: u100A.med
Encoding: 131 -1 131
Width: 0
VWidth: 0
GlyphClass: 4
Flags: HW
AnchorPoint: "LLM" -839 -53 basemark 0
AnchorPoint: "BD" -379 -53 mark 0
AnchorPoint: "BSM" 85 -53 basemark 0
AnchorPoint: "LM" 85 -53 basemark 0
AnchorPoint: "BSM" 839 -53 mark 0
AnchorPoint: "BDM" -368 -53 mark 0
AnchorPoint: "BD" 361 -53 basemark 0
LayerCount: 2
Back
Fore
SplineSet
-83 -215 m 0
 -83 -287 -134 -338 -235 -338 c 0
 -297 -338 -340 -329 -376 -290 c 0
 -402 -323 -438 -338 -502 -338 c 0
 -535 -338 -569 -330 -599 -307 c 0
 -599 -377 -569 -404 -523 -404 c 0
 -182 -404 l 0
 -164 -404 -158 -398 -158 -377 c 0
 -158 -351 l 0
 -97 -351 l 0
 -97 -375 l 0
 -97 -430 -119 -464 -181 -464 c 0
 -529 -464 l 0
 -613 -464 -659 -398 -659 -319 c 0
 -659 -305 -659 -268 -658 -255 c 0
 -599 -231 l 0
 -583 -266 -540 -278 -502 -278 c 0
 -452 -278 -406 -258 -406 -215 c 0
 -406 -183 -433 -150 -502 -150 c 0
 -531 -150 -572 -162 -597 -200 c 0
 -640 -154 l 0
 -610 -116 -556 -90 -502 -90 c 0
 -403 -90 -346 -141 -346 -216 c 0
 -346 -262 -285 -278 -235 -278 c 0
 -173 -278 -143 -252 -143 -215 c 0
 -143 -171 -180 -150 -232 -150 c 0
 -247 -150 -267 -155 -280 -163 c 0
 -307 -108 l 0
 -287 -97 -248 -90 -232 -90 c 0
 -134 -90 -83 -142 -83 -215 c 0
EndSplineSet
Ligature2: "LigatureSubstitutionlookup179 subtable" u100A.med u102D
Ligature2: "LigatureSubstitutionlookup179 subtable" u100A.med u102E
Ligature2: "LigatureSubstitutionlookup179 subtable" u100A.med u1032
Ligature2: "LigatureSubstitutionlookup179 subtable" u100A.med u103A
Ligature2: "LigatureSubstitutionlookup171 subtable" u100A.med u103C u1031
Ligature2: "LigatureSubstitutionlookup159 subtable" u100A.med u1031
Ligature2: "LigatureSubstitutionlookup159 subtable" u100A.med u103C
Ligature2: "sub_ligature_cligmymr_0 subtable" u1039 u100A
MultipleSubs2: "MultipleSubstitutionlookup138 subtable" u1039 u100A.med
Comment: "GDL_order: 2+AAoA-mark: 80+AAoA"
EndChar

StartChar: u100A_u100A
Encoding: 132 -1 132
Width: 1358
VWidth: 0
GlyphClass: 2
Flags: HW
AnchorPoint: "R" 0 0 mark 0
AnchorPoint: "BS" 1048 -53 basechar 0
AnchorPoint: "L" 636 -53 basechar 0
AnchorPoint: "U" 671 495 basechar 0
AnchorPoint: "BD" 1063 -53 basechar 0
LayerCount: 2
Back
Fore
SplineSet
1303 222 m 0
 1303 90 1193 -20 1063 -20 c 0
 978 -20 910 29 869 90 c 0
 827 24 753 -20 671 -20 c 0
 586 -20 518 29 477 90 c 0
 436 24 362 -20 279 -20 c 0
 235 -20 188 -8 148 18 c 0
 148 -238 l 0
 148 -278 156 -314 180 -337 c 0
 205 -362 238 -371 283 -371 c 0
 1152 -371 l 0
 1185 -371 1191 -362 1191 -326 c 0
 1191 -282 l 0
 1284 -282 l 0
 1284 -345 l 0
 1284 -391 1277 -415 1263 -432 c 0
 1246 -453 1223 -464 1172 -464 c 0
 269 -464 l 0
 200 -464 152 -441 113 -402 c 0
 73 -362 55 -312 55 -250 c 0
 55 112 l 0
 138 156 l 0
 169 98 224 73 279 73 c 0
 361 73 426 140 426 221 c 0
 426 297 363 370 279 370 c 0
 222 370 172 345 138 288 c 0
 55 331 l 0
 102 425 199 464 279 464 c 0
 408 464 517 355 519 222 c 0
 530 152 597 73 671 73 c 0
 751 73 818 141 818 222 c 0
 818 302 751 370 671 370 c 0
 659 370 647 368 637 365 c 0
 600 450 l 0
 618 458 646 464 671 464 c 0
 800 464 911 354 911 222 c 0
 923 152 989 73 1063 73 c 0
 1143 73 1210 141 1210 222 c 0
 1210 302 1143 370 1063 370 c 0
 1051 370 1039 368 1029 365 c 0
 992 450 l 0
 1010 458 1038 464 1063 464 c 0
 1194 464 1303 357 1303 222 c 0
EndSplineSet
Ligature2: "LigatureSubstitutionlookup169 subtable" u100A_u100A u103C
Ligature2: "LigatureSubstitutionlookup167 subtable" u100A_u100A u103C u1031
Ligature2: "LigatureSubstitutionlookup167 subtable" u100A_u100A u103C.wide u1031
Ligature2: "LigatureSubstitutionlookup167 subtable" u100A_u100A u103C_u103D.narr u1031
Ligature2: "LigatureSubstitutionlookup167 subtable" u100A_u100A u103C_u103D.wide u1031
Ligature2: "LigatureSubstitutionlookup165 subtable" u100A_u100A u103C
Ligature2: "LigatureSubstitutionlookup165 subtable" u100A_u100A u103C_u103D.narr
Ligature2: "LigatureSubstitutionlookup165 subtable" u100A_u100A u103C_u102F.narr
Ligature2: "LigatureSubstitutionlookup163 subtable" u100A_u100A u1031
Ligature2: "LigatureSubstitutionlookup163 subtable" u100A_u100A u1084
Ligature2: "LigatureSubstitutionlookup162 subtable" u100A_u100A u103D
Ligature2: "LigatureSubstitutionlookup162 subtable" u100A_u100A u103E
Ligature2: "LigatureSubstitutionlookup162 subtable" u100A_u100A u103D_u103E
Ligature2: "LigatureSubstitutionlookup162 subtable" u100A_u100A
Ligature2: "LigatureSubstitutionlookup162 subtable" u100A_u100A u105F
Ligature2: "LigatureSubstitutionlookup162 subtable" u100A_u100A u1060
Ligature2: "LigatureSubstitutionlookup162 subtable" u100A_u100A u1082
Ligature2: "LigatureSubstitutionlookup158 subtable" u100A_u100A u1039
Ligature2: "LigatureSubstitutionlookup130 subtable" u1004.kinzi u200D u100A_u100A
Ligature2: "LigatureSubstitutionlookup130 subtable" u101B.kinzi u200D u100A_u100A
Ligature2: "LigatureSubstitutionlookup127 subtable" u1004.kinzi u200D u100A_u100A
Ligature2: "LigatureSubstitutionlookup127 subtable" u101B.kinzi u200D u100A_u100A
Ligature2: "LigatureSubstitutionlookup124 subtable" u1004.kinzi u200D u100A_u100A
Ligature2: "LigatureSubstitutionlookup124 subtable" u101B.kinzi u200D u100A_u100A
Ligature2: "sub_ligature_cligmymr_4 subtable" u100A u100A.med
MultipleSubs2: "MultipleSubstitutionlookup139 subtable" u200C u1031 u100A_u100A
MultipleSubs2: "MultipleSubstitutionlookup137 subtable" u200C u1084 u100A_u100A
MultipleSubs2: "MultipleSubstitutionlookup129 subtable" u100A_u100A u101B.kinzi
MultipleSubs2: "MultipleSubstitutionlookup128 subtable" u100A_u100A u1004.kinzi
Comment: "GDL_order: 1+AAoA-mark: 80+AAoA"
EndChar

StartChar: u100B
Encoding: 133 4107 133
Width: 622
VWidth: 0
GlyphClass: 2
Flags: HW
AnchorPoint: "R" 0 0 mark 0
AnchorPoint: "BS" 675 -53 basechar 0
AnchorPoint: "L" 675 -53 basechar 0
AnchorPoint: "U" 297 495 basechar 0
AnchorPoint: "BD" 657 -53 basechar 0
LayerCount: 2
Back
Fore
SplineSet
595 -428 m 0
 566 -445 517 -464 501 -464 c 0
 453 -464 426 -434 426 -384 c 0
 426 -300 l 0
 384 -312 340 -318 296 -318 c 0
 224 -318 151 -303 86 -270 c 0
 86 -5 l 0
 145 -49 216 -83 296 -83 c 0
 345 -83 387 -71 426 -51 c 0
 426 17 l 0
 385 -8 339 -20 296 -20 c 0
 165 -20 55 88 55 222 c 0
 55 354 165 464 296 464 c 0
 375 464 472 425 519 331 c 0
 436 288 l 0
 406 342 352 370 296 370 c 0
 216 370 148 302 148 222 c 0
 148 141 216 73 296 73 c 0
 356 73 406 102 436 156 c 0
 519 112 l 0
 519 -95 l 0
 452 -143 375 -170 296 -170 c 0
 256 -170 216 -163 180 -151 c 0
 180 -211 l 0
 217 -225 256 -231 296 -231 c 0
 378 -231 446 -210 519 -168 c 0
 519 -335 l 0
 519 -348 522 -353 530 -353 c 0
 539 -353 556 -347 572 -340 c 0
 595 -428 l 0
EndSplineSet
Ligature2: "LigatureSubstitutionlookup169 subtable" u100B u103C
Ligature2: "LigatureSubstitutionlookup167 subtable" u100B u103C u1031
Ligature2: "LigatureSubstitutionlookup167 subtable" u100B u103C.wide u1031
Ligature2: "LigatureSubstitutionlookup167 subtable" u100B u103C_u103D.narr u1031
Ligature2: "LigatureSubstitutionlookup167 subtable" u100B u103C_u103D.wide u1031
Ligature2: "LigatureSubstitutionlookup165 subtable" u100B u103C
Ligature2: "LigatureSubstitutionlookup165 subtable" u100B u103C_u103D.narr
Ligature2: "LigatureSubstitutionlookup165 subtable" u100B u103C_u102F.narr
Ligature2: "LigatureSubstitutionlookup163 subtable" u100B u1031
Ligature2: "LigatureSubstitutionlookup163 subtable" u100B u1084
Ligature2: "LigatureSubstitutionlookup162 subtable" u100B u103D
Ligature2: "LigatureSubstitutionlookup162 subtable" u100B u103E
Ligature2: "LigatureSubstitutionlookup162 subtable" u100B u103D_u103E
Ligature2: "LigatureSubstitutionlookup162 subtable" u100B
Ligature2: "LigatureSubstitutionlookup162 subtable" u100B u105F
Ligature2: "LigatureSubstitutionlookup162 subtable" u100B u1060
Ligature2: "LigatureSubstitutionlookup162 subtable" u100B u1082
Ligature2: "LigatureSubstitutionlookup158 subtable" u100B u1039
Ligature2: "LigatureSubstitutionlookup130 subtable" u1004.kinzi u200D u100B
Ligature2: "LigatureSubstitutionlookup130 subtable" u101B.kinzi u200D u100B
Ligature2: "LigatureSubstitutionlookup127 subtable" u1004.kinzi u200D u100B
Ligature2: "LigatureSubstitutionlookup127 subtable" u101B.kinzi u200D u100B
Ligature2: "LigatureSubstitutionlookup124 subtable" u1004.kinzi u200D u100B
Ligature2: "LigatureSubstitutionlookup124 subtable" u101B.kinzi u200D u100B
MultipleSubs2: "MultipleSubstitutionlookup139 subtable" u200C u1031 u100B
MultipleSubs2: "MultipleSubstitutionlookup137 subtable" u200C u1084 u100B
MultipleSubs2: "MultipleSubstitutionlookup129 subtable" u100B u101B.kinzi
MultipleSubs2: "MultipleSubstitutionlookup128 subtable" u100B u1004.kinzi
Comment: "GDL_order: 1+AAoA-mark: 80+AAoA"
EndChar

StartChar: u100B.alt
Encoding: 134 -1 134
Width: 608
VWidth: 0
GlyphClass: 2
Flags: HW
AnchorPoint: "R" 0 0 mark 0
AnchorPoint: "BS" 169 -173 basechar 0
AnchorPoint: "LL" 296 -53 basechar 0
AnchorPoint: "L" 660 -53 basechar 0
AnchorPoint: "BD" 28 -173 basechar 0
AnchorPoint: "U" 296 495 basechar 0
LayerCount: 2
Back
Fore
SplineSet
519 112 m 0
 472 18 375 -20 296 -20 c 0
 165 -20 55 88 55 222 c 0
 55 354 165 464 296 464 c 0
 375 464 472 425 519 331 c 0
 436 288 l 0
 405 339 358 370 296 370 c 0
 216 370 148 302 148 222 c 0
 148 141 216 73 296 73 c 0
 357 73 402 100 436 156 c 0
 519 112 l 0
572 -464 m 0
 411 -464 l 0
 411 -150 l 0
 374 -163 339 -170 296 -170 c 0
 223 -170 150 -148 86 -109 c 0
 86 -5 l 0
 145 -49 216 -83 296 -83 c 0
 393 -83 444 -52 505 -11 c 0
 505 -371 l 0
 572 -371 l 0
 572 -464 l 0
EndSplineSet
Comment: "GDL_order: 1+AAoA-mark: 80+AAoA"
EndChar

StartChar: u100B.med
Encoding: 135 -1 135
Width: 0
VWidth: 0
GlyphClass: 4
Flags: HW
AnchorPoint: "BS" -179 -53 mark 0
AnchorPoint: "LLM" -470 -53 basemark 0
AnchorPoint: "BSM" -179 -53 mark 0
AnchorPoint: "LM" 60 -53 basemark 0
AnchorPoint: "BS" 166 -53 basemark 0
AnchorPoint: "BSM" 415 -53 basemark 0
LayerCount: 2
Back
Fore
SplineSet
-46 -464 m 0
 -158 -464 l 0
 -158 -406 l 0
 -163 -407 -174 -407 -180 -407 c 0
 -234 -407 -314 -385 -314 -301 c 0
 -314 -217 -232 -195 -178 -195 c 0
 -137 -195 -104 -202 -70 -223 c 0
 -103 -279 l 0
 -129 -268 -149 -266 -178 -266 c 0
 -205 -266 -243 -276 -243 -301 c 0
 -243 -327 -205 -336 -180 -336 c 0
 -151 -336 -128 -334 -103 -325 c 0
 -103 -394 l 0
 -46 -394 l 0
 -46 -464 l 0
EndSplineSet
Ligature2: "LigatureSubstitutionlookup179 subtable" u100B.med u102D
Ligature2: "LigatureSubstitutionlookup179 subtable" u100B.med u102E
Ligature2: "LigatureSubstitutionlookup179 subtable" u100B.med u1032
Ligature2: "LigatureSubstitutionlookup179 subtable" u100B.med u103A
Ligature2: "LigatureSubstitutionlookup171 subtable" u100B.med u103C u1031
Ligature2: "LigatureSubstitutionlookup159 subtable" u100B.med u1031
Ligature2: "LigatureSubstitutionlookup159 subtable" u100B.med u103C
Ligature2: "sub_ligature_cligmymr_0 subtable" u1039 u100B
MultipleSubs2: "MultipleSubstitutionlookup138 subtable" u1039 u100B.med
Comment: "GDL_order: 2+AAoA-mark: 80+AAoA"
EndChar

StartChar: u100B_u100B
Encoding: 136 -1 136
Width: 618
VWidth: 0
GlyphClass: 2
Flags: HW
AnchorPoint: "R" 0 0 mark 0
AnchorPoint: "BS" 675 -53 basechar 0
AnchorPoint: "L" 675 -53 basechar 0
AnchorPoint: "U" 296 495 basechar 0
AnchorPoint: "BD" 657 -53 basechar 0
LayerCount: 2
Back
Fore
SplineSet
519 112 m 0
 472 18 375 -20 296 -20 c 0
 165 -20 55 88 55 222 c 0
 55 354 165 464 296 464 c 0
 375 464 472 425 519 331 c 0
 436 288 l 0
 405 343 355 370 296 370 c 0
 216 370 148 302 148 222 c 0
 148 141 216 73 296 73 c 0
 353 73 403 98 436 156 c 0
 519 112 l 0
590 -464 m 0
 426 -464 l 0
 426 -145 l 0
 385 -162 342 -170 296 -170 c 0
 223 -170 150 -148 86 -109 c 0
 86 -5 l 0
 145 -49 216 -83 296 -83 c 0
 401 -83 461 -48 520 4 c 0
 520 -371 l 0
 590 -371 l 0
 590 -464 l 0
379 -464 m 0
 268 -464 l 0
 268 -406 l 0
 264 -407 251 -407 245 -407 c 0
 199 -407 112 -387 112 -301 c 0
 112 -218 192 -195 249 -195 c 0
 277 -195 319 -199 356 -223 c 0
 321 -280 l 0
 295 -269 271 -266 249 -266 c 0
 220 -266 183 -274 183 -301 c 0
 183 -329 221 -336 245 -336 c 0
 276 -336 295 -335 322 -325 c 0
 322 -394 l 0
 379 -394 l 0
 379 -464 l 0
EndSplineSet
Ligature2: "LigatureSubstitutionlookup169 subtable" u100B_u100B u103C
Ligature2: "LigatureSubstitutionlookup167 subtable" u100B_u100B u103C u1031
Ligature2: "LigatureSubstitutionlookup167 subtable" u100B_u100B u103C.wide u1031
Ligature2: "LigatureSubstitutionlookup167 subtable" u100B_u100B u103C_u103D.narr u1031
Ligature2: "LigatureSubstitutionlookup167 subtable" u100B_u100B u103C_u103D.wide u1031
Ligature2: "LigatureSubstitutionlookup165 subtable" u100B_u100B u103C
Ligature2: "LigatureSubstitutionlookup165 subtable" u100B_u100B u103C_u103D.narr
Ligature2: "LigatureSubstitutionlookup165 subtable" u100B_u100B u103C_u102F.narr
Ligature2: "LigatureSubstitutionlookup163 subtable" u100B_u100B u1031
Ligature2: "LigatureSubstitutionlookup163 subtable" u100B_u100B u1084
Ligature2: "LigatureSubstitutionlookup162 subtable" u100B_u100B u103D
Ligature2: "LigatureSubstitutionlookup162 subtable" u100B_u100B u103E
Ligature2: "LigatureSubstitutionlookup162 subtable" u100B_u100B u103D_u103E
Ligature2: "LigatureSubstitutionlookup162 subtable" u100B_u100B
Ligature2: "LigatureSubstitutionlookup162 subtable" u100B_u100B u105F
Ligature2: "LigatureSubstitutionlookup162 subtable" u100B_u100B u1060
Ligature2: "LigatureSubstitutionlookup162 subtable" u100B_u100B u1082
Ligature2: "LigatureSubstitutionlookup158 subtable" u100B_u100B u1039
Ligature2: "LigatureSubstitutionlookup130 subtable" u1004.kinzi u200D u100B_u100B
Ligature2: "LigatureSubstitutionlookup130 subtable" u101B.kinzi u200D u100B_u100B
Ligature2: "LigatureSubstitutionlookup127 subtable" u1004.kinzi u200D u100B_u100B
Ligature2: "LigatureSubstitutionlookup127 subtable" u101B.kinzi u200D u100B_u100B
Ligature2: "LigatureSubstitutionlookup124 subtable" u1004.kinzi u200D u100B_u100B
Ligature2: "LigatureSubstitutionlookup124 subtable" u101B.kinzi u200D u100B_u100B
Ligature2: "sub_ligature_cligmymr_4 subtable" u100B u100B.med
MultipleSubs2: "MultipleSubstitutionlookup139 subtable" u200C u1031 u100B_u100B
MultipleSubs2: "MultipleSubstitutionlookup137 subtable" u200C u1084 u100B_u100B
MultipleSubs2: "MultipleSubstitutionlookup129 subtable" u100B_u100B u101B.kinzi
MultipleSubs2: "MultipleSubstitutionlookup128 subtable" u100B_u100B u1004.kinzi
Comment: "GDL_order: 1+AAoA-mark: 80+AAoA"
EndChar

StartChar: u100B_u100C
Encoding: 137 -1 137
Width: 571
VWidth: 0
GlyphClass: 2
Flags: HW
AnchorPoint: "R" 0 0 mark 0
AnchorPoint: "BS" 670 -53 basechar 0
AnchorPoint: "L" 670 -53 basechar 0
AnchorPoint: "U" 296 495 basechar 0
AnchorPoint: "BD" 642 -53 basechar 0
LayerCount: 2
Back
Fore
SplineSet
514 -10 m 0
 514 -280 l 0
 514 -350 499 -385 482 -409 c 0
 459 -442 423 -464 370 -464 c 0
 193 -464 l 0
 105 -464 64 -403 64 -341 c 0
 64 -272 113 -222 193 -222 c 0
 239 -222 266 -236 285 -252 c 0
 240 -322 l 0
 228 -314 213 -301 193 -301 c 0
 162 -301 146 -318 146 -341 c 0
 146 -370 173 -381 207 -381 c 0
 332 -381 l 0
 365 -381 379 -375 397 -359 c 0
 413 -345 421 -323 421 -282 c 0
 421 -159 l 0
 382 -173 341 -180 296 -180 c 0
 223 -180 150 -158 86 -119 c 0
 86 -15 l 0
 145 -59 216 -93 296 -93 c 0
 391 -93 456 -55 514 -10 c 0
519 112 m 0
 472 18 375 -20 296 -20 c 0
 165 -20 55 88 55 222 c 0
 55 354 165 464 296 464 c 0
 375 464 472 425 519 331 c 0
 436 288 l 0
 395 356 332 370 296 370 c 0
 216 370 148 302 148 222 c 0
 148 141 216 73 296 73 c 0
 349 73 399 95 436 156 c 0
 519 112 l 0
EndSplineSet
Ligature2: "LigatureSubstitutionlookup169 subtable" u100B_u100C u103C
Ligature2: "LigatureSubstitutionlookup167 subtable" u100B_u100C u103C u1031
Ligature2: "LigatureSubstitutionlookup167 subtable" u100B_u100C u103C.wide u1031
Ligature2: "LigatureSubstitutionlookup167 subtable" u100B_u100C u103C_u103D.narr u1031
Ligature2: "LigatureSubstitutionlookup167 subtable" u100B_u100C u103C_u103D.wide u1031
Ligature2: "LigatureSubstitutionlookup165 subtable" u100B_u100C u103C
Ligature2: "LigatureSubstitutionlookup165 subtable" u100B_u100C u103C_u103D.narr
Ligature2: "LigatureSubstitutionlookup165 subtable" u100B_u100C u103C_u102F.narr
Ligature2: "LigatureSubstitutionlookup163 subtable" u100B_u100C u1031
Ligature2: "LigatureSubstitutionlookup163 subtable" u100B_u100C u1084
Ligature2: "LigatureSubstitutionlookup162 subtable" u100B_u100C u103D
Ligature2: "LigatureSubstitutionlookup162 subtable" u100B_u100C u103E
Ligature2: "LigatureSubstitutionlookup162 subtable" u100B_u100C u103D_u103E
Ligature2: "LigatureSubstitutionlookup162 subtable" u100B_u100C
Ligature2: "LigatureSubstitutionlookup162 subtable" u100B_u100C u105F
Ligature2: "LigatureSubstitutionlookup162 subtable" u100B_u100C u1060
Ligature2: "LigatureSubstitutionlookup162 subtable" u100B_u100C u1082
Ligature2: "LigatureSubstitutionlookup158 subtable" u100B_u100C u1039
Ligature2: "LigatureSubstitutionlookup130 subtable" u1004.kinzi u200D u100B_u100C
Ligature2: "LigatureSubstitutionlookup130 subtable" u101B.kinzi u200D u100B_u100C
Ligature2: "LigatureSubstitutionlookup127 subtable" u1004.kinzi u200D u100B_u100C
Ligature2: "LigatureSubstitutionlookup127 subtable" u101B.kinzi u200D u100B_u100C
Ligature2: "LigatureSubstitutionlookup124 subtable" u1004.kinzi u200D u100B_u100C
Ligature2: "LigatureSubstitutionlookup124 subtable" u101B.kinzi u200D u100B_u100C
Ligature2: "sub_ligature_cligmymr_4 subtable" u100B u100C.med
MultipleSubs2: "MultipleSubstitutionlookup139 subtable" u200C u1031 u100B_u100C
MultipleSubs2: "MultipleSubstitutionlookup137 subtable" u200C u1084 u100B_u100C
MultipleSubs2: "MultipleSubstitutionlookup129 subtable" u100B_u100C u101B.kinzi
MultipleSubs2: "MultipleSubstitutionlookup128 subtable" u100B_u100C u1004.kinzi
Comment: "GDL_order: 1+AAoA-mark: 80+AAoA"
EndChar

StartChar: u100C
Encoding: 138 4108 138
Width: 574
VWidth: 0
GlyphClass: 2
Flags: HW
AnchorPoint: "R" 0 0 mark 0
AnchorPoint: "BS" 675 -53 basechar 0
AnchorPoint: "L" 675 -53 basechar 0
AnchorPoint: "U" 296 495 basechar 0
AnchorPoint: "BD" 657 -53 basechar 0
LayerCount: 2
Back
Fore
SplineSet
519 112 m 0
 519 -270 l 0
 519 -335 495 -375 465 -407 c 0
 434 -438 394 -464 334 -464 c 0
 198 -464 l 0
 107 -464 69 -382 69 -324 c 0
 69 -248 129 -187 209 -187 c 0
 255 -187 281 -197 302 -213 c 0
 256 -294 l 0
 241 -286 228 -280 209 -280 c 0
 187 -280 163 -293 163 -324 c 0
 163 -354 185 -371 216 -371 c 0
 309 -371 l 0
 358 -371 378 -363 399 -342 c 0
 417 -324 426 -295 426 -259 c 0
 426 17 l 0
 385 -8 339 -20 296 -20 c 0
 165 -20 55 88 55 222 c 0
 55 354 165 464 296 464 c 0
 375 464 472 425 519 331 c 0
 436 288 l 0
 402 344 352 370 296 370 c 0
 216 370 148 302 148 222 c 0
 148 141 216 73 296 73 c 0
 352 73 401 97 436 156 c 0
 519 112 l 0
EndSplineSet
Ligature2: "LigatureSubstitutionlookup169 subtable" u100C u103C
Ligature2: "LigatureSubstitutionlookup167 subtable" u100C u103C u1031
Ligature2: "LigatureSubstitutionlookup167 subtable" u100C u103C.wide u1031
Ligature2: "LigatureSubstitutionlookup167 subtable" u100C u103C_u103D.narr u1031
Ligature2: "LigatureSubstitutionlookup167 subtable" u100C u103C_u103D.wide u1031
Ligature2: "LigatureSubstitutionlookup165 subtable" u100C u103C
Ligature2: "LigatureSubstitutionlookup165 subtable" u100C u103C_u103D.narr
Ligature2: "LigatureSubstitutionlookup165 subtable" u100C u103C_u102F.narr
Ligature2: "LigatureSubstitutionlookup163 subtable" u100C u1031
Ligature2: "LigatureSubstitutionlookup163 subtable" u100C u1084
Ligature2: "LigatureSubstitutionlookup162 subtable" u100C u103D
Ligature2: "LigatureSubstitutionlookup162 subtable" u100C u103E
Ligature2: "LigatureSubstitutionlookup162 subtable" u100C u103D_u103E
Ligature2: "LigatureSubstitutionlookup162 subtable" u100C
Ligature2: "LigatureSubstitutionlookup162 subtable" u100C u105F
Ligature2: "LigatureSubstitutionlookup162 subtable" u100C u1060
Ligature2: "LigatureSubstitutionlookup162 subtable" u100C u1082
Ligature2: "LigatureSubstitutionlookup158 subtable" u100C u1039
Ligature2: "LigatureSubstitutionlookup130 subtable" u1004.kinzi u200D u100C
Ligature2: "LigatureSubstitutionlookup130 subtable" u101B.kinzi u200D u100C
Ligature2: "LigatureSubstitutionlookup127 subtable" u1004.kinzi u200D u100C
Ligature2: "LigatureSubstitutionlookup127 subtable" u101B.kinzi u200D u100C
Ligature2: "LigatureSubstitutionlookup124 subtable" u1004.kinzi u200D u100C
Ligature2: "LigatureSubstitutionlookup124 subtable" u101B.kinzi u200D u100C
MultipleSubs2: "MultipleSubstitutionlookup139 subtable" u200C u1031 u100C
MultipleSubs2: "MultipleSubstitutionlookup137 subtable" u200C u1084 u100C
MultipleSubs2: "MultipleSubstitutionlookup129 subtable" u100C u101B.kinzi
MultipleSubs2: "MultipleSubstitutionlookup128 subtable" u100C u1004.kinzi
Comment: "GDL_order: 1+AAoA-mark: 80+AAoA"
EndChar

StartChar: u100C.med
Encoding: 139 -1 139
Width: 0
VWidth: 0
GlyphClass: 4
Flags: HW
AnchorPoint: "LLM" -925 -53 basemark 0
AnchorPoint: "BD" -412 -53 mark 0
AnchorPoint: "BSM" 102 -53 basemark 0
AnchorPoint: "LM" 99 -53 basemark 0
AnchorPoint: "BSM" 900 -53 mark 0
AnchorPoint: "BDM" -405 -53 mark 0
AnchorPoint: "BD" 406 -53 basemark 0
LayerCount: 2
Back
Fore
SplineSet
-55 -293 m 0
 -55 -354 -84 -428 -156 -464 c 0
 -190 -400 l 0
 -144 -373 -126 -332 -126 -293 c 0
 -126 -229 -179 -178 -240 -178 c 0
 -304 -178 -356 -229 -356 -293 c 0
 -356 -332 -337 -373 -291 -400 c 0
 -325 -464 l 0
 -627 -464 l 0
 -671 -464 -708 -443 -727 -422 c 0
 -749 -397 -769 -361 -769 -313 c 0
 -769 -217 l 0
 -769 -147 -706 -118 -661 -118 c 0
 -598 -118 -556 -164 -556 -225 c 0
 -556 -256 -564 -281 -578 -297 c 0
 -638 -262 l 0
 -631 -252 -628 -240 -628 -225 c 0
 -628 -207 -643 -189 -661 -189 c 0
 -682 -189 -698 -203 -698 -228 c 0
 -698 -300 l 0
 -698 -338 -690 -352 -675 -371 c 0
 -661 -386 -640 -393 -620 -393 c 0
 -399 -393 l 0
 -419 -362 -427 -325 -427 -293 c 0
 -427 -191 -343 -107 -240 -107 c 0
 -138 -107 -55 -191 -55 -293 c 0
EndSplineSet
Ligature2: "LigatureSubstitutionlookup179 subtable" u100C.med u102D
Ligature2: "LigatureSubstitutionlookup179 subtable" u100C.med u102E
Ligature2: "LigatureSubstitutionlookup179 subtable" u100C.med u1032
Ligature2: "LigatureSubstitutionlookup179 subtable" u100C.med u103A
Ligature2: "LigatureSubstitutionlookup171 subtable" u100C.med u103C u1031
Ligature2: "LigatureSubstitutionlookup159 subtable" u100C.med u1031
Ligature2: "LigatureSubstitutionlookup159 subtable" u100C.med u103C
Ligature2: "sub_ligature_cligmymr_0 subtable" u1039 u100C
MultipleSubs2: "MultipleSubstitutionlookup138 subtable" u1039 u100C.med
Comment: "GDL_order: 2+AAoA-mark: 80+AAoA"
EndChar

StartChar: u100D
Encoding: 140 4109 140
Width: 589
VWidth: 0
GlyphClass: 2
Flags: HW
AnchorPoint: "BS" 140 -173 basechar 0
AnchorPoint: "LL" 280 -52 basechar 0
AnchorPoint: "L" 632 -53 basechar 0
AnchorPoint: "BD" -1 -173 basechar 0
AnchorPoint: "U" 279 495 basechar 0
AnchorPoint: "R" 0 0 mark 0
LayerCount: 2
Back
Fore
SplineSet
545 -464 m 0
 383 -464 l 0
 383 -164 l 0
 349 -175 317 -180 279 -180 c 0
 205 -180 114 -161 55 -113 c 0
 55 112 l 0
 138 156 l 0
 173 97 224 73 279 73 c 0
 361 73 426 141 426 222 c 0
 426 302 361 370 279 370 c 0
 224 370 173 345 138 288 c 0
 55 331 l 0
 102 425 199 464 279 464 c 0
 410 464 520 354 520 222 c 0
 520 88 410 -20 279 -20 c 0
 235 -20 189 -8 150 17 c 0
 150 -62 l 0
 188 -82 230 -93 279 -93 c 0
 359 -93 428 -62 476 -26 c 0
 476 -371 l 0
 545 -371 l 0
 545 -464 l 0
EndSplineSet
Ligature2: "LigatureSubstitutionlookup169 subtable" u100D u103C
Ligature2: "LigatureSubstitutionlookup167 subtable" u100D u103C u1031
Ligature2: "LigatureSubstitutionlookup167 subtable" u100D u103C.wide u1031
Ligature2: "LigatureSubstitutionlookup167 subtable" u100D u103C_u103D.narr u1031
Ligature2: "LigatureSubstitutionlookup167 subtable" u100D u103C_u103D.wide u1031
Ligature2: "LigatureSubstitutionlookup165 subtable" u100D u103C
Ligature2: "LigatureSubstitutionlookup165 subtable" u100D u103C_u103D.narr
Ligature2: "LigatureSubstitutionlookup165 subtable" u100D u103C_u102F.narr
Ligature2: "LigatureSubstitutionlookup163 subtable" u100D u1031
Ligature2: "LigatureSubstitutionlookup163 subtable" u100D u1084
Ligature2: "LigatureSubstitutionlookup162 subtable" u100D u103D
Ligature2: "LigatureSubstitutionlookup162 subtable" u100D u103E
Ligature2: "LigatureSubstitutionlookup162 subtable" u100D u103D_u103E
Ligature2: "LigatureSubstitutionlookup162 subtable" u100D
Ligature2: "LigatureSubstitutionlookup162 subtable" u100D u105F
Ligature2: "LigatureSubstitutionlookup162 subtable" u100D u1060
Ligature2: "LigatureSubstitutionlookup162 subtable" u100D u1082
Ligature2: "LigatureSubstitutionlookup158 subtable" u100D u1039
Ligature2: "LigatureSubstitutionlookup130 subtable" u1004.kinzi u200D u100D
Ligature2: "LigatureSubstitutionlookup130 subtable" u101B.kinzi u200D u100D
Ligature2: "LigatureSubstitutionlookup127 subtable" u1004.kinzi u200D u100D
Ligature2: "LigatureSubstitutionlookup127 subtable" u101B.kinzi u200D u100D
Ligature2: "LigatureSubstitutionlookup124 subtable" u1004.kinzi u200D u100D
Ligature2: "LigatureSubstitutionlookup124 subtable" u101B.kinzi u200D u100D
MultipleSubs2: "MultipleSubstitutionlookup139 subtable" u200C u1031 u100D
MultipleSubs2: "MultipleSubstitutionlookup137 subtable" u200C u1084 u100D
MultipleSubs2: "MultipleSubstitutionlookup129 subtable" u100D u101B.kinzi
MultipleSubs2: "MultipleSubstitutionlookup128 subtable" u100D u1004.kinzi
Comment: "GDL_order: 1+AAoA-mark: 80+AAoA"
EndChar

StartChar: u100D.med
Encoding: 141 -1 141
Width: 0
VWidth: 0
GlyphClass: 4
Flags: HW
AnchorPoint: "BS" -204 -53 mark 0
AnchorPoint: "LLM" -473 -53 basemark 0
AnchorPoint: "BSM" -204 -53 mark 0
AnchorPoint: "LM" 57 -53 basemark 0
AnchorPoint: "BS" 172 -53 basemark 0
AnchorPoint: "BSM" 426 -53 basemark 0
LayerCount: 2
Back
Fore
SplineSet
-55 -454 m 0
 -143 -454 l 0
 -143 -401 l 0
 -158 -406 -170 -408 -206 -408 c 0
 -231 -408 -288 -400 -312 -392 c 0
 -312 -280 l 0
 -277 -289 -243 -291 -206 -291 c 0
 -176 -291 -137 -282 -137 -261 c 0
 -137 -237 -182 -230 -206 -230 c 0
 -249 -230 -281 -233 -304 -242 c 0
 -318 -203 l 0
 -292 -193 -251 -188 -206 -188 c 0
 -172 -188 -94 -195 -94 -261 c 0
 -94 -323 -165 -334 -206 -334 c 0
 -226 -334 -256 -331 -271 -328 c 0
 -271 -359 l 0
 -256 -362 -232 -366 -206 -366 c 0
 -157 -366 -128 -357 -101 -342 c 0
 -101 -412 l 0
 -55 -412 l 0
 -55 -454 l 0
EndSplineSet
Ligature2: "LigatureSubstitutionlookup179 subtable" u100D.med u102D
Ligature2: "LigatureSubstitutionlookup179 subtable" u100D.med u102E
Ligature2: "LigatureSubstitutionlookup179 subtable" u100D.med u1032
Ligature2: "LigatureSubstitutionlookup179 subtable" u100D.med u103A
Ligature2: "LigatureSubstitutionlookup171 subtable" u100D.med u103C u1031
Ligature2: "LigatureSubstitutionlookup159 subtable" u100D.med u1031
Ligature2: "LigatureSubstitutionlookup159 subtable" u100D.med u103C
Ligature2: "sub_ligature_cligmymr_0 subtable" u1039 u100D
MultipleSubs2: "MultipleSubstitutionlookup138 subtable" u1039 u100D.med
Comment: "GDL_order: 2+AAoA-mark: 80+AAoA"
EndChar

StartChar: u100D_u100D
Encoding: 142 -1 142
Width: 589
VWidth: 0
GlyphClass: 2
Flags: HW
AnchorPoint: "R" 0 0 mark 0
AnchorPoint: "BS" 637 -53 basechar 0
AnchorPoint: "L" 637 -53 basechar 0
AnchorPoint: "U" 279 495 basechar 0
AnchorPoint: "BD" 627 -53 basechar 0
LayerCount: 2
Back
Fore
SplineSet
551 -464 m 0
 388 -464 l 0
 388 -162 l 0
 353 -174 317 -180 279 -180 c 0
 205 -180 114 -161 55 -113 c 0
 55 112 l 0
 138 156 l 0
 172 98 222 73 279 73 c 0
 361 73 426 141 426 222 c 0
 426 302 361 370 279 370 c 0
 222 370 167 342 138 288 c 0
 55 331 l 0
 102 425 199 464 279 464 c 0
 410 464 520 354 520 222 c 0
 520 88 410 -20 279 -20 c 0
 235 -20 189 -8 150 17 c 0
 150 -62 l 0
 188 -82 230 -93 279 -93 c 0
 359 -93 429 -62 481 -23 c 0
 481 -371 l 0
 551 -371 l 0
 551 -464 l 0
357 -464 m 0
 269 -464 l 0
 269 -411 l 0
 255 -416 242 -418 206 -418 c 0
 181 -418 124 -410 100 -402 c 0
 100 -290 l 0
 135 -299 170 -301 206 -301 c 0
 237 -301 275 -292 275 -271 c 0
 275 -247 230 -240 206 -240 c 0
 163 -240 133 -243 110 -252 c 0
 96 -213 l 0
 122 -203 161 -198 206 -198 c 0
 240 -198 318 -205 318 -271 c 0
 318 -333 247 -344 206 -344 c 0
 186 -344 157 -341 142 -338 c 0
 142 -369 l 0
 156 -372 181 -376 206 -376 c 0
 255 -376 284 -367 311 -352 c 0
 311 -422 l 0
 357 -422 l 0
 357 -464 l 0
EndSplineSet
Ligature2: "LigatureSubstitutionlookup169 subtable" u100D_u100D u103C
Ligature2: "LigatureSubstitutionlookup167 subtable" u100D_u100D u103C u1031
Ligature2: "LigatureSubstitutionlookup167 subtable" u100D_u100D u103C.wide u1031
Ligature2: "LigatureSubstitutionlookup167 subtable" u100D_u100D u103C_u103D.narr u1031
Ligature2: "LigatureSubstitutionlookup167 subtable" u100D_u100D u103C_u103D.wide u1031
Ligature2: "LigatureSubstitutionlookup165 subtable" u100D_u100D u103C
Ligature2: "LigatureSubstitutionlookup165 subtable" u100D_u100D u103C_u103D.narr
Ligature2: "LigatureSubstitutionlookup165 subtable" u100D_u100D u103C_u102F.narr
Ligature2: "LigatureSubstitutionlookup163 subtable" u100D_u100D u1031
Ligature2: "LigatureSubstitutionlookup163 subtable" u100D_u100D u1084
Ligature2: "LigatureSubstitutionlookup162 subtable" u100D_u100D u103D
Ligature2: "LigatureSubstitutionlookup162 subtable" u100D_u100D u103E
Ligature2: "LigatureSubstitutionlookup162 subtable" u100D_u100D u103D_u103E
Ligature2: "LigatureSubstitutionlookup162 subtable" u100D_u100D
Ligature2: "LigatureSubstitutionlookup162 subtable" u100D_u100D u105F
Ligature2: "LigatureSubstitutionlookup162 subtable" u100D_u100D u1060
Ligature2: "LigatureSubstitutionlookup162 subtable" u100D_u100D u1082
Ligature2: "LigatureSubstitutionlookup158 subtable" u100D_u100D u1039
Ligature2: "LigatureSubstitutionlookup130 subtable" u1004.kinzi u200D u100D_u100D
Ligature2: "LigatureSubstitutionlookup130 subtable" u101B.kinzi u200D u100D_u100D
Ligature2: "LigatureSubstitutionlookup127 subtable" u1004.kinzi u200D u100D_u100D
Ligature2: "LigatureSubstitutionlookup127 subtable" u101B.kinzi u200D u100D_u100D
Ligature2: "LigatureSubstitutionlookup124 subtable" u1004.kinzi u200D u100D_u100D
Ligature2: "LigatureSubstitutionlookup124 subtable" u101B.kinzi u200D u100D_u100D
Ligature2: "sub_ligature_cligmymr_4 subtable" u100D u100D.med
MultipleSubs2: "MultipleSubstitutionlookup139 subtable" u200C u1031 u100D_u100D
MultipleSubs2: "MultipleSubstitutionlookup137 subtable" u200C u1084 u100D_u100D
MultipleSubs2: "MultipleSubstitutionlookup129 subtable" u100D_u100D u101B.kinzi
MultipleSubs2: "MultipleSubstitutionlookup128 subtable" u100D_u100D u1004.kinzi
Comment: "GDL_order: 1+AAoA-mark: 80+AAoA"
EndChar

StartChar: u100D_u100E
Encoding: 143 -1 143
Width: 587
VWidth: 0
GlyphClass: 2
Flags: HW
AnchorPoint: "R" 0 0 mark 0
AnchorPoint: "BS" 568 -53 basechar 0
AnchorPoint: "LL" 94 -53 basechar 0
AnchorPoint: "L" 482 -53 basechar 0
AnchorPoint: "U" 290 495 basechar 0
AnchorPoint: "BD" 528 -53 basechar 0
LayerCount: 2
Back
Fore
SplineSet
533 240 m 0
 533 106 445 5 333 -16 c 0
 333 -370 l 0
 408 -370 l 0
 408 -464 l 0
 250 -464 l 0
 250 -17 l 0
 129 -1 55 91 55 177 c 0
 55 307 178 306 178 359 c 0
 178 372 171 383 153 383 c 0
 134 383 122 370 116 359 c 0
 55 395 l 0
 59 424 103 463 153 463 c 0
 216 463 261 428 261 359 c 0
 261 267 138 255 138 177 c 0
 138 128 176 79 250 65 c 0
 250 96 243 109 231 116 c 0
 231 163 l 0
 244 159 266 156 280 156 c 0
 306 156 326 167 326 183 c 0
 326 200 305 211 277 211 c 0
 263 211 243 209 231 205 c 0
 231 258 l 0
 245 263 264 268 284 268 c 0
 334 268 389 245 389 183 c 0
 389 132 339 117 324 112 c 0
 330 102 333 91 333 69 c 0
 393 86 450 140 450 240 c 0
 450 307 432 356 391 395 c 0
 439 463 l 0
 498 419 533 346 533 240 c 0
EndSplineSet
Ligature2: "LigatureSubstitutionlookup169 subtable" u100D_u100E u103C
Ligature2: "LigatureSubstitutionlookup167 subtable" u100D_u100E u103C u1031
Ligature2: "LigatureSubstitutionlookup167 subtable" u100D_u100E u103C.wide u1031
Ligature2: "LigatureSubstitutionlookup167 subtable" u100D_u100E u103C_u103D.narr u1031
Ligature2: "LigatureSubstitutionlookup167 subtable" u100D_u100E u103C_u103D.wide u1031
Ligature2: "LigatureSubstitutionlookup165 subtable" u100D_u100E u103C
Ligature2: "LigatureSubstitutionlookup165 subtable" u100D_u100E u103C_u103D.narr
Ligature2: "LigatureSubstitutionlookup165 subtable" u100D_u100E u103C_u102F.narr
Ligature2: "LigatureSubstitutionlookup163 subtable" u100D_u100E u1031
Ligature2: "LigatureSubstitutionlookup163 subtable" u100D_u100E u1084
Ligature2: "LigatureSubstitutionlookup162 subtable" u100D_u100E u103D
Ligature2: "LigatureSubstitutionlookup162 subtable" u100D_u100E u103E
Ligature2: "LigatureSubstitutionlookup162 subtable" u100D_u100E u103D_u103E
Ligature2: "LigatureSubstitutionlookup162 subtable" u100D_u100E
Ligature2: "LigatureSubstitutionlookup162 subtable" u100D_u100E u105F
Ligature2: "LigatureSubstitutionlookup162 subtable" u100D_u100E u1060
Ligature2: "LigatureSubstitutionlookup162 subtable" u100D_u100E u1082
Ligature2: "LigatureSubstitutionlookup158 subtable" u100D_u100E u1039
Ligature2: "LigatureSubstitutionlookup130 subtable" u1004.kinzi u200D u100D_u100E
Ligature2: "LigatureSubstitutionlookup130 subtable" u101B.kinzi u200D u100D_u100E
Ligature2: "LigatureSubstitutionlookup127 subtable" u1004.kinzi u200D u100D_u100E
Ligature2: "LigatureSubstitutionlookup127 subtable" u101B.kinzi u200D u100D_u100E
Ligature2: "LigatureSubstitutionlookup124 subtable" u1004.kinzi u200D u100D_u100E
Ligature2: "LigatureSubstitutionlookup124 subtable" u101B.kinzi u200D u100D_u100E
Ligature2: "sub_ligature_cligmymr_4 subtable" u100D u100E.med
MultipleSubs2: "MultipleSubstitutionlookup139 subtable" u200C u1031 u100D_u100E
MultipleSubs2: "MultipleSubstitutionlookup137 subtable" u200C u1084 u100D_u100E
MultipleSubs2: "MultipleSubstitutionlookup129 subtable" u100D_u100E u101B.kinzi
MultipleSubs2: "MultipleSubstitutionlookup128 subtable" u100D_u100E u1004.kinzi
Comment: "GDL_order: 1+AAoA-mark: 80+AAoA"
EndChar

StartChar: u100E
Encoding: 144 4110 144
Width: 587
VWidth: 0
GlyphClass: 2
Flags: HW
AnchorPoint: "R" 0 0 mark 0
AnchorPoint: "BS" 290 -53 basechar 0
AnchorPoint: "L" 290 -53 basechar 0
AnchorPoint: "U" 290 495 basechar 0
AnchorPoint: "BD" 285 -53 basechar 0
LayerCount: 2
Back
Fore
SplineSet
532 240 m 0
 532 84 419 -20 290 -20 c 0
 146 -20 55 83 55 167 c 0
 55 311 194 286 194 341 c 0
 194 370 175 380 156 380 c 0
 143 380 129 370 126 363 c 0
 55 406 l 0
 64 430 106 463 153 463 c 0
 219 463 277 423 277 341 c 0
 277 234 148 243 148 167 c 0
 148 137 196 73 290 73 c 0
 349 73 439 120 439 240 c 0
 439 302 420 352 385 387 c 0
 439 463 l 0
 497 419 532 349 532 240 c 0
EndSplineSet
Ligature2: "LigatureSubstitutionlookup169 subtable" u100E u103C
Ligature2: "LigatureSubstitutionlookup167 subtable" u100E u103C u1031
Ligature2: "LigatureSubstitutionlookup167 subtable" u100E u103C.wide u1031
Ligature2: "LigatureSubstitutionlookup167 subtable" u100E u103C_u103D.narr u1031
Ligature2: "LigatureSubstitutionlookup167 subtable" u100E u103C_u103D.wide u1031
Ligature2: "LigatureSubstitutionlookup165 subtable" u100E u103C
Ligature2: "LigatureSubstitutionlookup165 subtable" u100E u103C_u103D.narr
Ligature2: "LigatureSubstitutionlookup165 subtable" u100E u103C_u102F.narr
Ligature2: "LigatureSubstitutionlookup163 subtable" u100E u1031
Ligature2: "LigatureSubstitutionlookup163 subtable" u100E u1084
Ligature2: "LigatureSubstitutionlookup162 subtable" u100E u103D
Ligature2: "LigatureSubstitutionlookup162 subtable" u100E u103E
Ligature2: "LigatureSubstitutionlookup162 subtable" u100E u103D_u103E
Ligature2: "LigatureSubstitutionlookup162 subtable" u100E
Ligature2: "LigatureSubstitutionlookup162 subtable" u100E u105F
Ligature2: "LigatureSubstitutionlookup162 subtable" u100E u1060
Ligature2: "LigatureSubstitutionlookup162 subtable" u100E u1082
Ligature2: "LigatureSubstitutionlookup158 subtable" u100E u1039
Ligature2: "LigatureSubstitutionlookup130 subtable" u1004.kinzi u200D u100E
Ligature2: "LigatureSubstitutionlookup130 subtable" u101B.kinzi u200D u100E
Ligature2: "LigatureSubstitutionlookup127 subtable" u1004.kinzi u200D u100E
Ligature2: "LigatureSubstitutionlookup127 subtable" u101B.kinzi u200D u100E
Ligature2: "LigatureSubstitutionlookup124 subtable" u1004.kinzi u200D u100E
Ligature2: "LigatureSubstitutionlookup124 subtable" u101B.kinzi u200D u100E
MultipleSubs2: "MultipleSubstitutionlookup139 subtable" u200C u1031 u100E
MultipleSubs2: "MultipleSubstitutionlookup137 subtable" u200C u1084 u100E
MultipleSubs2: "MultipleSubstitutionlookup136 subtable" u200C u103C_u103D.narr u100E
MultipleSubs2: "MultipleSubstitutionlookup135 subtable" u200C u103C_u102F.narr u100E
MultipleSubs2: "MultipleSubstitutionlookup134 subtable" u200C u103C u100E
MultipleSubs2: "MultipleSubstitutionlookup129 subtable" u100E u101B.kinzi
MultipleSubs2: "MultipleSubstitutionlookup128 subtable" u100E u1004.kinzi
PairPos2: "PairwisePositioningkerninglooku subtable" uAA60.med.kham dx=-90 dy=0 dh=0 dv=0 dx=0 dy=0 dh=90 dv=0
PairPos2: "PairwisePositioningkerninglooku subtable" uAA60.med dx=-90 dy=0 dh=0 dv=0 dx=0 dy=0 dh=90 dv=0
PairPos2: "PairwisePositioningkerninglooku subtable" u1021.med dx=-90 dy=0 dh=0 dv=0 dx=0 dy=0 dh=90 dv=0
PairPos2: "PairwisePositioningkerninglooku subtable" u101E.med dx=-90 dy=0 dh=0 dv=0 dx=0 dy=0 dh=90 dv=0
PairPos2: "PairwisePositioningkerninglooku subtable" u101C.med dx=-90 dy=0 dh=0 dv=0 dx=0 dy=0 dh=90 dv=0
PairPos2: "PairwisePositioningkerninglooku subtable" u101A.med dx=-90 dy=0 dh=0 dv=0 dx=0 dy=0 dh=90 dv=0
PairPos2: "PairwisePositioningkerninglooku subtable" u1018.med dx=-90 dy=0 dh=0 dv=0 dx=0 dy=0 dh=90 dv=0
PairPos2: "PairwisePositioningkerninglooku subtable" u1011.med dx=-90 dy=0 dh=0 dv=0 dx=0 dy=0 dh=90 dv=0
PairPos2: "PairwisePositioningkerninglooku subtable" u1010.med dx=-90 dy=0 dh=0 dv=0 dx=0 dy=0 dh=90 dv=0
PairPos2: "PairwisePositioningkerninglooku subtable" u100F.med dx=-90 dy=0 dh=0 dv=0 dx=0 dy=0 dh=90 dv=0
PairPos2: "PairwisePositioningkerninglooku subtable" u100C.med dx=-90 dy=0 dh=0 dv=0 dx=0 dy=0 dh=90 dv=0
PairPos2: "PairwisePositioningkerninglooku subtable" u100A.med dx=-90 dy=0 dh=0 dv=0 dx=0 dy=0 dh=90 dv=0
PairPos2: "PairwisePositioningkerninglooku subtable" u1006.med dx=-90 dy=0 dh=0 dv=0 dx=0 dy=0 dh=90 dv=0
PairPos2: "PairwisePositioningkerninglooku subtable" u1003.med dx=-90 dy=0 dh=0 dv=0 dx=0 dy=0 dh=90 dv=0
PairPos2: "PairwisePositioningkerninglooku subtable" u1000.med dx=-90 dy=0 dh=0 dv=0 dx=0 dy=0 dh=90 dv=0
Position2: "SinglePositioninglookup48 per glyph data 0" dx=100 dy=0 dh=50 dv=0
Position2: "SinglePositioninglookup30 subtable" dx=140 dy=0 dh=140 dv=0
Comment: "GDL_order: 1+AAoA-mark: 80+AAoA"
EndChar

StartChar: u100E.med
Encoding: 145 -1 145
Width: 0
VWidth: 0
GlyphClass: 4
Flags: HW
AnchorPoint: "BS" -234 -53 mark 0
AnchorPoint: "LLM" -559 -53 basemark 0
AnchorPoint: "BSM" 73 -53 basemark 0
AnchorPoint: "LM" 112 -53 basemark 0
AnchorPoint: "BS" 232 -53 basemark 0
AnchorPoint: "BSM" -238 -53 mark 0
LayerCount: 2
Back
Fore
SplineSet
-48 -264 m 0
 -48 -378 -133 -464 -234 -464 c 0
 -345 -464 -415 -383 -415 -320 c 0
 -415 -208 -309 -228 -309 -185 c 0
 -309 -159 -327 -156 -335 -156 c 0
 -350 -156 -359 -169 -361 -176 c 0
 -415 -143 l 0
 -411 -113 -372 -91 -335 -91 c 0
 -290 -91 -244 -123 -244 -185 c 0
 -244 -267 -344 -260 -344 -320 c 0
 -344 -343 -305 -393 -234 -393 c 0
 -184 -393 -121 -350 -121 -264 c 0
 -121 -212 -132 -182 -162 -151 c 0
 -119 -91 l 0
 -75 -128 -48 -177 -48 -264 c 0
EndSplineSet
Ligature2: "LigatureSubstitutionlookup179 subtable" u100E.med u102D
Ligature2: "LigatureSubstitutionlookup179 subtable" u100E.med u102E
Ligature2: "LigatureSubstitutionlookup179 subtable" u100E.med u1032
Ligature2: "LigatureSubstitutionlookup179 subtable" u100E.med u103A
Ligature2: "LigatureSubstitutionlookup171 subtable" u100E.med u103C u1031
Ligature2: "LigatureSubstitutionlookup159 subtable" u100E.med u1031
Ligature2: "LigatureSubstitutionlookup159 subtable" u100E.med u103C
Ligature2: "sub_ligature_cligmymr_0 subtable" u1039 u100E
MultipleSubs2: "MultipleSubstitutionlookup138 subtable" u1039 u100E.med
Comment: "GDL_order: 5+AAoA-mark: 80+AAoA"
EndChar

StartChar: u100F
Encoding: 146 4111 146
Width: 1047
VWidth: 0
GlyphClass: 2
Flags: HW
AnchorPoint: "R" 0 0 mark 0
AnchorPoint: "BS" 767 -53 basechar 0
AnchorPoint: "L" 767 -53 basechar 0
AnchorPoint: "BD" 526 -53 basechar 0
AnchorPoint: "U" 767 495 basechar 0
LayerCount: 2
Back
Fore
SplineSet
991 222 m 0
 991 88 903 -20 772 -20 c 0
 755 -20 732 -18 719 -11 c 0
 751 77 l 0
 757 75 765 73 772 73 c 0
 853 73 898 141 898 222 c 0
 898 302 848 370 767 370 c 0
 694 370 655 301 655 222 c 0
 655 170 673 150 673 106 c 0
 673 24 591 -20 526 -20 c 0
 462 -20 378 24 378 106 c 0
 378 156 397 171 397 222 c 0
 397 302 354 370 280 370 c 0
 199 370 148 302 148 222 c 0
 148 141 193 73 275 73 c 0
 284 73 291 75 296 77 c 0
 327 -11 l 0
 315 -18 291 -20 275 -20 c 0
 143 -20 55 88 55 222 c 0
 55 354 148 464 280 464 c 0
 319 464 364 449 401 422 c 0
 436 447 473 464 526 464 c 0
 576 464 616 447 649 423 c 0
 689 450 731 464 767 464 c 0
 898 464 991 354 991 222 c 0
591 349 m 0
 575 360 547 370 526 370 c 0
 504 370 476 361 459 350 c 0
 478 314 489 272 489 222 c 0
 489 195 472 148 472 129 c 0
 472 88 495 73 526 73 c 0
 552 73 578 88 578 129 c 0
 578 153 563 195 563 222 c 0
 563 271 572 314 591 349 c 0
EndSplineSet
Ligature2: "LigatureSubstitutionlookup169 subtable" u100F u103C
Ligature2: "LigatureSubstitutionlookup167 subtable" u100F u103C u1031
Ligature2: "LigatureSubstitutionlookup167 subtable" u100F u103C.wide u1031
Ligature2: "LigatureSubstitutionlookup167 subtable" u100F u103C_u103D.narr u1031
Ligature2: "LigatureSubstitutionlookup167 subtable" u100F u103C_u103D.wide u1031
Ligature2: "LigatureSubstitutionlookup165 subtable" u100F u103C
Ligature2: "LigatureSubstitutionlookup165 subtable" u100F u103C_u103D.narr
Ligature2: "LigatureSubstitutionlookup165 subtable" u100F u103C_u102F.narr
Ligature2: "LigatureSubstitutionlookup163 subtable" u100F u1031
Ligature2: "LigatureSubstitutionlookup163 subtable" u100F u1084
Ligature2: "LigatureSubstitutionlookup162 subtable" u100F u103D
Ligature2: "LigatureSubstitutionlookup162 subtable" u100F u103E
Ligature2: "LigatureSubstitutionlookup162 subtable" u100F u103D_u103E
Ligature2: "LigatureSubstitutionlookup162 subtable" u100F
Ligature2: "LigatureSubstitutionlookup162 subtable" u100F u105F
Ligature2: "LigatureSubstitutionlookup162 subtable" u100F u1060
Ligature2: "LigatureSubstitutionlookup162 subtable" u100F u1082
Ligature2: "LigatureSubstitutionlookup158 subtable" u100F u1039
Ligature2: "LigatureSubstitutionlookup130 subtable" u1004.kinzi u200D u100F
Ligature2: "LigatureSubstitutionlookup130 subtable" u101B.kinzi u200D u100F
Ligature2: "LigatureSubstitutionlookup127 subtable" u1004.kinzi u200D u100F
Ligature2: "LigatureSubstitutionlookup127 subtable" u101B.kinzi u200D u100F
Ligature2: "LigatureSubstitutionlookup124 subtable" u1004.kinzi u200D u100F
Ligature2: "LigatureSubstitutionlookup124 subtable" u101B.kinzi u200D u100F
MultipleSubs2: "MultipleSubstitutionlookup139 subtable" u200C u1031 u100F
MultipleSubs2: "MultipleSubstitutionlookup137 subtable" u200C u1084 u100F
MultipleSubs2: "MultipleSubstitutionlookup136 subtable" u200C u103C_u103D.wide u100F
MultipleSubs2: "MultipleSubstitutionlookup135 subtable" u200C u103C_u102F.wide u100F
MultipleSubs2: "MultipleSubstitutionlookup134 subtable" u200C u103C.wide u100F
MultipleSubs2: "MultipleSubstitutionlookup129 subtable" u100F u101B.kinzi
MultipleSubs2: "MultipleSubstitutionlookup128 subtable" u100F u1004.kinzi
Comment: "GDL_order: 1+AAoA-mark: 80+AAoA"
EndChar

StartChar: u100F.med
Encoding: 147 -1 147
Width: 0
VWidth: 0
GlyphClass: 4
Flags: HW
AnchorPoint: "LLM" -933 -53 basemark 0
AnchorPoint: "BD" -417 -53 mark 0
AnchorPoint: "BSM" 66 -53 basemark 0
AnchorPoint: "LM" 99 -53 basemark 0
AnchorPoint: "BSM" 907 -53 mark 0
AnchorPoint: "BDM" -410 -53 mark 0
AnchorPoint: "BD" 409 -53 basemark 0
LayerCount: 2
Back
Fore
SplineSet
-56 -277 m 0
 -56 -380 -124 -464 -224 -464 c 0
 -239 -464 -258 -461 -266 -457 c 0
 -241 -389 l 0
 -236 -390 -230 -392 -224 -392 c 0
 -162 -392 -127 -340 -127 -277 c 0
 -127 -216 -167 -162 -228 -162 c 0
 -284 -162 -315 -216 -315 -277 c 0
 -315 -317 -301 -331 -301 -366 c 0
 -301 -429 -365 -464 -415 -464 c 0
 -461 -464 -527 -429 -527 -366 c 0
 -527 -329 -514 -317 -514 -277 c 0
 -514 -216 -546 -162 -604 -162 c 0
 -665 -162 -706 -216 -706 -277 c 0
 -706 -340 -670 -392 -608 -392 c 0
 -602 -392 -596 -390 -592 -389 c 0
 -566 -457 l 0
 -575 -462 -594 -464 -608 -464 c 0
 -708 -464 -777 -380 -777 -277 c 0
 -777 -175 -706 -90 -604 -90 c 0
 -573 -90 -538 -99 -509 -123 c 0
 -483 -102 -454 -90 -415 -90 c 0
 -376 -90 -344 -101 -320 -121 c 0
 -289 -99 -256 -90 -228 -90 c 0
 -127 -90 -56 -175 -56 -277 c 0
-364 -179 m 0
 -378 -169 -394 -162 -415 -162 c 0
 -434 -162 -449 -169 -465 -178 c 0
 -450 -205 -442 -237 -442 -277 c 0
 -442 -298 -455 -335 -455 -348 c 0
 -455 -381 -438 -392 -415 -392 c 0
 -394 -392 -374 -381 -374 -348 c 0
 -374 -330 -386 -298 -386 -277 c 0
 -386 -238 -378 -206 -364 -179 c 0
EndSplineSet
Ligature2: "LigatureSubstitutionlookup179 subtable" u100F.med u102D
Ligature2: "LigatureSubstitutionlookup179 subtable" u100F.med u102E
Ligature2: "LigatureSubstitutionlookup179 subtable" u100F.med u1032
Ligature2: "LigatureSubstitutionlookup179 subtable" u100F.med u103A
Ligature2: "LigatureSubstitutionlookup171 subtable" u100F.med u103C u1031
Ligature2: "LigatureSubstitutionlookup159 subtable" u100F.med u1031
Ligature2: "LigatureSubstitutionlookup159 subtable" u100F.med u103C
Ligature2: "sub_ligature_cligmymr_0 subtable" u1039 u100F
MultipleSubs2: "MultipleSubstitutionlookup138 subtable" u1039 u100F.med
Comment: "GDL_order: 2+AAoA-mark: 80+AAoA"
EndChar

StartChar: u100F_u100B
Encoding: 148 -1 148
Width: 1047
VWidth: 0
GlyphClass: 2
Flags: HW
AnchorPoint: "R" 0 0 mark 0
AnchorPoint: "BS" 1060 -53 basechar 0
AnchorPoint: "LL" 370 -53 basechar 0
AnchorPoint: "L" 960 -53 basechar 0
AnchorPoint: "U" 767 495 basechar 0
AnchorPoint: "BD" 1027 -53 basechar 0
LayerCount: 2
Back
Fore
SplineSet
888 -464 m 0
 742 -464 l 0
 742 -353 l 0
 728 -356 710 -358 694 -358 c 0
 611 -358 525 -332 525 -226 c 0
 525 -116 618 -93 694 -93 c 0
 726 -93 773 -98 827 -120 c 0
 814 -189 l 0
 783 -178 743 -165 694 -165 c 0
 647 -165 598 -175 598 -226 c 0
 598 -276 646 -287 694 -287 c 0
 738 -287 774 -282 813 -266 c 0
 813 -393 l 0
 888 -393 l 0
 888 -464 l 0
991 222 m 0
 991 88 903 -20 772 -20 c 0
 755 -20 732 -18 719 -11 c 0
 751 77 l 0
 757 75 765 73 772 73 c 0
 853 73 898 141 898 222 c 0
 898 302 848 370 767 370 c 0
 694 370 655 301 655 222 c 0
 655 170 673 150 673 106 c 0
 673 24 591 -20 526 -20 c 0
 462 -20 378 24 378 106 c 0
 378 156 397 171 397 222 c 0
 397 302 354 370 280 370 c 0
 199 370 148 302 148 222 c 0
 148 141 193 73 275 73 c 0
 284 73 291 75 296 77 c 0
 327 -11 l 0
 315 -18 291 -20 275 -20 c 0
 143 -20 55 88 55 222 c 0
 55 354 148 464 280 464 c 0
 319 464 364 449 401 422 c 0
 436 447 473 464 526 464 c 0
 576 464 616 447 649 423 c 0
 689 450 731 464 767 464 c 0
 898 464 991 354 991 222 c 0
591 349 m 0
 575 360 547 370 526 370 c 0
 504 370 476 361 459 350 c 0
 478 314 489 272 489 222 c 0
 489 195 472 148 472 129 c 0
 472 88 495 73 526 73 c 0
 552 73 578 88 578 129 c 0
 578 153 563 195 563 222 c 0
 563 271 572 314 591 349 c 0
EndSplineSet
Ligature2: "LigatureSubstitutionlookup169 subtable" u100F_u100B u103C
Ligature2: "LigatureSubstitutionlookup167 subtable" u100F_u100B u103C u1031
Ligature2: "LigatureSubstitutionlookup167 subtable" u100F_u100B u103C.wide u1031
Ligature2: "LigatureSubstitutionlookup167 subtable" u100F_u100B u103C_u103D.narr u1031
Ligature2: "LigatureSubstitutionlookup167 subtable" u100F_u100B u103C_u103D.wide u1031
Ligature2: "LigatureSubstitutionlookup165 subtable" u100F_u100B u103C
Ligature2: "LigatureSubstitutionlookup165 subtable" u100F_u100B u103C_u103D.narr
Ligature2: "LigatureSubstitutionlookup165 subtable" u100F_u100B u103C_u102F.narr
Ligature2: "LigatureSubstitutionlookup163 subtable" u100F_u100B u1031
Ligature2: "LigatureSubstitutionlookup163 subtable" u100F_u100B u1084
Ligature2: "LigatureSubstitutionlookup162 subtable" u100F_u100B u103D
Ligature2: "LigatureSubstitutionlookup162 subtable" u100F_u100B u103E
Ligature2: "LigatureSubstitutionlookup162 subtable" u100F_u100B u103D_u103E
Ligature2: "LigatureSubstitutionlookup162 subtable" u100F_u100B
Ligature2: "LigatureSubstitutionlookup162 subtable" u100F_u100B u105F
Ligature2: "LigatureSubstitutionlookup162 subtable" u100F_u100B u1060
Ligature2: "LigatureSubstitutionlookup162 subtable" u100F_u100B u1082
Ligature2: "LigatureSubstitutionlookup158 subtable" u100F_u100B u1039
Ligature2: "LigatureSubstitutionlookup130 subtable" u1004.kinzi u200D u100F_u100B
Ligature2: "LigatureSubstitutionlookup130 subtable" u101B.kinzi u200D u100F_u100B
Ligature2: "LigatureSubstitutionlookup127 subtable" u1004.kinzi u200D u100F_u100B
Ligature2: "LigatureSubstitutionlookup127 subtable" u101B.kinzi u200D u100F_u100B
Ligature2: "LigatureSubstitutionlookup124 subtable" u1004.kinzi u200D u100F_u100B
Ligature2: "LigatureSubstitutionlookup124 subtable" u101B.kinzi u200D u100F_u100B
Ligature2: "sub_ligature_cligmymr_4 subtable" u100F u100B.med
MultipleSubs2: "MultipleSubstitutionlookup139 subtable" u200C u1031 u100F_u100B
MultipleSubs2: "MultipleSubstitutionlookup137 subtable" u200C u1084 u100F_u100B
MultipleSubs2: "MultipleSubstitutionlookup129 subtable" u100F_u100B u101B.kinzi
MultipleSubs2: "MultipleSubstitutionlookup128 subtable" u100F_u100B u1004.kinzi
Comment: "GDL_order: 1+AAoA-mark: 80+AAoA"
EndChar

StartChar: u100F_u100D
Encoding: 149 -1 149
Width: 1047
VWidth: 0
GlyphClass: 2
Flags: HW
AnchorPoint: "R" 0 0 mark 0
AnchorPoint: "BS" -36 -53 basechar 0
AnchorPoint: "LL" 66 -53 basechar 0
AnchorPoint: "L" 1011 -53 basechar 0
AnchorPoint: "U" 767 495 basechar 0
AnchorPoint: "BD" -30 -53 basechar 0
LayerCount: 2
Back
Fore
SplineSet
885 -211 m 0
 653 -211 l 0
 663 -235 666 -263 666 -292 c 0
 666 -357 650 -417 614 -464 c 0
 441 -464 l 0
 408 -400 l 0
 451 -373 472 -331 472 -292 c 0
 472 -229 420 -177 356 -177 c 0
 295 -177 243 -229 243 -292 c 0
 243 -331 259 -372 306 -400 c 0
 272 -464 l 0
 200 -428 172 -352 172 -292 c 0
 172 -190 255 -106 356 -106 c 0
 459 -106 543 -190 543 -292 c 0
 543 -325 535 -360 514 -393 c 0
 575 -393 l 0
 591 -363 600 -329 600 -292 c 0
 600 -230 580 -183 547 -140 c 0
 814 -140 l 0
 814 -88 l 0
 885 -88 l 0
 885 -211 l 0
991 222 m 0
 991 88 903 -20 772 -20 c 0
 755 -20 732 -18 719 -11 c 0
 751 77 l 0
 757 75 765 73 772 73 c 0
 853 73 898 141 898 222 c 0
 898 302 848 370 767 370 c 0
 694 370 655 301 655 222 c 0
 655 170 673 150 673 106 c 0
 673 24 591 -20 526 -20 c 0
 462 -20 378 24 378 106 c 0
 378 156 397 171 397 222 c 0
 397 302 354 370 280 370 c 0
 199 370 148 302 148 222 c 0
 148 141 193 73 275 73 c 0
 284 73 291 75 296 77 c 0
 327 -11 l 0
 315 -18 291 -20 275 -20 c 0
 143 -20 55 88 55 222 c 0
 55 354 148 464 280 464 c 0
 319 464 364 449 401 422 c 0
 436 447 473 464 526 464 c 0
 576 464 616 447 649 423 c 0
 689 450 731 464 767 464 c 0
 898 464 991 354 991 222 c 0
591 349 m 0
 575 360 547 370 526 370 c 0
 504 370 476 361 459 350 c 0
 478 314 489 272 489 222 c 0
 489 195 472 148 472 129 c 0
 472 88 495 73 526 73 c 0
 552 73 578 88 578 129 c 0
 578 153 563 195 563 222 c 0
 563 271 572 314 591 349 c 0
EndSplineSet
Ligature2: "LigatureSubstitutionlookup169 subtable" u100F_u100D u103C
Ligature2: "LigatureSubstitutionlookup167 subtable" u100F_u100D u103C u1031
Ligature2: "LigatureSubstitutionlookup167 subtable" u100F_u100D u103C.wide u1031
Ligature2: "LigatureSubstitutionlookup167 subtable" u100F_u100D u103C_u103D.narr u1031
Ligature2: "LigatureSubstitutionlookup167 subtable" u100F_u100D u103C_u103D.wide u1031
Ligature2: "LigatureSubstitutionlookup165 subtable" u100F_u100D u103C
Ligature2: "LigatureSubstitutionlookup165 subtable" u100F_u100D u103C_u103D.narr
Ligature2: "LigatureSubstitutionlookup165 subtable" u100F_u100D u103C_u102F.narr
Ligature2: "LigatureSubstitutionlookup163 subtable" u100F_u100D u1031
Ligature2: "LigatureSubstitutionlookup163 subtable" u100F_u100D u1084
Ligature2: "LigatureSubstitutionlookup162 subtable" u100F_u100D u103D
Ligature2: "LigatureSubstitutionlookup162 subtable" u100F_u100D u103E
Ligature2: "LigatureSubstitutionlookup162 subtable" u100F_u100D u103D_u103E
Ligature2: "LigatureSubstitutionlookup162 subtable" u100F_u100D
Ligature2: "LigatureSubstitutionlookup162 subtable" u100F_u100D u105F
Ligature2: "LigatureSubstitutionlookup162 subtable" u100F_u100D u1060
Ligature2: "LigatureSubstitutionlookup162 subtable" u100F_u100D u1082
Ligature2: "LigatureSubstitutionlookup158 subtable" u100F_u100D u1039
Ligature2: "LigatureSubstitutionlookup130 subtable" u1004.kinzi u200D u100F_u100D
Ligature2: "LigatureSubstitutionlookup130 subtable" u101B.kinzi u200D u100F_u100D
Ligature2: "LigatureSubstitutionlookup127 subtable" u1004.kinzi u200D u100F_u100D
Ligature2: "LigatureSubstitutionlookup127 subtable" u101B.kinzi u200D u100F_u100D
Ligature2: "LigatureSubstitutionlookup124 subtable" u1004.kinzi u200D u100F_u100D
Ligature2: "LigatureSubstitutionlookup124 subtable" u101B.kinzi u200D u100F_u100D
Ligature2: "sub_ligature_cligmymr_4 subtable" u100F u100D.med
MultipleSubs2: "MultipleSubstitutionlookup139 subtable" u200C u1031 u100F_u100D
MultipleSubs2: "MultipleSubstitutionlookup137 subtable" u200C u1084 u100F_u100D
MultipleSubs2: "MultipleSubstitutionlookup129 subtable" u100F_u100D u101B.kinzi
MultipleSubs2: "MultipleSubstitutionlookup128 subtable" u100F_u100D u1004.kinzi
Comment: "GDL_order: 1+AAoA-mark: 80+AAoA"
EndChar

StartChar: u1010
Encoding: 150 4112 150
Width: 976
VWidth: 0
GlyphClass: 2
Flags: HW
AnchorPoint: "R" 0 0 mark 0
AnchorPoint: "BS" 681 -53 basechar 0
AnchorPoint: "L" 681 -53 basechar 0
AnchorPoint: "BD" 489 -53 basechar 0
AnchorPoint: "U" 681 495 basechar 0
LayerCount: 2
Back
Fore
SplineSet
922 222 m 0
 922 88 812 -20 681 -20 c 0
 656 -20 630 -17 611 -7 c 0
 648 78 l 0
 658 75 670 73 681 73 c 0
 762 73 829 141 829 222 c 0
 829 302 762 370 681 370 c 0
 596 370 536 275 530 217 c 0
 530 99 432 -20 294 -20 c 0
 160 -20 55 88 55 222 c 0
 55 354 161 464 291 464 c 0
 374 464 448 419 489 354 c 0
 529 414 599 464 681 464 c 0
 812 464 922 354 922 222 c 0
437 220 m 0
 437 301 374 370 294 370 c 0
 213 370 148 302 148 222 c 0
 148 141 213 73 291 73 c 0
 373 73 437 143 437 220 c 0
EndSplineSet
Substitution2: "sub_single_cligmymr_2 subtable" u1010.kham
Ligature2: "LigatureSubstitutionlookup169 subtable" u1010 u103C
Ligature2: "LigatureSubstitutionlookup167 subtable" u1010 u103C u1031
Ligature2: "LigatureSubstitutionlookup167 subtable" u1010 u103C.wide u1031
Ligature2: "LigatureSubstitutionlookup167 subtable" u1010 u103C_u103D.narr u1031
Ligature2: "LigatureSubstitutionlookup167 subtable" u1010 u103C_u103D.wide u1031
Ligature2: "LigatureSubstitutionlookup165 subtable" u1010 u103C
Ligature2: "LigatureSubstitutionlookup165 subtable" u1010 u103C_u103D.narr
Ligature2: "LigatureSubstitutionlookup165 subtable" u1010 u103C_u102F.narr
Ligature2: "LigatureSubstitutionlookup163 subtable" u1010 u1031
Ligature2: "LigatureSubstitutionlookup163 subtable" u1010 u1084
Ligature2: "LigatureSubstitutionlookup162 subtable" u1010 u103D
Ligature2: "LigatureSubstitutionlookup162 subtable" u1010 u103E
Ligature2: "LigatureSubstitutionlookup162 subtable" u1010 u103D_u103E
Ligature2: "LigatureSubstitutionlookup162 subtable" u1010
Ligature2: "LigatureSubstitutionlookup162 subtable" u1010 u105F
Ligature2: "LigatureSubstitutionlookup162 subtable" u1010 u1060
Ligature2: "LigatureSubstitutionlookup162 subtable" u1010 u1082
Ligature2: "LigatureSubstitutionlookup158 subtable" u1010 u1039
Ligature2: "LigatureSubstitutionlookup130 subtable" u1004.kinzi u200D u1010
Ligature2: "LigatureSubstitutionlookup130 subtable" u101B.kinzi u200D u1010
Ligature2: "LigatureSubstitutionlookup127 subtable" u1004.kinzi u200D u1010
Ligature2: "LigatureSubstitutionlookup127 subtable" u101B.kinzi u200D u1010
Ligature2: "LigatureSubstitutionlookup124 subtable" u1004.kinzi u200D u1010
Ligature2: "LigatureSubstitutionlookup124 subtable" u101B.kinzi u200D u1010
MultipleSubs2: "MultipleSubstitutionlookup139 subtable" u200C u1031 u1010
MultipleSubs2: "MultipleSubstitutionlookup137 subtable" u200C u1084 u1010
MultipleSubs2: "MultipleSubstitutionlookup136 subtable" u200C u103C_u103D.wide u1010
MultipleSubs2: "MultipleSubstitutionlookup135 subtable" u200C u103C_u102F.wide u1010
MultipleSubs2: "MultipleSubstitutionlookup134 subtable" u200C u103C.wide u1010
MultipleSubs2: "MultipleSubstitutionlookup129 subtable" u1010 u101B.kinzi
MultipleSubs2: "MultipleSubstitutionlookup128 subtable" u1010 u1004.kinzi
Comment: "GDL_order: 1+AAoA-mark: 80+AAoA"
EndChar

StartChar: u1010.med
Encoding: 151 -1 151
Width: 0
VWidth: 0
GlyphClass: 4
Flags: HW
AnchorPoint: "LLM" -873 -53 basemark 0
AnchorPoint: "BD" -382 -53 mark 0
AnchorPoint: "BSM" 106 -53 basemark 0
AnchorPoint: "LM" 106 -53 basemark 0
AnchorPoint: "BSM" 867 -53 mark 0
AnchorPoint: "BDM" -379 -53 mark 0
AnchorPoint: "BD" 384 -53 basemark 0
LayerCount: 2
Back
Fore
SplineSet
-50 -277 m 0
 -50 -380 -132 -464 -235 -464 c 0
 -255 -464 -274 -461 -289 -453 c 0
 -261 -387 l 0
 -253 -391 -243 -392 -235 -392 c 0
 -172 -392 -121 -339 -121 -277 c 0
 -121 -216 -172 -162 -235 -162 c 0
 -298 -162 -347 -235 -350 -280 c 0
 -350 -367 -424 -464 -532 -464 c 0
 -635 -464 -717 -380 -717 -277 c 0
 -717 -175 -634 -90 -534 -90 c 0
 -470 -90 -415 -124 -382 -176 c 0
 -350 -128 -300 -90 -235 -90 c 0
 -132 -90 -50 -175 -50 -277 c 0
-422 -278 m 0
 -422 -216 -471 -162 -532 -162 c 0
 -595 -162 -646 -216 -646 -277 c 0
 -646 -339 -595 -392 -534 -392 c 0
 -471 -392 -422 -337 -422 -278 c 0
EndSplineSet
Ligature2: "LigatureSubstitutionlookup179 subtable" u1010.med u102D
Ligature2: "LigatureSubstitutionlookup179 subtable" u1010.med u102E
Ligature2: "LigatureSubstitutionlookup179 subtable" u1010.med u1032
Ligature2: "LigatureSubstitutionlookup179 subtable" u1010.med u103A
Ligature2: "LigatureSubstitutionlookup171 subtable" u1010.med u103C u1031
Ligature2: "LigatureSubstitutionlookup159 subtable" u1010.med u1031
Ligature2: "LigatureSubstitutionlookup159 subtable" u1010.med u103C
Ligature2: "sub_ligature_cligmymr_0 subtable" u1039 u1010
MultipleSubs2: "MultipleSubstitutionlookup138 subtable" u1039 u1010.med
Comment: "GDL_order: 2+AAoA-mark: 80+AAoA"
EndChar

StartChar: u1010_u103D.med
Encoding: 152 -1 152
Width: 0
VWidth: 0
GlyphClass: 4
Flags: HW
AnchorPoint: "BS" -229 -53 mark 0
AnchorPoint: "LLM" -562 -53 basemark 0
AnchorPoint: "BSM" -229 -53 mark 0
AnchorPoint: "LM" 101 -53 basemark 0
AnchorPoint: "BS" 235 -53 basemark 0
AnchorPoint: "BSM" 555 -53 basemark 0
LayerCount: 2
Back
Fore
SplineSet
-65 -375 m 0
 -65 -423 -104 -464 -153 -464 c 0
 -204 -464 -242 -425 -242 -375 c 0
 -242 -327 -204 -284 -153 -284 c 0
 -101 -284 -65 -326 -65 -375 c 0
-111 -375 m 0
 -111 -352 -130 -330 -153 -330 c 0
 -176 -330 -196 -350 -196 -375 c 0
 -196 -399 -178 -418 -153 -418 c 0
 -129 -418 -111 -398 -111 -375 c 0
-55 -160 m 0
 -55 -214 -95 -262 -153 -262 c 0
 -164 -262 -177 -260 -185 -255 c 0
 -165 -204 l 0
 -161 -205 -156 -205 -153 -205 c 0
 -129 -205 -110 -185 -110 -160 c 0
 -110 -136 -132 -113 -153 -113 c 0
 -189 -113 -208 -158 -211 -181 c 0
 -218 -224 -256 -260 -307 -260 c 0
 -365 -260 -406 -213 -406 -159 c 0
 -406 -109 -364 -58 -307 -58 c 0
 -273 -58 -248 -74 -229 -98 c 0
 -209 -70 -181 -60 -153 -60 c 0
 -97 -60 -55 -108 -55 -160 c 0
-261 -160 m 0
 -261 -136 -282 -113 -307 -113 c 0
 -331 -113 -351 -135 -351 -159 c 0
 -351 -183 -331 -205 -307 -205 c 0
 -282 -205 -261 -183 -261 -160 c 0
EndSplineSet
Substitution2: "sub_single_cligmymr_4 subtable" u1010_u103D.med.tri
Ligature2: "sub_ligature_cligmymr_4 subtable" u1010.med u103D
Ligature2: "sub_ligature_cligmymr_4 subtable" u1039 u1010 u103D
Comment: "GDL_order: 2+AAoA-mark: 80+AAoA"
EndChar

StartChar: u1011
Encoding: 153 4113 153
Width: 971
VWidth: 0
GlyphClass: 2
Flags: HW
AnchorPoint: "R" 0 0 mark 0
AnchorPoint: "BS" 679 -53 basechar 0
AnchorPoint: "L" 679 -53 basechar 0
AnchorPoint: "BD" 486 -53 basechar 0
AnchorPoint: "U" 679 495 basechar 0
LayerCount: 2
Back
Fore
SplineSet
915 222 m 0
 915 88 809 -20 679 -20 c 0
 598 -20 527 20 486 83 c 0
 442 20 373 -20 294 -20 c 0
 160 -20 55 88 55 222 c 0
 55 354 161 464 291 464 c 0
 373 464 442 423 486 360 c 0
 527 423 598 464 677 464 c 0
 809 464 915 354 915 222 c 0
823 222 m 0
 823 302 758 370 679 370 c 0
 598 370 533 302 533 222 c 0
 533 141 598 73 677 73 c 0
 758 73 823 141 823 222 c 0
437 222 m 0
 437 302 372 370 294 370 c 0
 213 370 148 302 148 222 c 0
 148 141 213 73 291 73 c 0
 371 73 437 141 437 222 c 0
EndSplineSet
Ligature2: "LigatureSubstitutionlookup169 subtable" u1011 u103C
Ligature2: "LigatureSubstitutionlookup167 subtable" u1011 u103C u1031
Ligature2: "LigatureSubstitutionlookup167 subtable" u1011 u103C.wide u1031
Ligature2: "LigatureSubstitutionlookup167 subtable" u1011 u103C_u103D.narr u1031
Ligature2: "LigatureSubstitutionlookup167 subtable" u1011 u103C_u103D.wide u1031
Ligature2: "LigatureSubstitutionlookup165 subtable" u1011 u103C
Ligature2: "LigatureSubstitutionlookup165 subtable" u1011 u103C_u103D.narr
Ligature2: "LigatureSubstitutionlookup165 subtable" u1011 u103C_u102F.narr
Ligature2: "LigatureSubstitutionlookup163 subtable" u1011 u1031
Ligature2: "LigatureSubstitutionlookup163 subtable" u1011 u1084
Ligature2: "LigatureSubstitutionlookup162 subtable" u1011 u103D
Ligature2: "LigatureSubstitutionlookup162 subtable" u1011 u103E
Ligature2: "LigatureSubstitutionlookup162 subtable" u1011 u103D_u103E
Ligature2: "LigatureSubstitutionlookup162 subtable" u1011
Ligature2: "LigatureSubstitutionlookup162 subtable" u1011 u105F
Ligature2: "LigatureSubstitutionlookup162 subtable" u1011 u1060
Ligature2: "LigatureSubstitutionlookup162 subtable" u1011 u1082
Ligature2: "LigatureSubstitutionlookup158 subtable" u1011 u1039
Ligature2: "LigatureSubstitutionlookup130 subtable" u1004.kinzi u200D u1011
Ligature2: "LigatureSubstitutionlookup130 subtable" u101B.kinzi u200D u1011
Ligature2: "LigatureSubstitutionlookup127 subtable" u1004.kinzi u200D u1011
Ligature2: "LigatureSubstitutionlookup127 subtable" u101B.kinzi u200D u1011
Ligature2: "LigatureSubstitutionlookup124 subtable" u1004.kinzi u200D u1011
Ligature2: "LigatureSubstitutionlookup124 subtable" u101B.kinzi u200D u1011
MultipleSubs2: "MultipleSubstitutionlookup139 subtable" u200C u1031 u1011
MultipleSubs2: "MultipleSubstitutionlookup137 subtable" u200C u1084 u1011
MultipleSubs2: "MultipleSubstitutionlookup136 subtable" u200C u103C_u103D.wide u1011
MultipleSubs2: "MultipleSubstitutionlookup135 subtable" u200C u103C_u102F.wide u1011
MultipleSubs2: "MultipleSubstitutionlookup134 subtable" u200C u103C.wide u1011
MultipleSubs2: "MultipleSubstitutionlookup129 subtable" u1011 u101B.kinzi
MultipleSubs2: "MultipleSubstitutionlookup128 subtable" u1011 u1004.kinzi
Comment: "GDL_order: 1+AAoA-mark: 80+AAoA"
EndChar

StartChar: u1011.med
Encoding: 154 -1 154
Width: 0
VWidth: 0
GlyphClass: 4
Flags: HW
AnchorPoint: "LLM" 100 -53 basemark 0
AnchorPoint: "BD" -387 -53 mark 0
AnchorPoint: "BSM" 100 -53 basemark 0
AnchorPoint: "LM" -868 -53 basemark 0
AnchorPoint: "BSM" 877 -53 mark 0
AnchorPoint: "BDM" -395 -53 mark 0
AnchorPoint: "BD" -395 -53 basemark 0
LayerCount: 2
Back
Fore
SplineSet
-56 -277 m 0
 -56 -380 -138 -464 -239 -464 c 0
 -302 -464 -355 -432 -387 -384 c 0
 -420 -432 -473 -464 -535 -464 c 0
 -637 -464 -719 -380 -719 -277 c 0
 -719 -175 -637 -90 -536 -90 c 0
 -474 -90 -420 -122 -387 -171 c 0
 -355 -122 -301 -90 -240 -90 c 0
 -138 -90 -56 -175 -56 -277 c 0
-129 -277 m 0
 -129 -216 -178 -162 -240 -162 c 0
 -302 -162 -352 -216 -352 -277 c 0
 -352 -338 -302 -393 -241 -393 c 0
 -178 -393 -129 -338 -129 -277 c 0
-423 -277 m 0
 -423 -216 -475 -162 -535 -162 c 0
 -596 -162 -648 -216 -648 -277 c 0
 -648 -338 -596 -393 -536 -393 c 0
 -475 -393 -423 -338 -423 -277 c 0
EndSplineSet
Ligature2: "LigatureSubstitutionlookup179 subtable" u1011.med u102D
Ligature2: "LigatureSubstitutionlookup179 subtable" u1011.med u102E
Ligature2: "LigatureSubstitutionlookup179 subtable" u1011.med u1032
Ligature2: "LigatureSubstitutionlookup179 subtable" u1011.med u103A
Ligature2: "LigatureSubstitutionlookup171 subtable" u1011.med u103C u1031
Ligature2: "LigatureSubstitutionlookup159 subtable" u1011.med u1031
Ligature2: "LigatureSubstitutionlookup159 subtable" u1011.med u103C
Ligature2: "sub_ligature_cligmymr_0 subtable" u1039 u1011
MultipleSubs2: "MultipleSubstitutionlookup138 subtable" u1039 u1011.med
Comment: "GDL_order: 2+AAoA-mark: 80+AAoA"
EndChar

StartChar: u1012
Encoding: 155 4114 155
Width: 546
VWidth: 0
GlyphClass: 2
Flags: HW
AnchorPoint: "R" 0 0 mark 0
AnchorPoint: "BS" 273 -53 basechar 0
AnchorPoint: "L" 273 -53 basechar 0
AnchorPoint: "U" 273 495 basechar 0
AnchorPoint: "BD" 267 -53 basechar 0
LayerCount: 2
Back
Fore
SplineSet
491 130 m 0
 491 48 424 -20 273 -20 c 0
 128 -20 55 39 55 119 c 0
 144 152 l 0
 144 120 182 73 273 73 c 0
 334 73 398 88 398 131 c 0
 398 166 342 182 273 183 c 0
 273 260 l 0
 342 262 398 277 398 314 c 0
 398 355 334 370 273 370 c 0
 182 370 144 323 144 291 c 0
 55 324 l 0
 55 404 132 464 273 464 c 0
 424 464 491 395 491 313 c 0
 491 274 471 239 438 221 c 0
 471 201 491 167 491 130 c 0
EndSplineSet
Ligature2: "LigatureSubstitutionlookup169 subtable" u1012 u103C
Ligature2: "LigatureSubstitutionlookup167 subtable" u1012 u103C u1031
Ligature2: "LigatureSubstitutionlookup167 subtable" u1012 u103C.wide u1031
Ligature2: "LigatureSubstitutionlookup167 subtable" u1012 u103C_u103D.narr u1031
Ligature2: "LigatureSubstitutionlookup167 subtable" u1012 u103C_u103D.wide u1031
Ligature2: "LigatureSubstitutionlookup165 subtable" u1012 u103C
Ligature2: "LigatureSubstitutionlookup165 subtable" u1012 u103C_u103D.narr
Ligature2: "LigatureSubstitutionlookup165 subtable" u1012 u103C_u102F.narr
Ligature2: "LigatureSubstitutionlookup163 subtable" u1012 u1031
Ligature2: "LigatureSubstitutionlookup163 subtable" u1012 u1084
Ligature2: "LigatureSubstitutionlookup162 subtable" u1012 u103D
Ligature2: "LigatureSubstitutionlookup162 subtable" u1012 u103E
Ligature2: "LigatureSubstitutionlookup162 subtable" u1012 u103D_u103E
Ligature2: "LigatureSubstitutionlookup162 subtable" u1012
Ligature2: "LigatureSubstitutionlookup162 subtable" u1012 u105F
Ligature2: "LigatureSubstitutionlookup162 subtable" u1012 u1060
Ligature2: "LigatureSubstitutionlookup162 subtable" u1012 u1082
Ligature2: "LigatureSubstitutionlookup158 subtable" u1012 u1039
Ligature2: "LigatureSubstitutionlookup130 subtable" u1004.kinzi u200D u1012
Ligature2: "LigatureSubstitutionlookup130 subtable" u101B.kinzi u200D u1012
Ligature2: "LigatureSubstitutionlookup127 subtable" u1004.kinzi u200D u1012
Ligature2: "LigatureSubstitutionlookup127 subtable" u101B.kinzi u200D u1012
Ligature2: "LigatureSubstitutionlookup124 subtable" u1004.kinzi u200D u1012
Ligature2: "LigatureSubstitutionlookup124 subtable" u101B.kinzi u200D u1012
MultipleSubs2: "MultipleSubstitutionlookup139 subtable" u200C u1031 u1012
MultipleSubs2: "MultipleSubstitutionlookup137 subtable" u200C u1084 u1012
MultipleSubs2: "MultipleSubstitutionlookup136 subtable" u200C u103C_u103D.narr u1012
MultipleSubs2: "MultipleSubstitutionlookup135 subtable" u200C u103C_u102F.narr u1012
MultipleSubs2: "MultipleSubstitutionlookup134 subtable" u200C u103C u1012
MultipleSubs2: "MultipleSubstitutionlookup129 subtable" u1012 u101B.kinzi
MultipleSubs2: "MultipleSubstitutionlookup128 subtable" u1012 u1004.kinzi
PairPos2: "PairwisePositioningkerninglooku subtable" uAA60.med.kham dx=-90 dy=0 dh=0 dv=0 dx=0 dy=0 dh=90 dv=0
PairPos2: "PairwisePositioningkerninglooku subtable" uAA60.med dx=-90 dy=0 dh=0 dv=0 dx=0 dy=0 dh=90 dv=0
PairPos2: "PairwisePositioningkerninglooku subtable" u1021.med dx=-90 dy=0 dh=0 dv=0 dx=0 dy=0 dh=90 dv=0
PairPos2: "PairwisePositioningkerninglooku subtable" u101E.med dx=-90 dy=0 dh=0 dv=0 dx=0 dy=0 dh=90 dv=0
PairPos2: "PairwisePositioningkerninglooku subtable" u101C.med dx=-90 dy=0 dh=0 dv=0 dx=0 dy=0 dh=90 dv=0
PairPos2: "PairwisePositioningkerninglooku subtable" u101A.med dx=-90 dy=0 dh=0 dv=0 dx=0 dy=0 dh=90 dv=0
PairPos2: "PairwisePositioningkerninglooku subtable" u1018.med dx=-90 dy=0 dh=0 dv=0 dx=0 dy=0 dh=90 dv=0
PairPos2: "PairwisePositioningkerninglooku subtable" u1011.med dx=-90 dy=0 dh=0 dv=0 dx=0 dy=0 dh=90 dv=0
PairPos2: "PairwisePositioningkerninglooku subtable" u1010.med dx=-90 dy=0 dh=0 dv=0 dx=0 dy=0 dh=90 dv=0
PairPos2: "PairwisePositioningkerninglooku subtable" u100F.med dx=-90 dy=0 dh=0 dv=0 dx=0 dy=0 dh=90 dv=0
PairPos2: "PairwisePositioningkerninglooku subtable" u100C.med dx=-90 dy=0 dh=0 dv=0 dx=0 dy=0 dh=90 dv=0
PairPos2: "PairwisePositioningkerninglooku subtable" u100A.med dx=-90 dy=0 dh=0 dv=0 dx=0 dy=0 dh=90 dv=0
PairPos2: "PairwisePositioningkerninglooku subtable" u1006.med dx=-90 dy=0 dh=0 dv=0 dx=0 dy=0 dh=90 dv=0
PairPos2: "PairwisePositioningkerninglooku subtable" u1003.med dx=-90 dy=0 dh=0 dv=0 dx=0 dy=0 dh=90 dv=0
PairPos2: "PairwisePositioningkerninglooku subtable" u1000.med dx=-90 dy=0 dh=0 dv=0 dx=0 dy=0 dh=90 dv=0
Position2: "SinglePositioninglookup48 per glyph data 0" dx=100 dy=0 dh=50 dv=0
Position2: "SinglePositioninglookup30 subtable" dx=140 dy=0 dh=140 dv=0
Comment: "GDL_order: 1+AAoA-mark: 80+AAoA"
EndChar

StartChar: u1012.med
Encoding: 156 -1 156
Width: 0
VWidth: 0
GlyphClass: 4
Flags: HW
AnchorPoint: "BS" -224 -53 mark 0
AnchorPoint: "LLM" -549 -53 basemark 0
AnchorPoint: "BSM" -224 -53 mark 0
AnchorPoint: "LM" 98 -53 basemark 0
AnchorPoint: "BS" 219 -53 basemark 0
AnchorPoint: "BSM" 526 -53 basemark 0
LayerCount: 2
Back
Fore
SplineSet
-58 -348 m 0
 -58 -410 -109 -464 -225 -464 c 0
 -339 -464 -393 -418 -393 -356 c 0
 -325 -331 l 0
 -325 -352 -299 -393 -225 -393 c 0
 -179 -393 -129 -381 -129 -347 c 0
 -129 -321 -172 -308 -225 -307 c 0
 -225 -248 l 0
 -174 -248 -129 -235 -129 -207 c 0
 -129 -174 -179 -161 -225 -161 c 0
 -299 -161 -325 -203 -325 -224 c 0
 -393 -198 l 0
 -393 -135 -335 -90 -225 -90 c 0
 -109 -90 -58 -143 -58 -208 c 0
 -58 -238 -72 -263 -98 -278 c 0
 -72 -291 -58 -320 -58 -348 c 0
EndSplineSet
Ligature2: "LigatureSubstitutionlookup179 subtable" u1012.med u102D
Ligature2: "LigatureSubstitutionlookup179 subtable" u1012.med u102E
Ligature2: "LigatureSubstitutionlookup179 subtable" u1012.med u1032
Ligature2: "LigatureSubstitutionlookup179 subtable" u1012.med u103A
Ligature2: "LigatureSubstitutionlookup171 subtable" u1012.med u103C u1031
Ligature2: "LigatureSubstitutionlookup159 subtable" u1012.med u1031
Ligature2: "LigatureSubstitutionlookup159 subtable" u1012.med u103C
Ligature2: "sub_ligature_cligmymr_0 subtable" u1039 u1012
MultipleSubs2: "MultipleSubstitutionlookup138 subtable" u1039 u1012.med
Comment: "GDL_order: 2+AAoA-mark: 80+AAoA"
EndChar

StartChar: u1013
Encoding: 157 4115 157
Width: 586
VWidth: 0
GlyphClass: 2
Flags: HW
AnchorPoint: "R" 0 0 mark 0
AnchorPoint: "BS" 294 -53 basechar 0
AnchorPoint: "L" 294 -53 basechar 0
AnchorPoint: "U" 294 495 basechar 0
AnchorPoint: "BD" 288 -53 basechar 0
LayerCount: 2
Back
Fore
SplineSet
530 222 m 0
 530 88 425 -20 294 -20 c 0
 160 -20 55 88 55 222 c 0
 55 354 161 464 291 464 c 0
 425 464 530 354 530 222 c 0
436 229 m 0
 432 305 369 370 294 370 c 0
 217 370 151 307 148 228 c 0
 148 220 150 212 153 205 c 0
 195 243 250 252 293 252 c 0
 335 252 390 241 432 205 c 0
 435 213 436 221 436 229 c 0
406 131 m 0
 370 161 331 173 294 173 c 0
 259 173 218 161 179 128 c 0
 207 95 246 73 291 73 c 0
 338 73 379 97 406 131 c 0
EndSplineSet
Ligature2: "LigatureSubstitutionlookup169 subtable" u1013 u103C
Ligature2: "LigatureSubstitutionlookup167 subtable" u1013 u103C u1031
Ligature2: "LigatureSubstitutionlookup167 subtable" u1013 u103C.wide u1031
Ligature2: "LigatureSubstitutionlookup167 subtable" u1013 u103C_u103D.narr u1031
Ligature2: "LigatureSubstitutionlookup167 subtable" u1013 u103C_u103D.wide u1031
Ligature2: "LigatureSubstitutionlookup165 subtable" u1013 u103C
Ligature2: "LigatureSubstitutionlookup165 subtable" u1013 u103C_u103D.narr
Ligature2: "LigatureSubstitutionlookup165 subtable" u1013 u103C_u102F.narr
Ligature2: "LigatureSubstitutionlookup163 subtable" u1013 u1031
Ligature2: "LigatureSubstitutionlookup163 subtable" u1013 u1084
Ligature2: "LigatureSubstitutionlookup162 subtable" u1013 u103D
Ligature2: "LigatureSubstitutionlookup162 subtable" u1013 u103E
Ligature2: "LigatureSubstitutionlookup162 subtable" u1013 u103D_u103E
Ligature2: "LigatureSubstitutionlookup162 subtable" u1013
Ligature2: "LigatureSubstitutionlookup162 subtable" u1013 u105F
Ligature2: "LigatureSubstitutionlookup162 subtable" u1013 u1060
Ligature2: "LigatureSubstitutionlookup162 subtable" u1013 u1082
Ligature2: "LigatureSubstitutionlookup158 subtable" u1013 u1039
Ligature2: "LigatureSubstitutionlookup130 subtable" u1004.kinzi u200D u1013
Ligature2: "LigatureSubstitutionlookup130 subtable" u101B.kinzi u200D u1013
Ligature2: "LigatureSubstitutionlookup127 subtable" u1004.kinzi u200D u1013
Ligature2: "LigatureSubstitutionlookup127 subtable" u101B.kinzi u200D u1013
Ligature2: "LigatureSubstitutionlookup124 subtable" u1004.kinzi u200D u1013
Ligature2: "LigatureSubstitutionlookup124 subtable" u101B.kinzi u200D u1013
MultipleSubs2: "MultipleSubstitutionlookup139 subtable" u200C u1031 u1013
MultipleSubs2: "MultipleSubstitutionlookup137 subtable" u200C u1084 u1013
MultipleSubs2: "MultipleSubstitutionlookup136 subtable" u200C u103C_u103D.narr u1013
MultipleSubs2: "MultipleSubstitutionlookup135 subtable" u200C u103C_u102F.narr u1013
MultipleSubs2: "MultipleSubstitutionlookup134 subtable" u200C u103C u1013
MultipleSubs2: "MultipleSubstitutionlookup129 subtable" u1013 u101B.kinzi
MultipleSubs2: "MultipleSubstitutionlookup128 subtable" u1013 u1004.kinzi
PairPos2: "PairwisePositioningkerninglooku subtable" uAA60.med.kham dx=-90 dy=0 dh=0 dv=0 dx=0 dy=0 dh=90 dv=0
PairPos2: "PairwisePositioningkerninglooku subtable" uAA60.med dx=-90 dy=0 dh=0 dv=0 dx=0 dy=0 dh=90 dv=0
PairPos2: "PairwisePositioningkerninglooku subtable" u1021.med dx=-90 dy=0 dh=0 dv=0 dx=0 dy=0 dh=90 dv=0
PairPos2: "PairwisePositioningkerninglooku subtable" u101E.med dx=-90 dy=0 dh=0 dv=0 dx=0 dy=0 dh=90 dv=0
PairPos2: "PairwisePositioningkerninglooku subtable" u101C.med dx=-90 dy=0 dh=0 dv=0 dx=0 dy=0 dh=90 dv=0
PairPos2: "PairwisePositioningkerninglooku subtable" u101A.med dx=-90 dy=0 dh=0 dv=0 dx=0 dy=0 dh=90 dv=0
PairPos2: "PairwisePositioningkerninglooku subtable" u1018.med dx=-90 dy=0 dh=0 dv=0 dx=0 dy=0 dh=90 dv=0
PairPos2: "PairwisePositioningkerninglooku subtable" u1011.med dx=-90 dy=0 dh=0 dv=0 dx=0 dy=0 dh=90 dv=0
PairPos2: "PairwisePositioningkerninglooku subtable" u1010.med dx=-90 dy=0 dh=0 dv=0 dx=0 dy=0 dh=90 dv=0
PairPos2: "PairwisePositioningkerninglooku subtable" u100F.med dx=-90 dy=0 dh=0 dv=0 dx=0 dy=0 dh=90 dv=0
PairPos2: "PairwisePositioningkerninglooku subtable" u100C.med dx=-90 dy=0 dh=0 dv=0 dx=0 dy=0 dh=90 dv=0
PairPos2: "PairwisePositioningkerninglooku subtable" u100A.med dx=-90 dy=0 dh=0 dv=0 dx=0 dy=0 dh=90 dv=0
PairPos2: "PairwisePositioningkerninglooku subtable" u1006.med dx=-90 dy=0 dh=0 dv=0 dx=0 dy=0 dh=90 dv=0
PairPos2: "PairwisePositioningkerninglooku subtable" u1003.med dx=-90 dy=0 dh=0 dv=0 dx=0 dy=0 dh=90 dv=0
PairPos2: "PairwisePositioningkerninglooku subtable" u1000.med dx=-90 dy=0 dh=0 dv=0 dx=0 dy=0 dh=90 dv=0
Position2: "SinglePositioninglookup48 per glyph data 0" dx=100 dy=0 dh=50 dv=0
Position2: "SinglePositioninglookup30 subtable" dx=140 dy=0 dh=140 dv=0
Comment: "GDL_order: 1+AAoA-mark: 80+AAoA"
EndChar

StartChar: u1013.med
Encoding: 158 -1 158
Width: 0
VWidth: 0
GlyphClass: 4
Flags: HW
AnchorPoint: "BS" -237 -53 mark 0
AnchorPoint: "LLM" -576 -53 basemark 0
AnchorPoint: "BSM" -237 -53 mark 0
AnchorPoint: "LM" 100 -53 basemark 0
AnchorPoint: "BS" 234 -53 basemark 0
AnchorPoint: "BSM" 556 -53 basemark 0
LayerCount: 2
Back
Fore
SplineSet
-56 -277 m 0
 -56 -380 -137 -464 -236 -464 c 0
 -338 -464 -420 -380 -420 -277 c 0
 -420 -175 -338 -90 -238 -90 c 0
 -137 -90 -56 -175 -56 -277 c 0
-126 -272 m 0
 -130 -212 -177 -162 -236 -162 c 0
 -298 -162 -347 -213 -349 -272 c 0
 -349 -278 -348 -284 -345 -291 c 0
 -308 -260 -271 -254 -236 -254 c 0
 -204 -254 -164 -262 -129 -290 c 0
 -127 -284 -126 -278 -126 -272 c 0
-199 -329 m 0
 -214 -323 -230 -320 -244 -320 c 0
 -260 -320 -276 -324 -289 -329 c 0
 -286 -345 -282 -360 -275 -373 c 0
 -263 -378 -252 -380 -240 -380 c 0
 -222 -380 -204 -375 -187 -366 c 0
 -186 -364 -186 -362 -186 -360 c 0
 -186 -350 -192 -338 -199 -329 c 0
EndSplineSet
Ligature2: "LigatureSubstitutionlookup179 subtable" u1013.med u102D
Ligature2: "LigatureSubstitutionlookup179 subtable" u1013.med u102E
Ligature2: "LigatureSubstitutionlookup179 subtable" u1013.med u1032
Ligature2: "LigatureSubstitutionlookup179 subtable" u1013.med u103A
Ligature2: "LigatureSubstitutionlookup171 subtable" u1013.med u103C u1031
Ligature2: "LigatureSubstitutionlookup159 subtable" u1013.med u1031
Ligature2: "LigatureSubstitutionlookup159 subtable" u1013.med u103C
Ligature2: "sub_ligature_cligmymr_0 subtable" u1039 u1013
MultipleSubs2: "MultipleSubstitutionlookup138 subtable" u1039 u1013.med
Comment: "GDL_order: 2+AAoA-mark: 80+AAoA"
EndChar

StartChar: u1014
Encoding: 159 4116 159
Width: 555
VWidth: 0
GlyphClass: 2
Flags: HW
AnchorPoint: "R" 4 0 mark 0
AnchorPoint: "BS" 569 -53 basechar 0
AnchorPoint: "L" 526 -53 basechar 0
AnchorPoint: "U" 290 495 basechar 0
AnchorPoint: "BD" 531 -53 basechar 0
LayerCount: 2
Back
Fore
SplineSet
506 140 m 0
 506 57 460 10 362 -11 c 0
 362 -464 l 0
 269 -464 l 0
 269 -20 l 0
 243 -20 l 0
 165 -20 48 -14 48 97 c 0
 48 164 115 220 191 220 c 0
 229 220 264 206 294 179 c 0
 324 152 345 119 355 77 c 0
 390 87 413 106 413 140 c 0
 413 248 143 230 143 359 c 0
 143 422 201 464 290 464 c 0
 343 464 378 444 398 425 c 0
 357 360 l 0
 343 372 318 385 290 385 c 0
 260 385 236 378 236 359 c 0
 236 302 506 319 506 140 c 0
265 61 m 0
 255 106 230 137 191 137 c 0
 164 137 131 121 131 97 c 0
 131 64 183 61 225 61 c 0
 265 61 l 0
EndSplineSet
Substitution2: "SingleSubstitutionlookup143 subtable" u1014.alt
Ligature2: "LigatureSubstitutionlookup169 subtable" u1014 u103C
Ligature2: "LigatureSubstitutionlookup167 subtable" u1014 u103C u1031
Ligature2: "LigatureSubstitutionlookup167 subtable" u1014 u103C.wide u1031
Ligature2: "LigatureSubstitutionlookup167 subtable" u1014 u103C_u103D.narr u1031
Ligature2: "LigatureSubstitutionlookup167 subtable" u1014 u103C_u103D.wide u1031
Ligature2: "LigatureSubstitutionlookup165 subtable" u1014 u103C
Ligature2: "LigatureSubstitutionlookup165 subtable" u1014 u103C_u103D.narr
Ligature2: "LigatureSubstitutionlookup165 subtable" u1014 u103C_u102F.narr
Ligature2: "LigatureSubstitutionlookup163 subtable" u1014 u1031
Ligature2: "LigatureSubstitutionlookup163 subtable" u1014 u1084
Ligature2: "LigatureSubstitutionlookup162 subtable" u1014 u103D
Ligature2: "LigatureSubstitutionlookup162 subtable" u1014 u103E
Ligature2: "LigatureSubstitutionlookup162 subtable" u1014 u103D_u103E
Ligature2: "LigatureSubstitutionlookup162 subtable" u1014
Ligature2: "LigatureSubstitutionlookup162 subtable" u1014 u105F
Ligature2: "LigatureSubstitutionlookup162 subtable" u1014 u1060
Ligature2: "LigatureSubstitutionlookup162 subtable" u1014 u1082
Ligature2: "LigatureSubstitutionlookup158 subtable" u1014 u1039
Ligature2: "LigatureSubstitutionlookup130 subtable" u1004.kinzi u200D u1014
Ligature2: "LigatureSubstitutionlookup130 subtable" u101B.kinzi u200D u1014
Ligature2: "LigatureSubstitutionlookup127 subtable" u1004.kinzi u200D u1014
Ligature2: "LigatureSubstitutionlookup127 subtable" u101B.kinzi u200D u1014
Ligature2: "LigatureSubstitutionlookup124 subtable" u1004.kinzi u200D u1014
Ligature2: "LigatureSubstitutionlookup124 subtable" u101B.kinzi u200D u1014
MultipleSubs2: "MultipleSubstitutionlookup139 subtable" u200C u1031 u1014
MultipleSubs2: "MultipleSubstitutionlookup137 subtable" u200C u1084 u1014
MultipleSubs2: "MultipleSubstitutionlookup136 subtable" u200C u103C_u103D.narr u1014
MultipleSubs2: "MultipleSubstitutionlookup135 subtable" u200C u103C_u102F.narr u1014
MultipleSubs2: "MultipleSubstitutionlookup134 subtable" u200C u103C u1014
MultipleSubs2: "MultipleSubstitutionlookup129 subtable" u1014 u101B.kinzi
MultipleSubs2: "MultipleSubstitutionlookup128 subtable" u1014 u1004.kinzi
PairPos2: "PairwisePositioningkerninglooku subtable" uAA60.med.kham dx=-90 dy=0 dh=0 dv=0 dx=0 dy=0 dh=90 dv=0
PairPos2: "PairwisePositioningkerninglooku subtable" uAA60.med dx=-90 dy=0 dh=0 dv=0 dx=0 dy=0 dh=90 dv=0
PairPos2: "PairwisePositioningkerninglooku subtable" u1021.med dx=-90 dy=0 dh=0 dv=0 dx=0 dy=0 dh=90 dv=0
PairPos2: "PairwisePositioningkerninglooku subtable" u101E.med dx=-90 dy=0 dh=0 dv=0 dx=0 dy=0 dh=90 dv=0
PairPos2: "PairwisePositioningkerninglooku subtable" u101C.med dx=-90 dy=0 dh=0 dv=0 dx=0 dy=0 dh=90 dv=0
PairPos2: "PairwisePositioningkerninglooku subtable" u101A.med dx=-90 dy=0 dh=0 dv=0 dx=0 dy=0 dh=90 dv=0
PairPos2: "PairwisePositioningkerninglooku subtable" u1018.med dx=-90 dy=0 dh=0 dv=0 dx=0 dy=0 dh=90 dv=0
PairPos2: "PairwisePositioningkerninglooku subtable" u1011.med dx=-90 dy=0 dh=0 dv=0 dx=0 dy=0 dh=90 dv=0
PairPos2: "PairwisePositioningkerninglooku subtable" u1010.med dx=-90 dy=0 dh=0 dv=0 dx=0 dy=0 dh=90 dv=0
PairPos2: "PairwisePositioningkerninglooku subtable" u100F.med dx=-90 dy=0 dh=0 dv=0 dx=0 dy=0 dh=90 dv=0
PairPos2: "PairwisePositioningkerninglooku subtable" u100C.med dx=-90 dy=0 dh=0 dv=0 dx=0 dy=0 dh=90 dv=0
PairPos2: "PairwisePositioningkerninglooku subtable" u100A.med dx=-90 dy=0 dh=0 dv=0 dx=0 dy=0 dh=90 dv=0
PairPos2: "PairwisePositioningkerninglooku subtable" u1006.med dx=-90 dy=0 dh=0 dv=0 dx=0 dy=0 dh=90 dv=0
PairPos2: "PairwisePositioningkerninglooku subtable" u1003.med dx=-90 dy=0 dh=0 dv=0 dx=0 dy=0 dh=90 dv=0
PairPos2: "PairwisePositioningkerninglooku subtable" u1000.med dx=-90 dy=0 dh=0 dv=0 dx=0 dy=0 dh=90 dv=0
Position2: "SinglePositioninglookup48 per glyph data 0" dx=100 dy=0 dh=50 dv=0
Position2: "SinglePositioninglookup30 subtable" dx=140 dy=0 dh=140 dv=0
Comment: "GDL_order: 1+AAoA-mark: 80+AAoA"
EndChar

